<svg width="306" height="307" viewBox="0 0 306 307" fill="none" xmlns="http://www.w3.org/2000/svg">
<g filter="url(#filter0_d_603_8)">
<path d="M150.782 2.434C151.972 1.12793 154.028 1.12793 155.218 2.434L182.763 32.6672C183.552 33.5336 184.774 33.861 185.891 33.5053L224.862 21.0953C226.546 20.5592 228.326 21.5868 228.704 23.3129L237.442 63.2683C237.692 64.4134 238.587 65.3077 239.732 65.5581L279.687 74.2965C281.413 74.674 282.441 76.4539 281.905 78.1375L269.495 117.109C269.139 118.226 269.466 119.448 270.333 120.237L300.566 147.782C301.872 148.972 301.872 151.028 300.566 152.218L270.333 179.763C269.466 180.552 269.139 181.774 269.495 182.891L281.905 221.862C282.441 223.546 281.413 225.326 279.687 225.704L239.732 234.442C238.587 234.692 237.692 235.587 237.442 236.732L228.704 276.687C228.326 278.413 226.546 279.441 224.863 278.905L185.891 266.495C184.774 266.139 183.552 266.466 182.763 267.333L155.218 297.566C154.028 298.872 151.972 298.872 150.782 297.566L123.237 267.333C122.448 266.466 121.226 266.139 120.109 266.495L81.1375 278.905C79.4539 279.441 77.674 278.413 77.2965 276.687L68.5581 236.732C68.3077 235.587 67.4134 234.692 66.2683 234.442L26.3129 225.704C24.5868 225.326 23.5592 223.546 24.0953 221.863L36.5053 182.891C36.861 181.774 36.5336 180.552 35.6672 179.763L5.434 152.218C4.12793 151.028 4.12793 148.972 5.434 147.782L35.6672 120.237C36.5336 119.448 36.861 118.226 36.5053 117.109L24.0953 78.1375C23.5592 76.4539 24.5868 74.674 26.3129 74.2965L66.2683 65.5581C67.4134 65.3077 68.3077 64.4134 68.5581 63.2683L77.2965 23.3129C77.674 21.5868 79.4539 20.5592 81.1375 21.0953L120.109 33.5053C121.226 33.861 122.448 33.5336 123.237 32.6672L150.782 2.434Z" fill="#FF0420"/>
<path d="M98.4046 104.597L107.77 121.668L124.841 131.033L107.77 140.399L98.4046 157.47L89.0391 140.399L71.9678 131.033L89.0391 121.668L98.4046 104.597Z" fill="white"/>
<path d="M205.302 104.597L214.668 121.668L231.739 131.033L214.668 140.399L205.302 157.47L195.937 140.399L178.865 131.033L195.937 121.668L205.302 104.597Z" fill="white"/>
<path d="M135.183 156.322C135.183 178.735 168.516 179.885 168.516 156.322" stroke="white" stroke-width="8" stroke-linecap="round"/>
</g>
<defs>
<filter id="filter0_d_603_8" x="0.45459" y="1.45435" width="305.091" height="305.091" filterUnits="userSpaceOnUse" color-interpolation-filters="sRGB">
<feFlood flood-opacity="0" result="BackgroundImageFix"/>
<feColorMatrix in="SourceAlpha" type="matrix" values="0 0 0 0 0 0 0 0 0 0 0 0 0 0 0 0 0 0 127 0" result="hardAlpha"/>
<feOffset dy="4"/>
<feGaussianBlur stdDeviation="2"/>
<feComposite in2="hardAlpha" operator="out"/>
<feColorMatrix type="matrix" values="0 0 0 0 0 0 0 0 0 0 0 0 0 0 0 0 0 0 0.25 0"/>
<feBlend mode="normal" in2="BackgroundImageFix" result="effect1_dropShadow_603_8"/>
<feBlend mode="normal" in="SourceGraphic" in2="effect1_dropShadow_603_8" result="shape"/>
</filter>
</defs>
</svg>
