<svg width="1080" height="1080" viewBox="0 0 1080 1080" fill="none" xmlns="http://www.w3.org/2000/svg">
<g clip-path="url(#clip0_2_3)">
<path d="M309.891 617.577C182.676 490.362 182.676 284.106 309.891 156.891C437.106 29.6759 643.362 29.6758 770.577 156.891C897.792 284.106 897.792 490.362 770.577 617.577L540.234 847.921L539.945 847.631L539.419 847.105L538.893 846.579L538.367 846.053L537.84 845.527L537.314 845.001L536.788 844.474L536.262 843.948L535.735 843.422L535.209 842.895L534.682 842.369L534.156 841.842L533.63 841.316L533.103 840.789L532.576 840.263L532.05 839.736L531.523 839.21L530.997 838.683L530.47 838.156L529.943 837.63L529.417 837.103L528.89 836.576L528.363 836.05L527.837 835.523L527.31 834.996L526.783 834.469L526.256 833.943L525.729 833.416L525.203 832.889L524.676 832.362L524.149 831.835L523.622 831.309L523.095 830.782L522.569 830.255L522.042 829.728L521.515 829.201L520.988 828.674L520.461 828.148L519.934 827.621L519.408 827.094L518.881 826.567L518.354 826.04L517.827 825.513L517.3 824.987L516.773 824.46L516.247 823.933L515.72 823.406L515.193 822.88L514.666 822.353L514.14 821.826L513.613 821.299L513.086 820.773L512.56 820.246L512.033 819.719L511.506 819.193L510.98 818.666L510.453 818.14L509.927 817.613L509.4 817.086L508.874 816.56L508.347 816.033L507.821 815.507L507.294 814.981L506.768 814.454L506.241 813.928L505.715 813.402L505.189 812.875L504.663 812.349L504.137 811.823L503.61 811.297L503.084 810.771L502.558 810.245L502.032 809.719L501.506 809.193L500.98 808.667L500.454 808.141L499.929 807.615L499.403 807.089L498.877 806.563L498.351 806.038L497.826 805.512L497.3 804.987L496.775 804.461L496.249 803.936L495.724 803.41L495.199 802.885L494.673 802.36L494.148 801.834L493.623 801.309L493.098 800.784L492.573 800.259L492.048 799.734L491.523 799.209L490.998 798.685L490.474 798.16L489.949 797.635L489.424 797.111L488.9 796.586L488.375 796.062L487.851 795.537L487.327 795.013L486.803 794.489L486.279 793.965L485.755 793.441L485.231 792.917L484.707 792.393L484.183 791.869L483.659 791.346L483.136 790.822L482.612 790.299L482.089 789.775L481.566 789.252L481.042 788.729L480.519 788.206L479.996 787.683L479.473 787.16L478.951 786.637L478.428 786.114L477.905 785.592L477.383 785.069L476.86 784.547L476.338 784.024L475.816 783.502L475.294 782.98L474.772 782.458L474.25 781.936L473.728 781.415L473.207 780.893L472.685 780.371L472.164 779.85L471.642 779.329L471.121 778.808L470.6 778.286L470.079 777.766L469.558 777.245L469.038 776.724L468.517 776.204L467.997 775.683L467.476 775.163L466.956 774.643L466.436 774.123L465.916 773.603L465.396 773.083L464.877 772.563L464.357 772.044L463.838 771.524L463.319 771.005L462.8 770.486L462.281 769.967L461.762 769.448L461.243 768.93L460.725 768.411L460.206 767.893L459.688 767.374L459.17 766.856L458.652 766.338L458.134 765.821L457.617 765.303L457.099 764.785L456.582 764.268L456.064 763.751L455.547 763.234L455.031 762.717L454.514 762.2L453.997 761.684L453.481 761.167L452.965 760.651L452.449 760.135L451.933 759.619L451.417 759.103L450.901 758.588L450.386 758.072L449.871 757.557L449.356 757.042L448.841 756.527L448.326 756.013L447.812 755.498L447.297 754.984L446.783 754.469L446.269 753.955L445.755 753.442L445.242 752.928L444.728 752.415L444.215 751.901L443.702 751.388L443.189 750.875L442.676 750.363L442.164 749.85L441.651 749.338L441.139 748.826L440.627 748.314L440.115 747.802L439.604 747.29L439.092 746.779L438.581 746.268L438.07 745.757L437.56 745.246L437.049 744.735L436.539 744.225L436.028 743.715L435.519 743.205L435.009 742.695L434.499 742.186L433.99 741.676L433.481 741.167L432.972 740.658L432.463 740.149L431.955 739.641L431.446 739.133L430.938 738.625L430.43 738.117L429.923 737.609L429.415 737.102L428.908 736.595L428.401 736.088L427.895 735.581L427.388 735.074L426.882 734.568L426.376 734.062L425.87 733.556L425.364 733.051L424.859 732.545L424.354 732.04L423.849 731.535L423.344 731.031L422.84 730.526L422.336 730.022L421.832 729.518L421.328 729.014L420.824 728.511L420.321 728.008L419.818 727.505L419.315 727.002L418.813 726.499L418.311 725.997L417.809 725.495L417.307 724.993L416.805 724.492L416.304 723.991L415.803 723.49L415.302 722.989L414.802 722.488L414.302 721.988L413.802 721.488L413.302 720.989L412.803 720.489L412.303 719.99L411.805 719.491L411.306 718.992L410.808 718.494L410.309 717.996L409.812 717.498L409.314 717L408.817 716.503L408.32 716.006L407.823 715.509L407.326 715.013L406.83 714.517L406.334 714.021L405.839 713.525L405.343 713.03L404.848 712.535L404.353 712.04L403.859 711.545L403.365 711.051L402.871 710.557L402.377 710.063L401.884 709.57L401.391 709.077L400.898 708.584L400.405 708.092L399.913 707.599L399.421 707.107L398.929 706.616L398.438 706.125L397.947 705.634L397.456 705.143L396.966 704.652L396.476 704.162L395.986 703.672L395.497 703.183L395.007 702.694L394.518 702.205L394.03 701.716L393.542 701.228L393.054 700.74L392.566 700.252L392.079 699.765L391.592 699.278L391.105 698.791L390.619 698.305L390.133 697.819L389.647 697.333L389.161 696.848L388.676 696.363L388.191 695.878L387.707 695.393L387.223 694.909L386.739 694.425L386.256 693.942L385.772 693.459L385.29 692.976L384.807 692.494L384.325 692.011L383.843 691.53L383.362 691.048L382.881 690.567L382.4 690.086L381.919 689.606L381.439 689.126L380.959 688.646L380.48 688.166L380.001 687.687L379.522 687.209L379.044 686.73L378.566 686.252L378.088 685.775L377.611 685.297L377.134 684.82L376.657 684.344L376.181 683.867L375.705 683.391L375.229 682.916L374.754 682.441L374.279 681.966L373.805 681.491L373.331 681.017L372.857 680.543L372.384 680.07L371.911 679.597L371.438 679.124L370.966 678.652L370.494 678.18L370.022 677.709L369.551 677.238L369.08 676.767L368.61 676.296L368.14 675.826L367.67 675.357L367.201 674.887L366.732 674.418L366.264 673.95L365.795 673.482L365.328 673.014L364.86 672.547L364.393 672.08L363.927 671.613L363.46 671.147L362.995 670.681L362.529 670.216L362.064 669.751L361.6 669.286L361.135 668.822L360.671 668.358L360.208 667.894L359.745 667.431L359.282 666.969L358.82 666.506L358.358 666.045L357.897 665.583L357.436 665.122L356.975 664.662L356.515 664.201L356.055 663.741L355.596 663.282L355.137 662.823L354.678 662.365L354.22 661.906L353.762 661.449L353.305 660.991L352.848 660.534L352.391 660.078L351.935 659.622L351.48 659.166L351.024 658.711L350.57 658.256L350.115 657.802L349.661 657.348L349.208 656.894L348.755 656.441L348.302 655.988L347.85 655.536L347.398 655.084L346.947 654.633L346.496 654.182L346.045 653.732L345.595 653.282L345.146 652.832L344.696 652.383L344.248 651.934L343.799 651.486L343.352 651.038L342.904 650.591L342.457 650.144L342.011 649.697L341.565 649.251L341.119 648.805L340.674 648.36L340.229 647.916L339.785 647.471L339.341 647.028L338.898 646.584L338.455 646.141L338.012 645.699L337.571 645.257L337.129 644.815L336.688 644.374L336.247 643.934L335.807 643.494L335.368 643.054L334.928 642.615L334.49 642.176L334.052 641.738L333.614 641.3L333.177 640.863L332.74 640.426L332.303 639.99L331.868 639.554L331.432 639.119L330.997 638.684L330.563 638.249L330.129 637.815L329.695 637.382L329.262 636.949L328.83 636.516L328.398 636.084L327.966 635.653L327.535 635.222L327.105 634.791L326.675 634.361L326.245 633.932L325.816 633.503L325.388 633.074L324.96 632.646L324.532 632.218L324.105 631.791L323.678 631.365L323.252 630.939L322.827 630.513L322.402 630.088L321.977 629.664L321.553 629.24L321.13 628.816L320.707 628.393L320.284 627.97L319.862 627.548L319.441 627.127L319.02 626.706L318.599 626.286L318.179 625.866L317.76 625.446L317.341 625.027L316.923 624.609L316.505 624.191L316.087 623.774L315.671 623.357L315.254 622.941L314.838 622.525L314.423 622.11L314.009 621.695L313.594 621.281L313.181 620.867L312.768 620.454L312.355 620.041L311.943 619.629L311.531 619.218L311.12 618.807L310.71 618.396L310.3 617.987L309.891 617.577Z" stroke="#99FF06" stroke-width="63"/>
<path d="M351.893 576.086C247.931 472.124 247.931 303.568 351.893 199.605C455.855 95.6431 624.411 95.6431 728.373 199.605C832.335 303.568 832.335 472.124 728.373 576.086L540.133 764.326L539.81 764.003L539.407 763.6L539.003 763.196L538.599 762.793L538.195 762.388L537.79 761.983L537.385 761.578L536.98 761.173L536.574 760.767L536.168 760.361L535.761 759.954L535.354 759.547L534.946 759.139L534.539 758.732L534.13 758.323L533.722 757.915L533.313 757.506L532.903 757.097L532.494 756.687L532.084 756.277L531.673 755.866L531.262 755.455L530.851 755.044L530.44 754.633L530.028 754.221L529.616 753.809L529.203 753.396L528.79 752.983L528.377 752.57L527.963 752.156L527.549 751.742L527.135 751.328L526.72 750.913L526.305 750.498L525.89 750.083L525.474 749.667L525.058 749.251L524.642 748.835L524.225 748.418L523.808 748.001L523.391 747.584L522.973 747.167L522.556 746.749L522.137 746.33L521.719 745.912L521.3 745.493L520.881 745.074L520.461 744.655L520.042 744.235L519.622 743.815L519.201 743.394L518.781 742.974L518.36 742.553L517.939 742.132L517.517 741.71L517.096 741.289L516.673 740.867L516.251 740.444L515.829 740.022L515.406 739.599L514.983 739.176L514.559 738.752L514.136 738.329L513.712 737.905L513.287 737.481L512.863 737.056L512.438 736.631L512.013 736.206L511.588 735.781L511.163 735.356L510.737 734.93L510.311 734.504L509.885 734.078L509.459 733.652L509.032 733.225L508.605 732.798L508.178 732.371L507.751 731.944L507.323 731.516L506.895 731.088L506.467 730.66L506.039 730.232L505.61 729.804L505.182 729.375L504.753 728.946L504.324 728.517L503.895 728.088L503.465 727.658L503.035 727.228L502.605 726.798L502.175 726.368L501.745 725.938L501.314 725.508L500.884 725.077L500.453 724.646L500.022 724.215L499.591 723.784L499.159 723.352L498.728 722.921L498.296 722.489L497.864 722.057L497.432 721.625L496.999 721.192L496.567 720.76L496.134 720.327L495.702 719.895L495.269 719.462L494.835 719.029L494.402 718.595L493.969 718.162L493.535 717.728L493.101 717.295L492.668 716.861L492.234 716.427L491.799 715.993L491.365 715.558L490.931 715.124L490.496 714.689L490.062 714.255L489.627 713.82L489.192 713.385L488.757 712.95L488.322 712.515L487.886 712.079L487.451 711.644L487.015 711.208L486.58 710.773L486.144 710.337L485.708 709.901L485.272 709.465L484.836 709.029L484.4 708.593L483.964 708.157L483.527 707.72L483.091 707.284L482.654 706.847L482.218 706.411L481.781 705.974L481.344 705.537L480.907 705.1L480.47 704.663L480.033 704.226L479.596 703.789L479.159 703.352L478.722 702.915L478.284 702.477L477.847 702.04L477.41 701.603L476.972 701.165L476.535 700.728L476.097 700.29L475.659 699.852L475.222 699.415L474.784 698.977L474.346 698.539L473.908 698.101L473.47 697.663L473.032 697.225L472.594 696.787L472.156 696.35L471.718 695.911L471.28 695.473L470.842 695.035L470.404 694.597L469.966 694.159L469.528 693.721L469.09 693.283L468.652 692.845L468.214 692.407L467.775 691.968L467.337 691.53L466.899 691.092L466.461 690.654L466.023 690.216L465.584 689.777L465.146 689.339L464.708 688.901L464.27 688.463L463.832 688.025L463.394 687.587L462.955 687.149L462.517 686.71L462.079 686.272L461.641 685.834L461.203 685.396L460.765 684.958L460.327 684.52L459.889 684.082L459.451 683.645L459.014 683.207L458.576 682.769L458.138 682.331L457.7 681.893L457.263 681.456L456.825 681.018L456.387 680.581L455.95 680.143L455.513 679.706L455.075 679.268L454.638 678.831L454.201 678.394L453.763 677.956L453.326 677.519L452.889 677.082L452.452 676.645L452.015 676.208L451.579 675.772L451.142 675.335L450.705 674.898L450.269 674.462L449.832 674.025L449.396 673.589L448.959 673.153L448.523 672.716L448.087 672.28L447.651 671.844L447.215 671.408L446.78 670.973L446.344 670.537L445.908 670.101L445.473 669.666L445.038 669.231L444.602 668.795L444.167 668.36L443.732 667.925L443.297 667.491L442.863 667.056L442.428 666.621L441.994 666.187L441.559 665.752L441.125 665.318L440.691 664.884L440.257 664.45L439.824 664.017L439.39 663.583L438.957 663.15L438.523 662.716L438.09 662.283L437.657 661.85L437.224 661.417L436.792 660.985L436.359 660.552L435.927 660.12L435.495 659.688L435.063 659.256L434.631 658.824L434.199 658.392L433.768 657.961L433.336 657.53L432.905 657.098L432.474 656.668L432.044 656.237L431.613 655.806L431.183 655.376L430.753 654.946L430.323 654.516L429.893 654.086L429.463 653.657L429.034 653.227L428.605 652.798L428.176 652.369L427.747 651.94L427.319 651.512L426.891 651.084L426.462 650.656L426.035 650.228L425.607 649.8L425.18 649.373L424.752 648.946L424.326 648.519L423.899 648.092L423.472 647.665L423.046 647.239L422.62 646.813L422.194 646.387L421.769 645.962L421.344 645.537L420.919 645.112L420.494 644.687L420.069 644.263L419.645 643.838L419.221 643.414L418.798 642.991L418.374 642.567L417.951 642.144L417.528 641.721L417.105 641.298L416.683 640.876L416.261 640.454L415.839 640.032L415.418 639.611L414.996 639.189L414.575 638.768L414.155 638.348L413.734 637.927L413.314 637.507L412.895 637.088L412.475 636.668L412.056 636.249L411.637 635.83L411.218 635.411L410.8 634.993L410.382 634.575L409.965 634.158L409.547 633.74L409.13 633.323L408.713 632.907L408.297 632.49L407.881 632.074L407.465 631.658L407.05 631.243L406.635 630.828L406.22 630.413L405.806 629.999L405.392 629.585L404.978 629.171L404.565 628.758L404.152 628.345L403.739 627.932L403.327 627.52L402.915 627.108L402.503 626.696L402.092 626.285L401.681 625.874L401.27 625.464L400.86 625.053L400.451 624.644L400.041 624.234L399.632 623.825L399.223 623.416L398.815 623.008L398.407 622.6L398 622.193L397.593 621.786L397.186 621.379L396.779 620.972L396.373 620.566L395.968 620.161L395.563 619.756L395.158 619.351L394.753 618.947L394.349 618.543L393.946 618.139L393.543 617.736L393.14 617.333L392.738 616.931L392.336 616.529L391.934 616.127L391.533 615.726L391.132 615.325L390.732 614.925L390.332 614.525L389.933 614.126L389.534 613.727L389.136 613.329L388.737 612.931L388.34 612.533L387.943 612.136L387.546 611.739L387.15 611.343L386.754 610.947L386.358 610.551L385.963 610.156L385.569 609.762L385.175 609.368L384.781 608.974L384.388 608.581L383.996 608.189L383.603 607.796L383.212 607.405L382.82 607.013L382.43 606.623L382.039 606.232L381.65 605.843L381.26 605.453L380.871 605.065L380.483 604.676L380.095 604.288L379.708 603.901L379.321 603.514L378.935 603.128L378.549 602.742L378.163 602.357L377.779 601.972L377.394 601.587L377.01 601.203L376.627 600.82L376.244 600.437L375.862 600.055L375.48 599.673L375.099 599.292L374.718 598.911L374.338 598.531L373.958 598.151L373.579 597.772L373.201 597.394L372.823 597.016L372.445 596.638L372.068 596.261L371.692 595.885L371.316 595.509L370.94 595.133L370.565 594.758L370.191 594.384L369.817 594.011L369.444 593.637L369.072 593.265L368.7 592.893L368.328 592.521L367.957 592.15L367.587 591.78L367.217 591.41L366.848 591.041L366.479 590.673L366.111 590.305L365.744 589.937L365.377 589.57L365.011 589.204L364.645 588.838L364.28 588.473L363.916 588.109L363.552 587.745L363.188 587.381L362.826 587.019L362.464 586.657L362.102 586.295L361.741 585.934L361.381 585.574L361.021 585.214L360.662 584.855L360.304 584.497L359.946 584.139L359.589 583.782L359.232 583.425L358.876 583.069L358.521 582.714L358.166 582.359L357.812 582.005L357.459 581.652L357.106 581.299L356.754 580.947L356.402 580.595L356.052 580.245L355.701 579.894L355.352 579.545L355.003 579.196L354.655 578.848L354.307 578.5L353.96 578.153L353.614 577.807L353.268 577.461L352.924 577.117L352.579 576.772L352.236 576.429L351.893 576.086Z" stroke="#FF6D06" stroke-width="63"/>
<path d="M393.892 533.983C313.183 453.274 313.183 322.417 393.892 241.708C474.602 160.998 605.458 160.998 686.167 241.708C766.877 322.417 766.877 453.274 686.167 533.983L540.03 680.121L540.022 680.113L539.73 679.821L539.437 679.528L539.142 679.233L538.847 678.938L538.552 678.643L538.255 678.346L537.957 678.048L537.659 677.75L537.36 677.451L537.06 677.151L536.759 676.85L536.458 676.549L536.155 676.246L535.852 675.943L535.548 675.639L535.243 675.334L534.938 675.028L534.631 674.722L534.324 674.415L534.016 674.107L533.707 673.798L533.398 673.489L533.088 673.179L532.777 672.868L532.465 672.556L532.152 672.243L531.839 671.93L531.525 671.616L531.21 671.301L530.895 670.986L530.578 670.669L530.262 670.353L529.944 670.035L529.625 669.716L529.306 669.397L528.987 669.078L528.666 668.757L528.345 668.436L528.023 668.114L527.7 667.791L527.377 667.468L527.053 667.144L526.728 666.819L526.403 666.494L526.077 666.168L525.75 665.841L525.423 665.514L525.095 665.186L524.766 664.857L524.437 664.528L524.107 664.198L523.777 663.868L523.445 663.536L523.114 663.205L522.781 662.872L522.448 662.539L522.114 662.205L521.78 661.871L521.445 661.536L521.109 661.2L520.773 660.864L520.437 660.528L520.099 660.19L519.761 659.852L519.423 659.514L519.084 659.175L518.744 658.835L518.404 658.495L518.063 658.154L517.722 657.812L517.38 657.471L517.037 657.128L516.694 656.785L516.35 656.441L516.006 656.097L515.662 655.753L515.316 655.407L514.971 655.062L514.624 654.715L514.278 654.369L513.93 654.021L513.582 653.673L513.234 653.325L512.885 652.976L512.536 652.627L512.186 652.277L511.836 651.927L511.485 651.576L511.134 651.225L510.782 650.873L510.43 650.521L510.077 650.168L509.724 649.815L509.37 649.461L509.016 649.107L508.662 648.753L508.307 648.398L507.951 648.042L507.595 647.686L507.239 647.33L506.882 646.973L506.525 646.616L506.168 646.259L505.81 645.901L505.451 645.542L505.092 645.183L504.733 644.824L504.373 644.464L504.013 644.104L503.653 643.744L503.292 643.383L502.931 643.022L502.569 642.66L502.207 642.298L501.845 641.936L501.482 641.573L501.119 641.21L500.756 640.847L500.392 640.483L500.028 640.119L499.664 639.755L499.299 639.39L498.934 639.025L498.568 638.659L498.202 638.293L497.836 637.927L497.47 637.561L497.103 637.194L496.736 636.827L496.369 636.459L496.001 636.092L495.633 635.724L495.265 635.356L494.896 634.987L494.527 634.618L494.158 634.249L493.789 633.88L493.419 633.51L493.049 633.14L492.679 632.77L492.308 632.399L491.937 632.028L491.567 631.657L491.195 631.286L490.824 630.915L490.452 630.543L490.08 630.171L489.708 629.799L489.336 629.427L488.963 629.054L488.59 628.681L488.217 628.308L487.844 627.935L487.47 627.561L487.097 627.188L486.723 626.814L486.349 626.44L485.974 626.065L485.6 625.691L485.225 625.316L484.851 624.942L484.476 624.567L484.101 624.191L483.725 623.816L483.35 623.441L482.974 623.065L482.598 622.689L482.223 622.314L481.847 621.938L481.47 621.561L481.094 621.185L480.718 620.809L480.341 620.432L479.964 620.055L479.588 619.679L479.211 619.302L478.834 618.925L478.457 618.548L478.08 618.171L477.702 617.793L477.325 617.416L476.947 617.038L476.57 616.661L476.192 616.283L475.815 615.906L475.437 615.528L475.059 615.15L474.681 614.772L474.303 614.394L473.925 614.016L473.547 613.638L473.169 613.26L472.791 612.882L472.413 612.504L472.035 612.126L471.657 611.747L471.278 611.369L470.9 610.991L470.522 610.613L470.144 610.235L469.765 609.856L469.387 609.478L469.009 609.1L468.631 608.722L468.252 608.343L467.874 607.965L467.496 607.587L467.118 607.209L466.74 606.831L466.362 606.453L465.984 606.075L465.606 605.697L465.228 605.319L464.85 604.941L464.472 604.563L464.094 604.185L463.716 603.807L463.339 603.43L462.961 603.052L462.584 602.675L462.206 602.297L461.829 601.92L461.452 601.543L461.074 601.165L460.697 600.788L460.32 600.411L459.944 600.035L459.567 599.658L459.19 599.281L458.814 598.905L458.437 598.528L458.061 598.152L457.685 597.776L457.309 597.4L456.933 597.024L456.558 596.649L456.182 596.273L455.807 595.898L455.431 595.522L455.056 595.147L454.682 594.773L454.307 594.398L453.932 594.023L453.558 593.649L453.184 593.275L452.81 592.901L452.436 592.527L452.062 592.153L451.689 591.78L451.316 591.407L450.943 591.034L450.57 590.661L450.198 590.289L449.825 589.916L449.453 589.544L449.081 589.172L448.71 588.801L448.338 588.429L447.967 588.058L447.596 587.687L447.226 587.317L446.855 586.946L446.485 586.576L446.116 586.206L445.746 585.837L445.377 585.468L445.008 585.099L444.639 584.73L444.27 584.361L443.902 583.993L443.534 583.625L443.167 583.258L442.8 582.891L442.433 582.524L442.066 582.157L441.7 581.791L441.334 581.425L440.968 581.059L440.603 580.694L440.238 580.329L439.873 579.964L439.509 579.6L439.145 579.236L438.781 578.872L438.418 578.509L438.055 578.146L437.693 577.784L437.33 577.421L436.969 577.06L436.607 576.698L436.246 576.337L435.886 575.977L435.525 575.616L435.165 575.256L434.806 574.897L434.447 574.538L434.088 574.179L433.73 573.821L433.372 573.463L433.015 573.106L432.658 572.749L432.301 572.392L431.945 572.036L431.589 571.68L431.234 571.325L430.879 570.97L430.525 570.616L430.171 570.262L429.818 569.909L429.465 569.556L429.112 569.203L428.76 568.851L428.409 568.5L428.058 568.149L427.707 567.798L427.357 567.448L427.007 567.098L426.658 566.749L426.31 566.401L425.962 566.053L425.614 565.705L425.267 565.358L424.92 565.011L424.574 564.665L424.229 564.32L423.884 563.975L423.539 563.63L423.196 563.287L422.852 562.943L422.509 562.6L422.167 562.258L421.825 561.916L421.484 561.575L421.144 561.235L420.804 560.895L420.464 560.555L420.125 560.216L419.787 559.878L419.45 559.541L419.112 559.203L418.776 558.867L418.44 558.531L418.105 558.196L417.77 557.861L417.436 557.527L417.103 557.194L416.77 556.861L416.438 556.529L416.106 556.197L415.775 555.866L415.445 555.536L415.115 555.206L414.786 554.877L414.458 554.549L414.13 554.221L413.803 553.894L413.477 553.568L413.151 553.242L412.826 552.917L412.502 552.593L412.178 552.269L411.855 551.946L411.533 551.624L411.211 551.302L410.89 550.981L410.57 550.661L410.25 550.341L409.932 550.023L409.614 549.705L409.296 549.387L408.98 549.071L408.664 548.755L408.349 548.44L408.034 548.125L407.72 547.811L407.408 547.498L407.095 547.186L406.784 546.875L406.473 546.564L406.163 546.254L405.854 545.945L405.546 545.637L405.238 545.329L404.931 545.022L404.625 544.716L404.32 544.411L404.016 544.107L403.712 543.803L403.409 543.5L403.107 543.198L402.806 542.897L402.505 542.596L402.206 542.297L401.907 541.998L401.609 541.7L401.312 541.403L401.016 541.107L400.72 540.811L400.425 540.516L400.132 540.223L399.839 539.93L399.547 539.638L399.256 539.347L398.965 539.056L398.676 538.767L398.387 538.478L398.099 538.19L397.813 537.904L397.527 537.618L397.242 537.333L396.958 537.048L396.674 536.765L396.392 536.483L396.11 536.201L395.83 535.921L395.55 535.641L395.272 535.363L394.994 535.085L394.717 534.808L394.441 534.532L394.166 534.257L393.892 533.983Z" stroke="#FFEA06" stroke-width="63"/>
<path d="M435.896 491.88C378.439 434.423 378.439 341.268 435.896 283.811C493.352 226.354 586.508 226.354 643.965 283.811C701.422 341.268 701.422 434.423 643.965 491.88L539.93 595.915L539.914 595.898L539.679 595.664L539.445 595.429L539.21 595.194L538.974 594.958L538.738 594.722L538.501 594.485L538.263 594.248L538.025 594.01L537.786 593.771L537.547 593.532L537.308 593.292L537.067 593.052L536.826 592.811L536.585 592.57L536.343 592.328L536.101 592.085L535.858 591.842L535.614 591.599L535.37 591.355L535.126 591.11L534.881 590.865L534.635 590.62L534.389 590.373L534.142 590.127L533.895 589.88L533.648 589.632L533.399 589.384L533.151 589.135L532.902 588.886L532.652 588.637L532.402 588.387L532.151 588.136L531.9 587.885L531.649 587.633L531.397 587.381L531.144 587.129L530.891 586.876L530.638 586.622L530.384 586.369L530.13 586.114L529.875 585.859L529.62 585.604L529.364 585.348L529.108 585.092L528.851 584.836L528.594 584.579L528.337 584.321L528.079 584.063L527.821 583.805L527.562 583.546L527.303 583.287L527.043 583.028L526.783 582.768L526.523 582.507L526.262 582.247L526.001 581.985L525.739 581.724L525.477 581.462L525.215 581.199L524.952 580.937L524.689 580.673L524.425 580.41L524.161 580.146L523.897 579.882L523.632 579.617L523.367 579.352L523.102 579.087L522.836 578.821L522.57 578.555L522.304 578.288L522.037 578.021L521.769 577.754L521.502 577.487L521.234 577.219L520.966 576.95L520.697 576.682L520.428 576.413L520.159 576.144L519.89 575.874L519.62 575.604L519.349 575.334L519.079 575.064L518.808 574.793L518.537 574.522L518.266 574.25L517.994 573.978L517.722 573.706L517.449 573.434L517.177 573.161L516.904 572.888L516.631 572.615L516.357 572.342L516.083 572.068L515.809 571.794L515.535 571.52L515.26 571.245L514.985 570.97L514.71 570.695L514.435 570.42L514.159 570.144L513.883 569.868L513.607 569.592L513.331 569.315L513.054 569.039L512.777 568.762L512.5 568.485L512.223 568.207L511.945 567.93L511.668 567.652L511.39 567.374L511.111 567.096L510.833 566.817L510.554 566.539L510.275 566.26L509.996 565.981L509.717 565.701L509.437 565.422L509.158 565.142L508.878 564.862L508.598 564.582L508.317 564.302L508.037 564.022L507.756 563.741L507.476 563.46L507.195 563.179L506.913 562.898L506.632 562.617L506.351 562.335L506.069 562.054L505.787 561.772L505.505 561.49L505.223 561.208L504.941 560.926L504.659 560.643L504.376 560.361L504.094 560.078L503.811 559.795L503.528 559.512L503.245 559.229L502.962 558.946L502.678 558.663L502.395 558.38L502.111 558.096L501.828 557.812L501.544 557.529L501.26 557.245L500.976 556.961L500.692 556.677L500.408 556.393L500.124 556.109L499.84 555.824L499.555 555.54L499.271 555.255L498.986 554.971L498.702 554.686L498.417 554.402L498.132 554.117L497.848 553.832L497.563 553.547L497.278 553.262L496.993 552.977L496.708 552.692L496.423 552.407L496.138 552.122L495.852 551.837L495.567 551.552L495.282 551.267L494.997 550.981L494.712 550.696L494.426 550.411L494.141 550.126L493.856 549.84L493.57 549.555L493.285 549.27L493 548.984L492.714 548.699L492.429 548.413L492.144 548.128L491.858 547.843L491.573 547.557L491.288 547.272L491.002 546.987L490.717 546.702L490.432 546.416L490.147 546.131L489.861 545.846L489.576 545.561L489.291 545.276L489.006 544.991L488.721 544.706L488.436 544.421L488.151 544.136L487.866 543.851L487.581 543.566L487.297 543.281L487.012 542.996L486.727 542.712L486.443 542.427L486.158 542.143L485.874 541.858L485.589 541.574L485.305 541.29L485.021 541.006L484.737 540.722L484.453 540.438L484.169 540.154L483.885 539.87L483.602 539.586L483.318 539.303L483.035 539.019L482.751 538.736L482.468 538.453L482.185 538.17L481.902 537.887L481.619 537.604L481.337 537.321L481.054 537.039L480.772 536.756L480.489 536.474L480.207 536.192L479.925 535.91L479.643 535.628L479.362 535.346L479.08 535.065L478.799 534.783L478.518 534.502L478.236 534.221L477.956 533.94L477.675 533.66L477.394 533.379L477.114 533.099L476.834 532.819L476.554 532.539L476.274 532.259L475.995 531.979L475.715 531.7L475.436 531.421L475.157 531.142L474.878 530.863L474.6 530.584L474.321 530.306L474.043 530.028L473.765 529.75L473.488 529.472L473.21 529.195L472.933 528.918L472.656 528.641L472.379 528.364L472.103 528.088L471.827 527.811L471.551 527.535L471.275 527.26L471 526.984L470.724 526.709L470.449 526.434L470.175 526.159L469.9 525.885L469.626 525.611L469.352 525.337L469.078 525.063L468.805 524.79L468.532 524.517L468.259 524.244L467.987 523.971L467.715 523.699L467.443 523.427L467.171 523.156L466.9 522.885L466.629 522.614L466.358 522.343L466.088 522.073L465.818 521.803L465.548 521.533L465.279 521.264L465.01 520.995L464.741 520.726L464.473 520.458L464.205 520.19L463.937 519.922L463.67 519.655L463.403 519.388L463.136 519.121L462.87 518.855L462.604 518.589L462.339 518.323L462.073 518.058L461.809 517.793L461.544 517.529L461.28 517.265L461.016 517.001L460.753 516.738L460.49 516.475L460.228 516.212L459.965 515.95L459.704 515.688L459.442 515.427L459.181 515.166L458.921 514.905L458.661 514.645L458.401 514.385L458.142 514.126L457.883 513.867L457.624 513.609L457.366 513.351L457.109 513.093L456.851 512.836L456.595 512.579L456.338 512.323L456.082 512.067L455.827 511.812L455.572 511.557L455.318 511.302L455.063 511.048L454.81 510.794L454.557 510.541L454.304 510.289L454.052 510.036L453.8 509.785L453.549 509.533L453.298 509.283L453.048 509.032L452.798 508.783L452.549 508.533L452.3 508.284L452.052 508.036L451.804 507.788L451.556 507.541L451.31 507.294L451.063 507.048L450.817 506.802L450.572 506.557L450.327 506.312L450.083 506.068L449.839 505.824L449.596 505.581L449.354 505.338L449.111 505.096L448.87 504.854L448.629 504.613L448.388 504.373L448.148 504.133L447.909 503.894L447.67 503.655L447.432 503.416L447.194 503.179L446.957 502.942L446.72 502.705L446.484 502.469L446.249 502.234L446.014 501.999L445.78 501.765L445.546 501.531L445.313 501.298L445.081 501.065L444.849 500.833L444.617 500.602L444.387 500.371L444.157 500.141L443.927 499.912L443.698 499.683L443.47 499.455L443.242 499.227L443.015 499L442.789 498.774L442.563 498.548L442.338 498.323L442.114 498.098L441.89 497.874L441.667 497.651L441.444 497.429L441.222 497.207L441.001 496.986L440.78 496.765L440.56 496.545L440.341 496.326L440.123 496.107L439.905 495.889L439.687 495.672L439.471 495.455L439.255 495.24L439.04 495.024L438.825 494.81L438.611 494.596L438.398 494.383L438.186 494.17L437.974 493.959L437.763 493.747L437.553 493.537L437.343 493.327L437.134 493.119L436.926 492.91L436.718 492.703L436.512 492.496L436.306 492.29L436.1 492.085L435.896 491.88Z" stroke="#5463FF" stroke-width="63"/>
<path d="M435.896 491.88C378.439 434.423 378.439 341.268 435.896 283.811C493.352 226.354 586.508 226.354 643.965 283.811C701.422 341.268 701.422 434.423 643.965 491.88L539.93 595.915L539.914 595.898L539.679 595.664L539.445 595.429L539.21 595.194L538.974 594.958L538.738 594.722L538.501 594.485L538.263 594.248L538.025 594.01L537.786 593.771L537.547 593.532L537.308 593.292L537.067 593.052L536.826 592.811L536.585 592.57L536.343 592.328L536.101 592.085L535.858 591.842L535.614 591.599L535.37 591.355L535.126 591.11L534.881 590.865L534.635 590.62L534.389 590.373L534.142 590.127L533.895 589.88L533.648 589.632L533.399 589.384L533.151 589.135L532.902 588.886L532.652 588.637L532.402 588.387L532.151 588.136L531.9 587.885L531.649 587.633L531.397 587.381L531.144 587.129L530.891 586.876L530.638 586.622L530.384 586.369L530.13 586.114L529.875 585.859L529.62 585.604L529.364 585.348L529.108 585.092L528.851 584.836L528.594 584.579L528.337 584.321L528.079 584.063L527.821 583.805L527.562 583.546L527.303 583.287L527.043 583.028L526.783 582.768L526.523 582.507L526.262 582.247L526.001 581.985L525.739 581.724L525.477 581.462L525.215 581.199L524.952 580.937L524.689 580.673L524.425 580.41L524.161 580.146L523.897 579.882L523.632 579.617L523.367 579.352L523.102 579.087L522.836 578.821L522.57 578.555L522.304 578.288L522.037 578.021L521.769 577.754L521.502 577.487L521.234 577.219L520.966 576.95L520.697 576.682L520.428 576.413L520.159 576.144L519.89 575.874L519.62 575.604L519.349 575.334L519.079 575.064L518.808 574.793L518.537 574.522L518.266 574.25L517.994 573.978L517.722 573.706L517.449 573.434L517.177 573.161L516.904 572.888L516.631 572.615L516.357 572.342L516.083 572.068L515.809 571.794L515.535 571.52L515.26 571.245L514.985 570.97L514.71 570.695L514.435 570.42L514.159 570.144L513.883 569.868L513.607 569.592L513.331 569.315L513.054 569.039L512.777 568.762L512.5 568.485L512.223 568.207L511.945 567.93L511.668 567.652L511.39 567.374L511.111 567.096L510.833 566.817L510.554 566.539L510.275 566.26L509.996 565.981L509.717 565.701L509.437 565.422L509.158 565.142L508.878 564.862L508.598 564.582L508.317 564.302L508.037 564.022L507.756 563.741L507.476 563.46L507.195 563.179L506.913 562.898L506.632 562.617L506.351 562.335L506.069 562.054L505.787 561.772L505.505 561.49L505.223 561.208L504.941 560.926L504.659 560.643L504.376 560.361L504.094 560.078L503.811 559.795L503.528 559.512L503.245 559.229L502.962 558.946L502.678 558.663L502.395 558.38L502.111 558.096L501.828 557.812L501.544 557.529L501.26 557.245L500.976 556.961L500.692 556.677L500.408 556.393L500.124 556.109L499.84 555.824L499.555 555.54L499.271 555.255L498.986 554.971L498.702 554.686L498.417 554.402L498.132 554.117L497.848 553.832L497.563 553.547L497.278 553.262L496.993 552.977L496.708 552.692L496.423 552.407L496.138 552.122L495.852 551.837L495.567 551.552L495.282 551.267L494.997 550.981L494.712 550.696L494.426 550.411L494.141 550.126L493.856 549.84L493.57 549.555L493.285 549.27L493 548.984L492.714 548.699L492.429 548.413L492.144 548.128L491.858 547.843L491.573 547.557L491.288 547.272L491.002 546.987L490.717 546.702L490.432 546.416L490.147 546.131L489.861 545.846L489.576 545.561L489.291 545.276L489.006 544.991L488.721 544.706L488.436 544.421L488.151 544.136L487.866 543.851L487.581 543.566L487.297 543.281L487.012 542.996L486.727 542.712L486.443 542.427L486.158 542.143L485.874 541.858L485.589 541.574L485.305 541.29L485.021 541.006L484.737 540.722L484.453 540.438L484.169 540.154L483.885 539.87L483.602 539.586L483.318 539.303L483.035 539.019L482.751 538.736L482.468 538.453L482.185 538.17L481.902 537.887L481.619 537.604L481.337 537.321L481.054 537.039L480.772 536.756L480.489 536.474L480.207 536.192L479.925 535.91L479.643 535.628L479.362 535.346L479.08 535.065L478.799 534.783L478.518 534.502L478.236 534.221L477.956 533.94L477.675 533.66L477.394 533.379L477.114 533.099L476.834 532.819L476.554 532.539L476.274 532.259L475.995 531.979L475.715 531.7L475.436 531.421L475.157 531.142L474.878 530.863L474.6 530.584L474.321 530.306L474.043 530.028L473.765 529.75L473.488 529.472L473.21 529.195L472.933 528.918L472.656 528.641L472.379 528.364L472.103 528.088L471.827 527.811L471.551 527.535L471.275 527.26L471 526.984L470.724 526.709L470.449 526.434L470.175 526.159L469.9 525.885L469.626 525.611L469.352 525.337L469.078 525.063L468.805 524.79L468.532 524.517L468.259 524.244L467.987 523.971L467.715 523.699L467.443 523.427L467.171 523.156L466.9 522.885L466.629 522.614L466.358 522.343L466.088 522.073L465.818 521.803L465.548 521.533L465.279 521.264L465.01 520.995L464.741 520.726L464.473 520.458L464.205 520.19L463.937 519.922L463.67 519.655L463.403 519.388L463.136 519.121L462.87 518.855L462.604 518.589L462.339 518.323L462.073 518.058L461.809 517.793L461.544 517.529L461.28 517.265L461.016 517.001L460.753 516.738L460.49 516.475L460.228 516.212L459.965 515.95L459.704 515.688L459.442 515.427L459.181 515.166L458.921 514.905L458.661 514.645L458.401 514.385L458.142 514.126L457.883 513.867L457.624 513.609L457.366 513.351L457.109 513.093L456.851 512.836L456.595 512.579L456.338 512.323L456.082 512.067L455.827 511.812L455.572 511.557L455.318 511.302L455.063 511.048L454.81 510.794L454.557 510.541L454.304 510.289L454.052 510.036L453.8 509.785L453.549 509.533L453.298 509.283L453.048 509.032L452.798 508.783L452.549 508.533L452.3 508.284L452.052 508.036L451.804 507.788L451.556 507.541L451.31 507.294L451.063 507.048L450.817 506.802L450.572 506.557L450.327 506.312L450.083 506.068L449.839 505.824L449.596 505.581L449.354 505.338L449.111 505.096L448.87 504.854L448.629 504.613L448.388 504.373L448.148 504.133L447.909 503.894L447.67 503.655L447.432 503.416L447.194 503.179L446.957 502.942L446.72 502.705L446.484 502.469L446.249 502.234L446.014 501.999L445.78 501.765L445.546 501.531L445.313 501.298L445.081 501.065L444.849 500.833L444.617 500.602L444.387 500.371L444.157 500.141L443.927 499.912L443.698 499.683L443.47 499.455L443.242 499.227L443.015 499L442.789 498.774L442.563 498.548L442.338 498.323L442.114 498.098L441.89 497.874L441.667 497.651L441.444 497.429L441.222 497.207L441.001 496.986L440.78 496.765L440.56 496.545L440.341 496.326L440.123 496.107L439.905 495.889L439.687 495.672L439.471 495.455L439.255 495.24L439.04 495.024L438.825 494.81L438.611 494.596L438.398 494.383L438.186 494.17L437.974 493.959L437.763 493.747L437.553 493.537L437.343 493.327L437.134 493.119L436.926 492.91L436.718 492.703L436.512 492.496L436.306 492.29L436.1 492.085L435.896 491.88Z" stroke="#5463FF" stroke-width="63"/>
<path d="M183.363 1023.21C181.553 1023.21 180.072 1022.59 178.92 1021.36C177.851 1020.12 177.439 1018.68 177.686 1017.04L190.767 942.993C191.096 941.266 192.001 939.826 193.482 938.674C195.045 937.44 196.773 936.823 198.665 936.823H232.602C239.019 936.823 244.038 938.468 247.658 941.759C251.278 945.05 253.088 949.616 253.088 955.457C253.088 960.394 251.73 965.042 249.015 969.402C246.382 973.763 242.927 976.971 238.649 979.028L238.526 979.275C242.228 980.591 245.025 982.525 246.917 985.075C248.892 987.625 249.879 990.752 249.879 994.454C249.879 999.555 248.521 1004.33 245.807 1008.77C243.174 1013.21 239.554 1016.75 234.947 1019.38C230.422 1021.93 225.486 1023.21 220.138 1023.21H183.363ZM225.691 974.339C228.077 974.339 230.34 973.598 232.479 972.117C234.7 970.554 236.469 968.497 237.785 965.947C239.101 963.314 239.76 960.558 239.76 957.679C239.76 954.635 238.937 952.29 237.291 950.645C235.646 948.999 233.301 948.176 230.257 948.176H202.861L198.295 974.339H225.691ZM221.495 1011.85C225.938 1011.85 229.599 1010.29 232.479 1007.16C235.358 1004.04 236.798 1000.09 236.798 995.318C236.798 992.191 235.852 989.806 233.959 988.16C232.15 986.432 229.558 985.569 226.185 985.569H196.32L191.754 1011.85H221.495Z" fill="white"/>
<path d="M296.164 971.13C291.557 971.13 287.443 972.488 283.824 975.202C280.286 977.835 278.188 981.167 277.53 985.198L272.223 1015.93C271.647 1018.81 270.249 1020.95 268.027 1022.34C265.888 1023.66 262.68 1024.32 258.402 1024.32L267.904 970.39C269.138 963.726 273.663 960.394 281.479 960.394L280.245 967.798C279.34 968.703 278.147 969.978 276.666 971.624L277.283 972.117C284.029 964.302 291.228 960.394 298.879 960.394C301.512 960.394 303.569 960.97 305.05 962.121C306.53 963.273 307.271 964.877 307.271 966.934C307.271 969.073 306.53 971.089 305.05 972.981C302.828 971.747 299.866 971.13 296.164 971.13Z" fill="white"/>
<path d="M327.963 952.249C325.741 952.249 323.931 951.632 322.533 950.398C321.134 949.081 320.435 947.436 320.435 945.461C320.435 942.829 321.463 940.566 323.52 938.674C325.577 936.7 328.004 935.712 330.801 935.712C332.94 935.712 334.709 936.329 336.108 937.563C337.506 938.797 338.205 940.443 338.205 942.5C338.205 945.05 337.177 947.313 335.12 949.287C333.064 951.262 330.678 952.249 327.963 952.249ZM318.707 968.785C319.283 965.906 320.682 963.808 322.903 962.492C325.124 961.093 328.333 960.394 332.529 960.394L322.656 1015.93C322.163 1018.81 320.805 1020.95 318.584 1022.34C316.362 1023.66 313.154 1024.32 308.958 1024.32L318.707 968.785Z" fill="white"/>
<path d="M360.837 1049C356.806 1049 353.145 1048.38 349.854 1047.15C346.563 1046 343.93 1044.39 341.956 1042.34C340.064 1040.28 339.118 1038.02 339.118 1035.55C339.118 1032.83 340.022 1030.74 341.832 1029.25C343.642 1027.77 346.193 1027.03 349.484 1027.03C349.401 1027.44 349.36 1028.06 349.36 1028.88C349.36 1032.09 350.512 1034.56 352.816 1036.29C355.202 1038.1 358.492 1039 362.688 1039C372.643 1039 378.484 1034.11 380.212 1024.32L381.323 1018.15C382.804 1017 383.832 1016.09 384.408 1015.43L384.038 1014.82C381.323 1017.2 378.032 1019.18 374.165 1020.74C370.298 1022.3 366.637 1023.08 363.182 1023.08C359.233 1023.08 355.695 1022.3 352.569 1020.74C349.525 1019.09 347.139 1016.91 345.411 1014.2C343.684 1011.4 342.82 1008.32 342.82 1004.94C342.82 1003.38 342.902 1002.23 343.067 1001.49L346.399 982.113C347.55 975.285 350.553 969.978 355.407 966.194C360.261 962.327 366.473 960.394 374.042 960.394C382.186 960.394 388.316 963.931 392.429 971.007L392.923 970.513C391.936 968.703 391.319 967.634 391.072 967.304C391.812 962.697 396.09 960.394 403.906 960.394L392.799 1022.84C391.319 1031.23 387.781 1037.69 382.186 1042.21C376.674 1046.74 369.558 1049 360.837 1049ZM367.748 1012.47C371.779 1012.47 375.44 1011.4 378.731 1009.26C382.022 1007.04 383.914 1004.41 384.408 1001.36L387.74 982.113C387.822 981.784 387.863 981.249 387.863 980.509C387.863 977.794 386.67 975.532 384.284 973.722C381.981 971.912 378.978 971.007 375.276 971.007C365.568 971.007 360.014 974.915 358.616 982.73L355.407 1000.75C355.243 1002.06 355.16 1002.97 355.16 1003.46C355.16 1009.47 359.356 1012.47 367.748 1012.47Z" fill="white"/>
<path d="M422.749 945.708C423.407 942.5 424.929 940.032 427.315 938.304C429.701 936.576 432.868 935.712 436.817 935.712L431.017 968.045C429.289 969.773 428.138 970.965 427.562 971.624L428.179 972.117C431.552 968.415 435.336 965.536 439.532 963.479C443.728 961.422 447.924 960.394 452.12 960.394C457.549 960.394 461.91 962.039 465.201 965.33C468.574 968.538 470.26 972.693 470.26 977.794C470.26 979.028 470.137 980.344 469.89 981.743L463.843 1015.93C463.35 1018.81 461.992 1020.95 459.771 1022.34C457.549 1023.66 454.341 1024.32 450.145 1024.32L457.303 983.224C457.549 982.072 457.673 981.003 457.673 980.015C457.673 977.136 456.768 974.956 454.958 973.475C453.148 971.912 450.474 971.13 446.936 971.13C443.975 971.13 441.095 971.788 438.298 973.105C435.583 974.339 433.279 976.066 431.387 978.288C429.495 980.427 428.343 982.73 427.932 985.198L422.625 1015.93C422.049 1018.81 420.651 1020.95 418.43 1022.34C416.208 1023.66 413 1024.32 408.804 1024.32L422.749 945.708Z" fill="white"/>
<path d="M502.936 1024.32C498.164 1024.32 494.421 1023.04 491.706 1020.49C489.073 1017.94 487.757 1014.36 487.757 1009.76C487.757 1008.28 487.881 1006.79 488.127 1005.31L494.174 971.13H482.327C482.821 968.086 483.808 965.741 485.289 964.096C486.852 962.368 488.827 961.504 491.213 961.504H496.025L498 950.274C498.494 947.395 499.851 945.297 502.072 943.981C504.294 942.582 507.461 941.883 511.575 941.883L507.996 961.504H524.409C523.833 964.795 522.722 967.222 521.077 968.785C519.432 970.348 517.169 971.13 514.29 971.13H506.515L500.591 1004.82C500.345 1006.05 500.221 1007.12 500.221 1008.03C500.221 1010 500.756 1011.44 501.825 1012.35C502.895 1013.17 504.623 1013.58 507.009 1013.58C509.806 1013.58 512.768 1012.8 515.894 1011.24C516.634 1012.22 517.005 1013.42 517.005 1014.82C517.005 1017.53 515.647 1019.79 512.932 1021.6C510.217 1023.41 506.885 1024.32 502.936 1024.32Z" fill="white"/>
<path d="M574.124 942.993C574.453 941.266 575.358 939.826 576.839 938.674C578.402 937.44 580.129 936.823 582.022 936.823H637.308C636.65 940.772 635.416 943.693 633.606 945.585C631.796 947.395 629.286 948.3 626.078 948.3H586.588L582.145 973.228H616.082C615.424 977.177 614.148 980.098 612.256 981.99C610.446 983.8 607.937 984.705 604.728 984.705H580.047L574.864 1014.2C574.206 1017.65 572.643 1020.2 570.175 1021.85C567.789 1023.5 564.333 1024.32 559.808 1024.32L574.124 942.993Z" fill="white"/>
<path d="M640.761 1024.32C636.483 1024.32 632.534 1023.54 628.914 1021.97C625.294 1020.33 622.415 1018.11 620.276 1015.31C618.219 1012.43 617.191 1009.18 617.191 1005.56C617.191 1004.24 617.273 1003.22 617.437 1002.48L620.893 983.1C622.045 976.272 625.459 970.801 631.136 966.687C636.895 962.492 643.888 960.394 652.115 960.394C656.804 960.394 660.918 961.257 664.455 962.985C668.075 964.713 670.831 967.058 672.724 970.019C674.698 972.899 675.685 976.107 675.685 979.645C675.685 980.797 675.562 981.949 675.315 983.1L671.983 1002.48C671.243 1006.67 669.474 1010.46 666.677 1013.83C663.88 1017.12 660.26 1019.71 655.817 1021.6C651.374 1023.41 646.356 1024.32 640.761 1024.32ZM642.736 1013.71C647.343 1013.71 651.21 1012.64 654.336 1010.5C657.462 1008.36 659.355 1005.44 660.013 1001.73L663.098 983.594C663.262 982.442 663.345 981.578 663.345 981.003C663.345 977.876 662.234 975.449 660.013 973.722C657.791 971.912 654.501 971.007 650.14 971.007C645.615 971.007 641.749 972.2 638.54 974.585C635.331 976.889 633.398 979.892 632.74 983.594L629.655 1001.73C629.49 1002.89 629.408 1003.67 629.408 1004.08C629.408 1007.04 630.519 1009.39 632.74 1011.11C634.961 1012.84 638.293 1013.71 642.736 1013.71Z" fill="white"/>
<path d="M719.17 971.13C714.563 971.13 710.449 972.488 706.829 975.202C703.292 977.835 701.194 981.167 700.536 985.198L695.229 1015.93C694.653 1018.81 693.255 1020.95 691.033 1022.34C688.894 1023.66 685.686 1024.32 681.407 1024.32L690.91 970.39C692.144 963.726 696.669 960.394 704.485 960.394L703.25 967.798C702.345 968.703 701.153 969.978 699.672 971.624L700.289 972.117C707.035 964.302 714.234 960.394 721.885 960.394C724.518 960.394 726.574 960.97 728.055 962.121C729.536 963.273 730.277 964.877 730.277 966.934C730.277 969.073 729.536 971.089 728.055 972.981C725.834 971.747 722.872 971.13 719.17 971.13Z" fill="white"/>
<path d="M752.507 1024.32C747.982 1024.32 743.992 1023.54 740.537 1021.97C737.081 1020.33 734.366 1018.07 732.392 1015.19C730.5 1012.31 729.553 1009.06 729.553 1005.44C729.553 1004.12 729.677 1002.85 729.924 1001.61L733.009 983.964C733.832 979.357 735.642 975.285 738.439 971.747C741.318 968.127 744.938 965.33 749.299 963.355C753.741 961.381 758.554 960.394 763.737 960.394C768.098 960.394 771.964 961.216 775.337 962.862C778.711 964.507 781.302 966.77 783.112 969.649C785.004 972.529 785.95 975.819 785.95 979.522C785.95 980.756 785.827 982.072 785.58 983.471L784.223 991.122C783.976 992.603 783.194 993.837 781.878 994.824C780.644 995.811 779.245 996.305 777.682 996.305H742.881L742.018 1000.99C741.853 1001.73 741.771 1002.76 741.771 1004.08C741.771 1007.37 742.84 1009.88 744.979 1011.61C747.118 1013.34 750.245 1014.2 754.358 1014.2C758.883 1014.2 762.585 1013.21 765.465 1011.24C768.344 1009.18 770.072 1006.34 770.648 1002.72C773.445 1002.48 775.666 1002.85 777.312 1003.83C778.957 1004.82 779.78 1006.26 779.78 1008.15C779.78 1010.95 778.505 1013.62 775.954 1016.17C773.486 1018.64 770.113 1020.62 765.835 1022.1C761.639 1023.58 757.197 1024.32 752.507 1024.32ZM773.733 987.05L774.35 983.471C774.597 982.319 774.72 981.291 774.72 980.386C774.72 977.259 773.61 974.832 771.388 973.105C769.167 971.295 766.041 970.39 762.009 970.39C757.731 970.39 754.029 971.624 750.903 974.092C747.777 976.478 745.843 979.604 745.103 983.471L744.486 987.05H773.733Z" fill="white"/>
<path d="M815.86 1024.32C811.5 1024.32 807.551 1023.74 804.013 1022.59C800.475 1021.44 797.678 1019.83 795.621 1017.78C793.647 1015.64 792.66 1013.25 792.66 1010.62C792.66 1007.91 793.482 1005.81 795.128 1004.33C796.855 1002.85 799.282 1002.02 802.409 1001.86C802.409 1005.97 803.643 1009.14 806.111 1011.36C808.661 1013.5 812.281 1014.57 816.971 1014.57C822.072 1014.57 825.98 1013.75 828.694 1012.1C831.492 1010.46 832.89 1008.15 832.89 1005.19C832.89 1003.13 831.862 1001.45 829.805 1000.13C827.748 998.814 824.046 997.539 818.698 996.305C811.459 994.577 806.234 992.438 803.026 989.888C799.817 987.255 798.213 983.923 798.213 979.892C798.213 973.886 800.558 969.156 805.247 965.7C810.019 962.162 816.395 960.394 824.375 960.394C828.736 960.394 832.685 960.928 836.222 961.998C839.76 963.067 842.516 964.589 844.491 966.564C846.547 968.456 847.576 970.595 847.576 972.981C847.576 975.532 846.671 977.506 844.861 978.905C843.133 980.303 840.583 981.044 837.21 981.126C837.374 977.506 836.304 974.75 834.001 972.858C831.697 970.965 828.324 970.019 823.882 970.019C819.85 970.019 816.518 970.842 813.886 972.488C811.335 974.051 810.06 976.107 810.06 978.658C810.06 980.468 810.965 981.908 812.775 982.977C814.585 984.047 817.835 985.116 822.524 986.186C837.415 989.312 844.861 995.359 844.861 1004.33C844.861 1010.66 842.31 1015.6 837.21 1019.14C832.191 1022.59 825.074 1024.32 815.86 1024.32Z" fill="white"/>
<path d="M875.326 1024.32C870.554 1024.32 866.811 1023.04 864.096 1020.49C861.463 1017.94 860.147 1014.36 860.147 1009.76C860.147 1008.28 860.27 1006.79 860.517 1005.31L866.564 971.13H854.717C855.21 968.086 856.198 965.741 857.679 964.096C859.242 962.368 861.216 961.504 863.602 961.504H868.415L870.39 950.274C870.883 947.395 872.241 945.297 874.462 943.981C876.683 942.582 879.851 941.883 883.964 941.883L880.385 961.504H896.799C896.223 964.795 895.112 967.222 893.467 968.785C891.821 970.348 889.559 971.13 886.679 971.13H878.905L872.981 1004.82C872.734 1006.05 872.611 1007.12 872.611 1008.03C872.611 1010 873.146 1011.44 874.215 1012.35C875.285 1013.17 877.012 1013.58 879.398 1013.58C882.195 1013.58 885.157 1012.8 888.284 1011.24C889.024 1012.22 889.394 1013.42 889.394 1014.82C889.394 1017.53 888.037 1019.79 885.322 1021.6C882.607 1023.41 879.275 1024.32 875.326 1024.32Z" fill="white"/>
</g>
<defs>
<clipPath id="clip0_2_3">
<rect width="1080" height="1080" fill="white"/>
</clipPath>
</defs>
</svg>
