<svg width="712" height="160" viewBox="0 0 712 160" fill="none" xmlns="http://www.w3.org/2000/svg">
<path d="M81.5107 79.3311L81.5112 79.3295L81.5121 79.3272L81.513 79.3298L81.5134 79.3307L81.5127 79.3315L81.5118 79.3326L81.5107 79.334V79.3311Z" fill="white"/>
<path d="M81.5107 79.3311L142.661 44.0336M81.5107 79.3311L105.664 13M81.5107 79.3311V149.926M81.5107 79.3311L126.903 133.418M81.5107 79.3311L151.04 91.591M81.5134 79.3307L57.3765 13M81.5134 79.3307L20.3794 44.0336M81.5134 79.3307L12 91.591M81.5134 79.3307L36.1369 133.418" stroke="white" stroke-width="19" stroke-miterlimit="10" stroke-linecap="square"/>
<path d="M246.802 88.2762H290.111V74.9501H246.802V54.6777H295.392V41.3683H231.21V123.657H296.108V110.348H246.802V88.2762Z" fill="white"/>
<path d="M344.853 59.0418C340.962 58.9716 337.111 59.8439 333.631 61.5843C330.15 63.3247 327.142 65.8814 324.863 69.0363H324.014L322.815 60.7075H310.588V123.79H325.213V87.1432C325.213 78.3813 331.343 72.1513 339.256 72.1513C346.335 72.1513 350.766 75.0331 350.766 83.9116V123.89H365.525V81.313C365.441 64.9885 356.929 59.0418 344.853 59.0418Z" fill="white"/>
<path d="M407.66 59.0416C387.504 59.0416 377.443 69.3694 377.443 92.0404C377.443 114.711 387.438 125.023 407.66 125.023C423.368 125.023 435.362 117.577 435.362 101.519H420.97C420.97 109.664 415.223 113.512 407.777 113.512C396.983 113.512 392.785 107.515 392.435 95.6384H435.362V91.3075C435.362 69.0362 425.9 59.0416 407.66 59.0416ZM392.668 85.3108C393.751 75.3162 398.182 70.6853 407.66 70.6853C415.223 70.6853 420.137 74.7665 420.137 85.3108H392.668Z" fill="white"/>
<path d="M498.094 108.898V79.1476C498.094 66.5544 489.932 59.1584 472.791 59.1584C457.549 59.1584 447.238 65.8215 447.238 76.6823C447.21 77.5612 447.249 78.441 447.355 79.3141H461.514V77.6483C461.514 74.4167 463.912 70.7021 472.908 70.7021C481.903 70.7021 483.452 74.8999 483.452 80.2969V85.4441C460.314 85.4441 444.123 90.2416 444.123 107.399C444.123 122.757 456.949 125.156 464.112 125.156C473.94 125.156 480.07 121.675 484.268 116.511H484.984C486.417 121.791 490.864 125.039 497.094 125.039C500.224 125.083 503.328 124.47 506.206 123.24V113.246H502.375C501.792 113.308 501.202 113.237 500.65 113.04C500.098 112.842 499.597 112.522 499.186 112.104C498.774 111.687 498.462 111.181 498.273 110.626C498.084 110.071 498.023 109.48 498.094 108.898ZM483.452 98.3372C483.452 107.099 478.055 113.096 468.46 113.096C462.23 113.096 459.115 110.331 459.115 105.9C459.115 97.5709 470.142 95.4554 483.452 95.4554V98.3372Z" fill="white"/>
<path d="M559.598 109.981H532.013C528.898 109.981 527.215 108.182 527.215 106.017C527.215 103.502 529.131 101.936 532.496 101.936H542.207C559.365 101.936 568.859 93.607 568.859 80.4641C568.93 77.7502 568.421 75.0526 567.367 72.5508C566.313 70.0491 564.738 67.8006 562.746 65.9554C570.775 64.0398 575.822 58.6427 575.822 50.114H561.547C561.294 52.4055 560.483 54.6 559.185 56.5051C557.887 58.4103 556.141 59.9679 554.101 61.0414C550.046 59.6762 545.785 59.0224 541.508 59.109C524.117 59.109 514.289 67.4379 514.289 80.4641C514.185 83.835 514.973 87.1735 516.573 90.1423C518.173 93.1111 520.528 95.6049 523.401 97.3717C517.637 98.4544 512.357 102.186 512.357 108.182C512.37 110.212 512.965 112.195 514.072 113.896C515.18 115.597 516.753 116.944 518.604 117.777C513.606 119.926 508.759 123.641 508.759 130.72C508.759 140.448 516.555 145.479 524.95 145.479H553.501C566.944 145.479 575.939 137.15 575.939 126.406C576.03 124.232 575.67 122.062 574.882 120.034C574.095 118.006 572.896 116.162 571.361 114.62C569.826 113.077 567.989 111.869 565.964 111.07C563.94 110.272 561.772 109.901 559.598 109.981V109.981ZM541.608 69.4368C549.936 69.4368 554.334 73.5179 554.334 80.4641C554.334 87.4104 550.003 91.6248 541.608 91.6248C533.212 91.6248 528.898 87.5436 528.898 80.4641C528.898 73.3846 533.079 69.4368 541.608 69.4368V69.4368ZM553.368 134.918H530.214C529.358 134.985 528.498 134.873 527.688 134.59C526.878 134.306 526.136 133.857 525.51 133.271C524.883 132.685 524.385 131.975 524.048 131.186C523.71 130.397 523.541 129.546 523.551 128.688C523.551 127.832 523.727 126.985 524.068 126.2C524.408 125.415 524.906 124.708 525.53 124.123C526.155 123.537 526.892 123.086 527.698 122.797C528.503 122.508 529.36 122.387 530.214 122.442H554.334C558.165 122.442 561.164 124.607 561.164 128.688C561.164 132.336 557.799 134.918 553.368 134.918Z" fill="white"/>
<path d="M613.462 59.0416C592.84 59.0416 582.279 69.3694 582.279 92.0404C582.279 114.711 592.84 125.023 613.462 125.023C634.085 125.023 644.645 114.711 644.645 92.0404C644.645 69.3694 634.218 59.0416 613.462 59.0416ZM629.537 92.8733C629.537 106.433 624.973 113.029 613.462 113.029C601.952 113.029 597.388 106.366 597.388 92.8733V91.2075C597.388 77.7815 601.952 71.0684 613.462 71.0684C624.973 71.0684 629.537 77.7315 629.537 91.2075V92.8733Z" fill="white"/>
<path d="M691.527 59.0413C687.603 58.9385 683.712 59.7951 680.194 61.5368C676.676 63.2785 673.636 65.8527 671.338 69.0359H670.488L669.289 60.7071H657.062V123.79H671.688V87.1427C671.688 78.3808 677.801 72.1508 685.73 72.1508C692.81 72.1508 697.241 75.0326 697.241 83.9111V123.89H711.999V81.3125C712.049 64.9881 703.521 59.0413 691.527 59.0413Z" fill="white"/>
</svg>
