<svg width="1950" height="1080" viewBox="0 0 1950 1080" fill="none" xmlns="http://www.w3.org/2000/svg">
<rect width="1950" height="1080" fill="url(#paint0_linear_320_91)"/>
<path d="M462.992 535.736L462.989 535.738V535.734V535.733C462.989 535.733 462.989 535.733 462.989 535.733V535.733L462.996 535.734L462.992 535.736Z" fill="white"/>
<path d="M462.976 535.734L462.979 535.736L462.981 535.733L462.978 535.734L462.976 535.734Z" fill="white"/>
<path d="M462.989 535.738L462.992 535.736M462.989 535.738V535.734M462.989 535.738V677M462.992 535.736L462.996 535.734M462.992 535.736L462.989 535.733M462.992 535.736L552.44 643.967M462.996 535.734L583.493 465.104M462.996 535.734L462.989 535.733M462.996 535.734L600.005 560.266M462.989 535.734L462.989 535.733M462.989 535.734V535.733C462.989 535.733 462.989 535.733 462.989 535.733V535.733M462.989 535.733L510.587 403M462.978 535.734L415.413 403M462.978 535.734L462.981 535.733M462.978 535.734L462.976 535.734M462.983 535.738L462.979 535.736M462.979 535.736L462.976 535.734M462.979 535.736L462.981 535.733M462.979 535.736L373.563 643.967M462.976 535.734L342.511 465.104M462.976 535.734L326 560.266M462.983 535.733L462.981 535.733" stroke="white" stroke-width="38" stroke-miterlimit="10" stroke-linecap="square"/>
<path d="M778.349 530.906H857.097V506.806H778.349V470.099H866.698V446H750V595H868V570.87H778.349V530.906Z" fill="white"/>
<path d="M956.663 478.017C949.553 477.82 942.501 479.337 936.109 482.437C929.718 485.537 924.178 490.128 919.963 495.817H918.446L916.263 480.758H894V594.819H920.63V528.557C920.63 512.714 931.762 501.45 946.199 501.45C959.059 501.45 967.158 506.66 967.158 522.714V595H994V517.714C994 488.649 978.44 478.017 956.663 478.017Z" fill="white"/>
<path d="M1070.32 478C1033.44 478 1015 496.783 1015 538.015C1015 579.247 1033.29 598 1070.32 598C1099.06 598 1121 584.458 1121 555.223H1094.67C1094.67 570.068 1084.12 577.066 1070.53 577.066C1050.78 577.066 1043.1 566.16 1042.43 544.559H1121V536.682C1121 495.905 1103.66 478 1070.32 478ZM1042.89 525.776C1044.84 507.599 1052.97 499.176 1070.32 499.176C1084.12 499.176 1093.14 506.599 1093.14 525.776H1042.89Z" fill="white"/>
<path d="M1234.26 568.439V514.345C1234.26 491.448 1219.41 478 1188.18 478C1160.47 478 1141.7 490.115 1141.7 509.863C1141.65 511.461 1141.72 513.061 1141.91 514.648H1167.65V511.619C1167.65 505.743 1172.02 498.989 1188.39 498.989C1204.76 498.989 1207.61 506.622 1207.61 516.435V525.794C1165.47 525.794 1136 534.517 1136 565.713C1136 593.638 1159.38 598 1172.38 598C1190.27 598 1201.4 591.67 1209.04 582.281H1210.37C1212.98 591.882 1221.05 597.788 1232.42 597.788C1238.11 597.86 1243.76 596.746 1249 594.517V576.193H1242.03C1240.98 576.297 1239.93 576.167 1238.94 575.814C1237.95 575.461 1237.05 574.894 1236.31 574.152C1235.57 573.41 1235 572.513 1234.64 571.525C1234.29 570.537 1234.16 569.483 1234.26 568.439ZM1207.67 549.237C1207.67 565.168 1197.85 576.072 1180.39 576.072C1169.05 576.072 1163.35 571.044 1163.35 562.987C1163.35 547.844 1183.45 543.997 1207.67 543.997V549.237Z" fill="white"/>
<path d="M1346.39 570.605H1296.19C1290.53 570.605 1287.46 567.311 1287.46 563.413C1287.46 558.85 1290.95 556.009 1297.07 556.009H1314.75C1345.97 556.009 1363.24 540.9 1363.24 517.058C1363.38 512.134 1362.46 507.237 1360.54 502.698C1358.62 498.158 1355.75 494.08 1352.12 490.738C1366.76 487.263 1375.91 477.472 1375.91 462H1349.94C1349.49 466.156 1348.02 470.137 1345.66 473.594C1343.3 477.05 1340.13 479.876 1336.42 481.823C1329.04 479.347 1321.29 478.161 1313.5 478.318C1281.86 478.318 1263.94 493.427 1263.94 517.058C1263.77 523.181 1265.22 529.241 1268.15 534.626C1271.07 540.011 1275.37 544.531 1280.61 547.729C1270.16 549.694 1260.55 556.463 1260.55 567.311C1260.56 570.999 1261.64 574.605 1263.66 577.697C1265.67 580.789 1268.54 583.237 1271.91 584.747C1262.82 588.645 1254 595.384 1254 608.227C1254 625.874 1268.19 635 1283.46 635H1335.18C1359.61 635 1375.98 619.891 1375.98 600.4C1376.14 596.469 1375.49 592.547 1374.06 588.878C1372.64 585.209 1370.47 581.872 1367.7 579.076C1364.92 576.279 1361.59 574.084 1357.93 572.627C1354.26 571.169 1350.34 570.481 1346.39 570.605ZM1313.65 497.204C1328.81 497.204 1336.78 504.608 1336.78 517.209C1336.78 529.81 1328.93 537.455 1313.65 537.455C1298.38 537.455 1290.53 530.052 1290.53 517.209C1290.53 504.366 1298.16 497.204 1313.65 497.204ZM1335.18 615.842H1293.04C1291.48 615.963 1289.92 615.761 1288.45 615.246C1286.97 614.732 1285.62 613.917 1284.48 612.854C1283.34 611.791 1282.43 610.503 1281.82 609.071C1281.21 607.64 1280.9 606.097 1280.92 604.54C1280.91 602.986 1281.23 601.448 1281.85 600.022C1282.47 598.595 1283.37 597.31 1284.51 596.248C1285.65 595.185 1286.99 594.367 1288.46 593.844C1289.93 593.321 1291.49 593.105 1293.04 593.208H1336.9C1343.91 593.208 1349.36 597.137 1349.36 604.54C1349.24 611.279 1343.12 615.842 1335.18 615.842Z" fill="white"/>
<path d="M1444 478C1406.27 478 1387 496.783 1387 538.015C1387 579.247 1406.27 598 1444 598C1481.73 598 1501 579.247 1501 538.015C1501 496.783 1482.03 478 1444 478ZM1473.38 539.53C1473.38 564.19 1465.04 576.187 1444 576.187C1422.96 576.187 1414.62 564.069 1414.62 539.53V536.5C1414.62 512.082 1422.96 499.843 1444 499.843C1465.04 499.843 1473.38 511.961 1473.38 536.5V539.53Z" fill="white"/>
<path d="M1585.71 478.017C1578.6 477.82 1571.55 479.337 1565.15 482.437C1558.76 485.537 1553.22 490.128 1549 495.817H1547.48L1545.3 480.758H1523V594.819H1549.61V528.557C1549.61 512.714 1560.74 501.45 1575.15 501.45C1588.05 501.45 1596.15 506.66 1596.15 522.714V595H1623V517.714C1623.06 488.649 1607.56 478.017 1585.71 478.017Z" fill="white"/>
<defs>
<linearGradient id="paint0_linear_320_91" x1="39.5001" y1="-0.00014191" x2="1950" y2="1080" gradientUnits="userSpaceOnUse">
<stop stop-color="#E48072"/>
<stop offset="1" stop-color="#4255DA"/>
</linearGradient>
</defs>
</svg>
