<svg width="148" height="125" viewBox="0 0 148 125" fill="none" xmlns="http://www.w3.org/2000/svg">
<path d="M121.324 25.5147C115.882 30.8824 114.485 38.6029 117.059 45.2206L95.5882 66.6912V51.4706C95.5882 47.4265 92.2794 44.1176 88.2353 44.1176H80.6618C80.8824 42.8676 80.8824 41.6912 80.8824 40.4412C80.8824 18.0882 62.7941 0 40.4412 0C18.0882 0 0 18.0882 0 40.4412C0 53.0147 5.73529 64.1912 14.7059 71.6176V117.647C14.7059 121.691 18.0147 125 22.0588 125H88.2353C92.2794 125 95.5882 121.691 95.5882 117.647V87.4265L127.426 55.5882C134.044 58.1618 141.765 56.8382 147.059 51.4706L121.324 25.5147ZM15.0735 44.1176C14.9265 42.8676 14.7059 41.6912 14.7059 40.4412C14.7059 26.25 26.25 14.7059 40.4412 14.7059C54.6324 14.7059 66.1765 26.25 66.1765 40.4412C66.1765 41.6912 65.9559 42.8676 65.8088 44.1176H15.0735Z" fill="#9E9E9E"/>
</svg>
