<svg width="70" height="125" viewBox="0 0 70 125" fill="none" xmlns="http://www.w3.org/2000/svg">
<path d="M0 83.3333H13.8889C13.8889 90.8333 23.4028 97.2222 34.7222 97.2222C46.0417 97.2222 55.5556 90.8333 55.5556 83.3333C55.5556 75.6944 48.3334 72.9167 33.0556 69.2361C18.3333 65.5556 0 60.9722 0 41.6667C0 29.2361 10.2083 18.6806 24.3056 15.1389V0H45.1389V15.1389C59.2361 18.6806 69.4445 29.2361 69.4445 41.6667H55.5556C55.5556 34.1667 46.0417 27.7778 34.7222 27.7778C23.4028 27.7778 13.8889 34.1667 13.8889 41.6667C13.8889 49.3056 21.1111 52.0833 36.3889 55.7639C51.1111 59.4444 69.4445 64.0278 69.4445 83.3333C69.4445 95.7639 59.2361 106.319 45.1389 109.861V125H24.3056V109.861C10.2083 106.319 0 95.7639 0 83.3333Z" fill="#9E9E9E"/>
</svg>
