<svg width="199" height="40" viewBox="0 0 199 40" fill="none" xmlns="http://www.w3.org/2000/svg">
<path d="M39.1832 25.6513L25.9406 23.2821L34.5828 33.7409L30.987 36.8061L22.3448 26.3473V40H17.6505V26.3473L9.00833 36.8061L5.41251 33.7409L14.0547 23.2821L0.812111 25.6513L0 20.9606L13.2426 18.5866L1.59606 11.7602L3.9432 7.63199L15.5897 14.4583L10.9893 1.63032L15.4019 0L19.9977 12.828L24.5981 0L29.0107 1.63032L24.4103 14.4583L36.0521 7.63199L38.3993 11.7602L26.7574 18.5866L40 20.9606L39.1832 25.6513Z" fill="#FAFAFA"/>
<path d="M66.8928 22.1231H79.2632V18.336H66.8928V12.5676H80.7715V8.78052H62.4395V32.1952H80.976V28.4033H66.8928V22.1231Z" fill="#FAFAFA"/>
<path d="M94.6595 14.6367C93.5496 14.6072 92.4488 14.8348 91.4511 15.3001C90.4534 15.7654 89.5886 16.4545 88.9307 17.3084H88.694L88.3531 15.0481H84.8779V32.168H89.0349V22.2225C89.0349 19.8446 90.7724 18.1538 93.0261 18.1538C95.0335 18.1538 96.2976 18.9359 96.2976 21.3454V32.1951H100.488V20.595C100.488 16.2325 98.0589 14.6367 94.6595 14.6367Z" fill="#FAFAFA"/>
<path d="M112.07 14.6342C106.3 14.6342 103.415 17.5356 103.415 23.9048C103.415 30.274 106.276 33.1707 112.07 33.1707C116.567 33.1707 120 31.0789 120 26.5629H115.88C115.88 28.856 114.23 29.937 112.104 29.937C109.013 29.937 107.812 28.2523 107.707 24.9156H120V23.6989C120 17.3999 117.287 14.6342 112.07 14.6342ZM107.778 22.0142C108.084 19.2063 109.357 17.9053 112.07 17.9053C114.23 17.9053 115.642 19.0519 115.642 22.0142H107.778Z" fill="#FAFAFA"/>
<path d="M137.349 28.6044V20.2485C137.349 16.7115 135.169 14.6342 130.585 14.6342C126.518 14.6342 123.763 16.5056 123.763 19.556C123.756 19.8029 123.766 20.05 123.795 20.2952H127.573V19.8274C127.573 18.9197 128.213 17.8764 130.616 17.8764C133.019 17.8764 133.438 19.0554 133.438 20.5713V22.017C127.252 22.017 122.927 23.3644 122.927 28.1833C122.927 32.497 126.358 33.1707 128.267 33.1707C130.892 33.1707 132.526 32.1929 133.647 30.7425H133.843C134.225 32.2257 135.409 33.138 137.078 33.138C137.914 33.1491 138.743 32.977 139.512 32.6327V29.8021H138.489C138.335 29.8182 138.18 29.7982 138.035 29.7437C137.89 29.6892 137.758 29.6014 137.649 29.4869C137.54 29.3723 137.457 29.2337 137.405 29.0811C137.353 28.9285 137.334 28.7657 137.349 28.6044ZM133.447 25.6382C133.447 28.0991 132.005 29.7834 129.442 29.7834C127.777 29.7834 126.941 29.0068 126.941 27.7623C126.941 25.423 129.891 24.8288 133.447 24.8288V25.6382Z" fill="#FAFAFA"/>
<path d="M155.265 27.8806H147.237C146.33 27.8806 145.84 27.3605 145.84 26.745C145.84 26.0245 146.398 25.576 147.377 25.576H150.204C155.197 25.576 157.96 23.1902 157.96 19.4255C157.982 18.6479 157.835 17.8748 157.528 17.158C157.221 16.4411 156.762 15.7972 156.181 15.2694C158.523 14.7207 159.987 13.1747 159.987 10.7317H155.832C155.76 11.3879 155.525 12.0166 155.148 12.5624C154.771 13.1082 154.263 13.5544 153.67 13.8618C152.49 13.4708 151.25 13.2835 150.005 13.3083C144.944 13.3083 142.078 15.6941 142.078 19.4255C142.051 20.3922 142.283 21.3491 142.751 22.1995C143.219 23.0498 143.907 23.7635 144.745 24.2685C143.072 24.5787 141.535 25.6475 141.535 27.3605C141.538 27.9429 141.71 28.5122 142.033 29.0005C142.355 29.4888 142.814 29.8753 143.353 30.1137C141.899 30.7292 140.488 31.7933 140.488 33.8212C140.488 36.6078 142.757 38.0488 145.201 38.0488H153.471C157.379 38.0488 159.996 35.663 159.996 32.5854C160.023 31.9647 159.919 31.3453 159.691 30.7659C159.463 30.1866 159.116 29.6597 158.672 29.2182C158.228 28.7767 157.696 28.43 157.11 28.1999C156.524 27.9697 155.896 27.861 155.265 27.8806ZM150.029 16.2905C152.453 16.2905 153.728 17.4596 153.728 19.4493C153.728 21.439 152.472 22.6462 150.029 22.6462C147.586 22.6462 146.33 21.4772 146.33 19.4493C146.33 17.4214 147.552 16.2905 150.029 16.2905ZM153.471 35.0236H146.732C146.483 35.0429 146.233 35.0108 145.997 34.9296C145.762 34.8484 145.546 34.7197 145.363 34.5519C145.181 34.384 145.036 34.1806 144.938 33.9545C144.84 33.7285 144.79 33.4849 144.793 33.2391C144.793 32.9937 144.843 32.7509 144.942 32.5256C145.041 32.3004 145.186 32.0975 145.368 31.9297C145.55 31.7619 145.765 31.6327 145.999 31.5501C146.234 31.4675 146.484 31.4334 146.732 31.4497H153.747C154.867 31.4497 155.74 32.07 155.74 33.2391C155.721 34.3031 154.741 35.0236 153.471 35.0236Z" fill="#FAFAFA"/>
<path d="M170.244 14.6342C164.11 14.6342 160.976 17.5356 160.976 23.9048C160.976 30.274 164.11 33.1707 170.244 33.1707C176.378 33.1707 179.512 30.274 179.512 23.9048C179.512 17.5356 176.428 14.6342 170.244 14.6342ZM175.022 24.1388C175.022 27.9481 173.665 29.8013 170.244 29.8013C166.823 29.8013 165.466 27.9294 165.466 24.1388V23.6708C165.466 19.8989 166.823 18.0083 170.244 18.0083C173.665 18.0083 175.022 19.8802 175.022 23.6708V24.1388Z" fill="#FAFAFA"/>
<path d="M192.229 14.6367C191.118 14.6072 190.017 14.8348 189.019 15.3001C188.021 15.7654 187.156 16.4545 186.498 17.3084H186.261L185.92 15.0481H182.439V32.168H186.593V22.2225C186.593 19.8446 188.331 18.1538 190.581 18.1538C192.593 18.1538 193.858 18.9359 193.858 21.3454V32.1951H198.049V20.595C198.059 16.2325 195.639 14.6367 192.229 14.6367Z" fill="#FAFAFA"/>
</svg>
