<svg width="259" height="57" viewBox="0 0 259 57" fill="none" xmlns="http://www.w3.org/2000/svg">
<path d="M28.4209 27.2581L50.7843 14.3494" stroke="white" stroke-width="6" stroke-miterlimit="10" stroke-linecap="round"/>
<path d="M28.4209 27.258L37.2542 3" stroke="white" stroke-width="6" stroke-miterlimit="10" stroke-linecap="round"/>
<path d="M28.4219 27.258L19.5947 3" stroke="white" stroke-width="6" stroke-miterlimit="10" stroke-linecap="round"/>
<path d="M28.4217 27.2581L6.06445 14.3494" stroke="white" stroke-width="6" stroke-miterlimit="10" stroke-linecap="round"/>
<path d="M28.4215 27.2581L3 31.7417" stroke="white" stroke-width="6" stroke-miterlimit="10" stroke-linecap="round"/>
<path d="M28.4215 27.2581L11.8271 47.0385" stroke="white" stroke-width="6" stroke-miterlimit="10" stroke-linecap="round"/>
<path d="M28.4209 27.2581V53.0756" stroke="white" stroke-width="6" stroke-miterlimit="10" stroke-linecap="round"/>
<path d="M28.4209 27.2581L45.0213 47.0385" stroke="white" stroke-width="6" stroke-miterlimit="10" stroke-linecap="round"/>
<path d="M28.4209 27.2581L53.8485 31.7417" stroke="white" stroke-width="6" stroke-miterlimit="10" stroke-linecap="round"/>
<path d="M88.8719 30.5294H104.711V25.6559H88.8719V18.2421H106.642V13.3746H83.1699V43.4686H106.904V38.6012H88.8719V30.5294Z" fill="#FAFAFA"/>
<path d="M124.728 19.838C123.305 19.8123 121.897 20.1314 120.624 20.7678C119.351 21.4043 118.251 22.3393 117.418 23.4931H117.107L116.669 20.4472H112.197V43.5172H117.546V30.115C117.546 26.9107 119.788 24.6323 122.681 24.6323C125.27 24.6323 126.891 25.6862 126.891 28.9332V43.5538H132.288V27.9829C132.258 22.0128 129.145 19.838 124.728 19.838Z" fill="#FAFAFA"/>
<path d="M147.695 19.8381C140.324 19.8381 136.645 23.6151 136.645 31.9062C136.645 40.1973 140.3 43.9682 147.695 43.9682C153.44 43.9682 157.826 41.2451 157.826 35.3725H152.563C152.563 38.3514 150.461 39.7586 147.738 39.7586C143.79 39.7586 142.255 37.5656 142.127 33.222H157.826V31.6382C157.826 23.4933 154.366 19.8381 147.695 19.8381ZM142.212 29.4451C142.608 25.7899 144.229 24.0964 147.695 24.0964C150.461 24.0964 152.258 25.5889 152.258 29.4451H142.212Z" fill="#FAFAFA"/>
<path d="M180.774 38.0712V27.191C180.774 22.5855 177.789 19.8807 171.52 19.8807C165.946 19.8807 162.175 22.3175 162.175 26.2894C162.165 26.6109 162.179 26.9326 162.218 27.2519H167.396V26.6427C167.396 25.4609 168.273 24.1024 171.563 24.1024C174.853 24.1024 175.419 25.6376 175.419 27.6114V29.4937C166.957 29.4937 161.036 31.2482 161.036 37.5229C161.036 43.1396 165.727 44.0168 168.346 44.0168C171.941 44.0168 174.182 42.7437 175.718 40.8552H175.98C176.503 42.7863 178.13 43.9742 180.408 43.9742C181.553 43.9901 182.688 43.766 183.741 43.3163V39.6612H182.34C182.126 39.6838 181.911 39.658 181.709 39.5858C181.507 39.5135 181.324 39.3966 181.173 39.2438C181.023 39.0909 180.909 38.9062 180.84 38.7031C180.77 38.5001 180.748 38.2841 180.774 38.0712ZM175.419 34.2089C175.419 37.4133 173.445 39.6063 169.936 39.6063C167.658 39.6063 166.519 38.5951 166.519 36.9746C166.519 33.9287 170.552 33.155 175.419 33.155V34.2089Z" fill="#FAFAFA"/>
<path d="M203.265 38.4671H193.177C192.038 38.4671 191.423 37.8093 191.423 37.0173C191.423 36.0974 192.123 35.5248 193.354 35.5248H196.905C203.18 35.5248 206.652 32.4788 206.652 27.6723C206.678 26.6798 206.492 25.6933 206.107 24.7783C205.721 23.8634 205.145 23.0411 204.417 22.3663C207.353 21.6657 209.199 19.6919 209.199 16.5729H203.978C203.886 17.4109 203.589 18.2135 203.114 18.9102C202.64 19.607 202.001 20.1766 201.255 20.5692C199.772 20.0699 198.214 19.8308 196.65 19.8625C190.29 19.8625 186.695 22.9084 186.695 27.6723C186.657 28.9051 186.945 30.126 187.531 31.2117C188.116 32.2975 188.977 33.2095 190.028 33.8556C187.92 34.2516 185.989 35.6162 185.989 37.8092C185.993 38.5515 186.211 39.2768 186.616 39.8989C187.021 40.5209 187.596 41.0136 188.273 41.3182C186.446 42.104 184.673 43.4626 184.673 46.0516C184.673 49.6093 187.524 51.449 190.594 51.449H201.036C205.952 51.449 209.241 48.403 209.241 44.4738C209.275 43.6787 209.143 42.8853 208.855 42.1435C208.567 41.4017 208.128 40.7275 207.567 40.1634C207.006 39.5992 206.334 39.1573 205.594 38.8654C204.853 38.5735 204.061 38.4379 203.265 38.4671V38.4671ZM196.686 23.6395C199.732 23.6395 201.34 25.132 201.34 27.6723C201.34 30.2126 199.756 31.7539 196.686 31.7539C193.616 31.7539 192.038 30.2614 192.038 27.6723C192.038 25.0832 193.567 23.6395 196.686 23.6395V23.6395ZM200.987 47.5868H192.519C192.206 47.6113 191.892 47.5705 191.596 47.4668C191.299 47.3631 191.028 47.1988 190.799 46.9844C190.57 46.7701 190.388 46.5104 190.264 46.2218C190.141 45.9333 190.079 45.6222 190.082 45.3084C190.083 44.9954 190.147 44.6857 190.271 44.3986C190.396 44.1114 190.578 43.8528 190.806 43.6387C191.035 43.4247 191.305 43.2597 191.599 43.1539C191.894 43.0482 192.207 43.004 192.519 43.024H201.34C202.741 43.024 203.838 43.8159 203.838 45.3084C203.838 46.6425 202.607 47.5868 200.987 47.5868Z" fill="#FAFAFA"/>
<path d="M222.961 19.8381C215.419 19.8381 211.557 23.6151 211.557 31.9062C211.557 40.1973 215.419 43.9682 222.961 43.9682C230.502 43.9682 234.365 40.1973 234.365 31.9062C234.365 23.6151 230.551 19.8381 222.961 19.8381ZM228.839 32.2108C228.839 37.1696 227.17 39.582 222.961 39.582C218.751 39.582 217.082 37.1452 217.082 32.2108V31.6016C217.082 26.6915 218.751 24.2365 222.961 24.2365C227.17 24.2365 228.839 26.6733 228.839 31.6016V32.2108Z" fill="#FAFAFA"/>
<path d="M251.513 19.8381C250.078 19.8005 248.655 20.1138 247.369 20.7507C246.082 21.3877 244.97 22.3291 244.13 23.4933H243.819L243.381 20.4473H238.909V43.5173H244.258V30.1152C244.258 26.9108 246.494 24.6324 249.393 24.6324C251.982 24.6324 253.603 25.6863 253.603 28.9333V43.5539H259V27.983C259.019 22.0129 255.899 19.8381 251.513 19.8381Z" fill="#FAFAFA"/>
</svg>
