<svg width="55" height="61" viewBox="0 0 55 61" fill="none" xmlns="http://www.w3.org/2000/svg">
<path d="M9.15 0C11.5767 0 13.9041 0.964015 15.62 2.67997C17.336 4.39593 18.3 6.72327 18.3 9.15C18.3 13.054 15.8295 16.409 12.383 17.7205C12.6575 19.1235 13.3895 20.8315 15.25 23.2715C18.3 27.206 24.4 33.0315 27.45 37.1185C30.5 33.0315 36.6 27.206 39.65 23.2715C41.5105 20.8315 42.2425 19.1235 42.517 17.7205C39.0705 16.409 36.6 13.054 36.6 9.15C36.6 6.72327 37.564 4.39593 39.28 2.67997C40.9959 0.964015 43.3233 0 45.75 0C48.1767 0 50.5041 0.964015 52.22 2.67997C53.936 4.39593 54.9 6.72327 54.9 9.15C54.9 13.176 52.277 16.6225 48.6475 17.8425C48.4035 19.4285 47.702 21.35 45.75 23.8815C42.7 27.9685 36.6 33.794 33.55 37.759C31.6895 40.1685 30.9575 41.8765 30.683 43.2795C34.1295 44.591 36.6 47.946 36.6 51.85C36.6 54.2767 35.636 56.6041 33.92 58.32C32.2041 60.036 29.8767 61 27.45 61C25.0233 61 22.6959 60.036 20.98 58.32C19.264 56.6041 18.3 54.2767 18.3 51.85C18.3 47.946 20.7705 44.591 24.217 43.2795C23.9425 41.8765 23.2105 40.1685 21.35 37.759C18.3 33.794 12.2 27.9685 9.15 23.8815C7.198 21.35 6.4965 19.4285 6.2525 17.8425C2.623 16.6225 0 13.176 0 9.15C0 6.72327 0.964015 4.39593 2.67997 2.67997C4.39593 0.964015 6.72327 0 9.15 0M9.15 6.1C8.34109 6.1 7.56531 6.42134 6.99333 6.99332C6.42134 7.56531 6.1 8.34109 6.1 9.15C6.1 9.95891 6.42134 10.7347 6.99333 11.3067C7.56531 11.8787 8.34109 12.2 9.15 12.2C9.95891 12.2 10.7347 11.8787 11.3067 11.3067C11.8787 10.7347 12.2 9.95891 12.2 9.15C12.2 8.34109 11.8787 7.56531 11.3067 6.99332C10.7347 6.42134 9.95891 6.1 9.15 6.1M45.75 6.1C44.9411 6.1 44.1653 6.42134 43.5933 6.99332C43.0213 7.56531 42.7 8.34109 42.7 9.15C42.7 9.95891 43.0213 10.7347 43.5933 11.3067C44.1653 11.8787 44.9411 12.2 45.75 12.2C46.5589 12.2 47.3347 11.8787 47.9067 11.3067C48.4787 10.7347 48.8 9.95891 48.8 9.15C48.8 8.34109 48.4787 7.56531 47.9067 6.99332C47.3347 6.42134 46.5589 6.1 45.75 6.1M27.45 48.8C26.6411 48.8 25.8653 49.1213 25.2933 49.6933C24.7213 50.2653 24.4 51.0411 24.4 51.85C24.4 52.6589 24.7213 53.4347 25.2933 54.0067C25.8653 54.5787 26.6411 54.9 27.45 54.9C28.2589 54.9 29.0347 54.5787 29.6067 54.0067C30.1787 53.4347 30.5 52.6589 30.5 51.85C30.5 51.0411 30.1787 50.2653 29.6067 49.6933C29.0347 49.1213 28.2589 48.8 27.45 48.8Z" fill="white"/>
</svg>
