<svg width="100" height="100" viewBox="0 0 100 100" fill="none" xmlns="http://www.w3.org/2000/svg">
<path d="M49.9999 2.10156C49.5649 2.10156 49.1316 2.23953 48.7616 2.51953L2.76157 38.4219C1.90157 39.1019 1.74173 40.3583 2.42173 41.2383C3.10173 42.0983 4.35813 42.2581 5.23813 41.5781L7.99985 39.4219V92C7.99985 93.1 8.89985 94 9.99985 94H37.9999V58H61.9999V94H89.9999C91.0999 94 91.9999 93.1 91.9999 92V39.4219L94.7616 41.5781C95.1416 41.8581 95.5599 42 95.9999 42C96.5999 42 97.178 41.7383 97.578 41.2383C98.258 40.3583 98.0981 39.1019 97.2381 38.4219L51.2381 2.51953C50.8681 2.23953 50.4349 2.10156 49.9999 2.10156ZM69.9999 10V12.1016L81.9999 21.4609V10H69.9999Z" fill="white"/>
</svg>
