<svg width="50" height="50" viewBox="0 0 50 50" fill="none" xmlns="http://www.w3.org/2000/svg">
<path d="M14.7017 0C6.63175 0 0 6.62287 0 14.7017V35.2983C0 43.3683 6.62287 50 14.7017 50H35.2983C43.3683 50 50 43.3771 50 35.2983V14.7017C50 6.63175 43.3771 0 35.2983 0H14.7017ZM14.7017 4.54545H35.2983C40.918 4.54545 45.4545 9.08203 45.4545 14.7017V35.2983C45.4545 40.918 40.918 45.4545 35.2983 45.4545H14.7017C9.08203 45.4545 4.54545 40.918 4.54545 35.2983V14.7017C4.54545 9.08203 9.08203 4.54545 14.7017 4.54545ZM38.4233 9.51705C37.2781 9.51705 36.3636 10.4315 36.3636 11.5767C36.3636 12.7219 37.2781 13.6364 38.4233 13.6364C39.5685 13.6364 40.483 12.7219 40.483 11.5767C40.483 10.4315 39.5685 9.51705 38.4233 9.51705ZM25 11.3636C17.4982 11.3636 11.3636 17.4982 11.3636 25C11.3636 32.5018 17.4982 38.6364 25 38.6364C32.5018 38.6364 38.6364 32.5018 38.6364 25C38.6364 17.4982 32.5018 11.3636 25 11.3636ZM25 15.9091C30.0515 15.9091 34.0909 19.9485 34.0909 25C34.0909 30.0515 30.0515 34.0909 25 34.0909C19.9485 34.0909 15.9091 30.0515 15.9091 25C15.9091 19.9485 19.9485 15.9091 25 15.9091Z" fill="white"/>
</svg>
