<svg width="800" height="800" viewBox="0 0 800 800" fill="none" xmlns="http://www.w3.org/2000/svg">
<path d="M347.677 401.126C364.486 422.267 409.117 452.134 453.178 402.478" stroke="white" stroke-width="20" stroke-linecap="round"/>
<path d="M380.394 367.942C366.219 303.492 262.056 278.616 224.807 365.948M575.411 370.441C561.236 305.991 457.074 281.115 419.824 368.447" stroke="white" stroke-width="10"/>
<ellipse rx="26.6438" ry="28.0222" transform="matrix(0.999918 0.0128136 -0.011584 0.999933 322.101 338.799)" fill="white"/>
<ellipse rx="26.6438" ry="28.0222" transform="matrix(0.999918 0.0128136 -0.011584 0.999933 521.357 342.4)" fill="white"/>
<path d="M67.2544 287.333C77.2581 426.135 312.346 497.412 397.378 497.412C482.41 493.66 718.749 426.135 728.752 287.333C728.752 177.292 613.209 86.2576 501.167 232.312C506.586 178.959 493.414 71.0019 397.378 66C301.342 71.0019 289.421 178.959 294.84 232.312C182.798 86.2576 67.2544 177.292 67.2544 287.333Z" stroke="white" stroke-width="20"/>
<path d="M399.875 503.663C394.873 574.94 343.104 698.986 176.041 624.959M399.875 503.663V735M399.875 503.663C404.877 574.94 456.646 698.986 623.709 624.959M399.875 503.663C406.961 594.531 350.106 763.01 66 709.991M399.875 503.663C392.789 594.531 449.646 763.01 733.752 709.991" stroke="white" stroke-width="20"/>
</svg>
