<svg width="800" height="800" viewBox="0 0 800 800" fill="none" xmlns="http://www.w3.org/2000/svg">
<g clip-path="url(#clip0_214_21)">
<path d="M150 216.502C150 200.415 155.631 187.142 166.892 176.686C178.153 166.229 192.793 161 210.811 161C228.507 161 242.825 166.148 253.764 176.445C265.026 187.062 270.656 200.897 270.656 217.95C270.656 233.394 265.187 246.264 254.247 256.56C242.986 267.178 228.185 272.487 209.846 272.487H209.363C191.667 272.487 177.349 267.178 166.409 256.56C155.47 245.943 150 232.59 150 216.502ZM156.274 638.8V316.406H263.417V638.8H156.274ZM322.78 638.8H429.923V458.78C429.923 447.519 431.21 438.832 433.784 432.719C438.288 421.779 445.125 412.528 454.295 404.968C463.465 397.406 474.968 393.626 488.803 393.626C524.839 393.626 542.857 417.918 542.857 466.502V638.8H650V453.954C650 406.335 638.739 370.219 616.216 345.605C593.694 320.991 563.932 308.684 526.931 308.684C485.425 308.684 453.089 326.541 429.923 362.255V363.221H429.44L429.923 362.255V316.406H322.78C323.423 326.702 323.745 358.716 323.745 412.448C323.745 466.18 323.423 541.631 322.78 638.8Z" fill="white"/>
</g>
<defs>
<clipPath id="clip0_214_21">
<rect width="500" height="477.8" fill="white" transform="translate(150 161)"/>
</clipPath>
</defs>
</svg>
