<svg width="225" height="250" viewBox="0 0 800 800" fill="none" xmlns="http://www.w3.org/2000/svg">
<path fill-rule="evenodd" clip-rule="evenodd" d="M540.72 525.53C549.112 545.342 557.519 565.147 565.891 584.967C575.409 607.503 584.795 630.097 594.452 652.574C597.781 660.322 598.39 667.752 592.474 674.218C586.718 680.509 579.401 680.774 571.626 678.029C553.078 671.48 534.422 665.233 515.923 658.544C511.386 656.904 509.521 658.092 507.613 662.259C499.106 680.836 490.332 699.29 481.52 717.725C478.002 725.082 471.825 727.836 463.842 727.246C456.753 726.724 452.381 722.741 449.772 716.53C436.019 683.801 422.326 651.046 408.596 618.307C407.963 616.797 407.167 615.355 406.038 613.043C401.315 624.181 396.857 634.574 392.494 645.008C382.557 668.763 372.702 692.552 362.737 716.294C359.757 723.396 354.576 727.226 346.541 727.305C338.461 727.384 333.553 723.463 330.266 716.469C321.573 697.976 312.665 679.583 304.01 661.072C302.411 657.65 300.779 657.128 297.194 658.399C277.617 665.349 257.943 672.028 238.265 678.688C231.391 681.015 224.81 679.797 220.003 674.444C215.19 669.083 213.797 662.616 216.816 655.451C232.886 617.313 248.818 579.117 264.829 540.954C265.608 539.096 266.68 537.359 267.614 535.568C270.072 536.594 272.373 537.841 273.947 540.104C266.029 559.307 258.164 578.532 250.176 597.705C241.968 617.403 233.618 637.042 225.382 656.727C223.586 661.02 222.974 665.413 226.625 669.087C229.989 672.472 233.875 671.456 237.886 670.051C258.359 662.876 278.93 655.971 299.348 648.644C304.564 646.773 307.109 647.75 309.463 652.916C318.547 672.85 328.098 692.57 337.45 712.382C339.299 716.297 341.918 719.344 346.552 719.277C350.907 719.215 353.604 716.414 355.203 712.595C369.834 677.641 384.304 642.617 399.178 607.767C401.496 602.334 401.108 598.147 397.868 593.646C396.366 594.545 396.12 595.843 395.632 597.003C381.157 631.427 366.685 665.853 352.184 700.267C351.22 702.554 350.925 705.797 347.668 705.863C344.212 705.935 343.592 702.576 342.396 700.197C332.46 680.443 322.476 660.712 312.761 640.85C311.023 637.295 309.372 636.462 305.623 637.773C294.868 641.534 283.987 644.935 273.14 648.429C262.118 651.981 251.072 655.456 240.053 659.018C238.214 659.612 236.438 660.141 234.958 658.482C233.683 657.053 234.065 655.419 234.733 653.812C235.298 652.453 235.766 651.054 236.334 649.697C251.198 614.239 266.069 578.784 280.939 543.328C293.361 546.598 306.088 546.267 318.654 545.486C335.268 544.453 349.45 549.746 362.954 558.784C373.905 566.114 385.177 573.188 399.086 573.477C418.241 619.291 437.425 665.092 456.511 710.936C458.314 715.268 460.419 719.126 465.613 719.266C470.801 719.406 473.278 715.685 475.257 711.469C484.096 692.641 492.878 673.785 501.922 655.056C506.143 646.313 504.063 645.755 515.355 649.647C535.166 656.478 554.992 663.269 574.76 670.223C579.107 671.752 582.998 672.067 586.352 668.414C589.75 664.713 588.78 660.831 587.024 656.661C569.606 615.303 552.285 573.904 534.936 532.516C536.711 530.06 538.151 527.326 540.72 525.53Z" fill="white"/>
<mask id="mask0_214_21" style="mask-type:alpha" maskUnits="userSpaceOnUse" x="150" y="73" width="500" height="501">
<path d="M150 73H650V573.645H150V73Z" fill="white"/>
</mask>
<g mask="url(#mask0_214_21)">
<path fill-rule="evenodd" clip-rule="evenodd" d="M317.686 110.776C308.739 110.776 302.647 110.53 296.582 110.83C285.546 111.376 276.346 115.493 269.768 124.906C264.678 132.188 260.469 139.95 256.477 147.825C249.309 161.968 238.764 172.53 224.604 179.649C218.361 182.789 212.351 186.396 206.267 189.846C193.541 197.062 187.567 208.117 187.693 222.648C187.774 232.052 187.694 241.458 187.84 250.86C188.003 261.276 185.342 270.895 180.068 279.813C175.85 286.946 171.642 294.088 167.27 301.127C158.233 315.674 157.776 330.17 167.137 344.759C169.325 348.166 171.091 351.863 173.449 355.138C184.558 370.57 189.513 387.621 187.885 406.652C187.383 412.513 187.665 418.448 187.716 424.347C187.822 436.925 192.165 447.404 203.106 454.411C207.286 457.09 211.428 459.968 215.933 461.977C236.121 470.973 251.247 484.956 260.252 505.373C262.101 509.566 264.645 513.458 266.944 517.447C274.149 529.943 285.172 535.705 299.397 535.699C309.163 535.696 318.93 535.672 328.695 535.576C339.115 535.474 348.655 538.457 357.547 543.694C364.687 547.898 371.817 552.123 378.85 556.502C392.895 565.249 406.886 565.36 420.961 556.617C426.279 553.315 431.763 550.274 437.001 546.852C449.063 538.976 462.034 534.707 476.62 535.514C484.521 535.95 492.462 535.679 500.386 535.703C514.833 535.745 526.007 529.945 533.234 517.177C536.681 511.087 540.297 505.079 543.432 498.829C550.539 484.666 560.954 473.984 575.179 466.903C581.6 463.707 587.819 460.081 593.983 456.405C603.988 450.442 610.701 442.205 611.845 430.084C612.907 418.847 612.172 407.611 612.139 396.379C612.107 384.987 614.949 374.555 620.833 364.866C625.134 357.782 629.339 350.64 633.614 343.541C641.532 330.392 641.929 317.126 634.168 303.788C630.741 297.898 627.291 292.014 623.594 286.294C615.674 274.047 611.278 260.924 612.134 246.121C612.603 238.034 612.416 229.897 612.303 221.787C612.131 209.459 607.861 199.198 597.192 192.108C589.965 187.304 582.369 183.178 574.668 179.242C561.092 172.301 550.906 162.095 543.924 148.532C540.47 141.824 536.715 135.261 532.897 128.75C526.955 118.617 518.391 112.166 506.44 111.073C501.868 110.655 497.244 110.81 492.641 110.728C482.703 110.548 472.716 111.55 462.831 110.201C450.616 108.534 440.144 102.361 430.544 95.2721C410.039 80.1285 390.234 79.9161 369.727 95.2013C353.538 107.268 335.456 113.834 317.686 110.776ZM273.947 540.104C272.373 537.84 270.072 536.593 267.614 535.568C257.038 523.123 250.597 508.112 242.08 494.39C236.736 485.779 228.525 480.546 219.872 475.827C211.474 471.247 202.823 467.089 195.139 461.28C183.974 452.841 178.226 441.575 177.794 427.649C177.59 421.018 177.268 414.325 177.894 407.746C179.565 390.191 174.737 374.69 164.74 360.394C160.957 354.983 157.732 349.117 154.817 343.18C148.223 329.753 148.52 316.205 154.967 302.726C158.635 295.053 163.303 287.971 167.833 280.82C174.723 269.945 178.675 258.408 177.926 245.327C177.474 237.421 177.818 229.472 177.72 221.544C177.499 203.68 185.446 190.451 200.564 181.383C206.402 177.881 212.303 174.436 218.41 171.448C231.824 164.887 241.689 155.043 248.316 141.611C252.867 132.385 257.592 123.201 264.42 115.296C272.798 105.596 283.512 101.191 296.057 100.83C302.5 100.645 309.009 100.24 315.389 100.901C333.391 102.762 349.112 97.4057 363.67 87.22C368.478 83.858 373.735 81.0958 378.95 78.3745C393.044 71.0185 407.172 71.3881 421.334 78.4143C428.618 82.0276 435.436 86.4088 442.235 90.7912C453.258 97.8949 465.084 101.539 478.267 100.965C486.176 100.619 494.109 100.849 502.03 100.779C519.918 100.621 532.992 108.801 541.936 123.976C545.581 130.16 549.22 136.371 552.404 142.799C558.613 155.333 567.939 164.521 580.411 170.757C588.144 174.624 595.765 178.736 602.91 183.657C615.694 192.461 622.124 204.653 622.288 220.149C622.351 226.233 622.749 232.365 622.163 238.394C620.436 256.139 625.295 271.849 635.481 286.249C638.659 290.742 641.288 295.65 643.913 300.506C652.65 316.672 651.777 332.65 642.616 348.347C638.066 356.141 633.435 363.885 628.822 371.641C624.186 379.438 622.063 387.876 622.167 396.934C622.275 406.152 622.166 415.375 622.323 424.592C622.627 442.473 614.715 455.729 599.683 464.879C593.239 468.802 586.608 472.439 579.915 475.92C569.019 481.588 560.067 489.162 554.309 500.243C549.897 508.732 545.264 517.106 540.725 525.53C538.151 527.326 536.711 530.059 534.936 532.515C532.599 533.834 530.818 535.769 529.106 537.783C519.241 544.405 508.232 546.138 496.603 545.736C488.336 545.451 480.053 545.674 471.777 545.653C466.02 545.637 460.474 546.701 455.208 549.015C438.838 556.211 425.094 568.49 407.666 573.645C404.82 572.833 401.948 573.466 399.086 573.477C385.177 573.188 373.905 566.113 362.955 558.784C349.45 549.746 335.268 544.453 318.654 545.485C306.088 546.268 293.361 546.597 280.938 543.328C278.833 541.76 276.603 540.471 273.947 540.104Z" fill="white"/>
</g>
<path fill-rule="evenodd" clip-rule="evenodd" d="M529.105 537.782C542.716 570.352 556.326 602.921 569.937 635.491C572.277 641.09 574.684 646.661 576.928 652.297C577.714 654.271 579.089 656.446 577.224 658.506C575.321 660.61 573.15 659.309 571.087 658.645C549.749 651.78 528.371 645.034 507.108 637.941C502.876 636.528 501.141 637.436 499.227 641.365C489.552 661.232 479.547 680.938 469.636 700.692C468.587 702.783 467.905 705.241 464.757 705.222C461.482 705.201 461.065 702.493 460.197 700.429C443.028 659.584 425.92 618.712 408.83 577.833C408.275 576.505 408.046 575.041 407.666 573.642C425.093 568.489 438.837 556.21 455.207 549.014C460.472 546.702 466.019 545.637 471.776 545.652C480.052 545.675 488.335 545.451 496.6 545.735C508.231 546.138 519.239 544.404 529.105 537.782Z" fill="white"/>
<path fill-rule="evenodd" clip-rule="evenodd" d="M248.809 308.655C248.809 313.254 248.895 317.854 248.776 322.45C248.707 325.106 249.34 326.529 252.424 326.474C261.061 326.321 269.702 326.444 278.341 326.407C283.055 326.386 285.555 323.705 285.713 319.23C285.953 312.432 285.991 305.612 285.726 298.818C285.547 294.178 283.126 291.35 278.012 291.411C269.741 291.509 261.466 291.547 253.197 291.386C249.782 291.319 248.631 292.688 248.768 295.965C248.944 300.188 248.81 304.424 248.809 308.655ZM236.342 325.666C236.342 311.842 236.483 298.016 236.252 284.197C236.183 280.194 237.092 278.754 241.388 278.856C253.904 279.151 266.433 278.939 278.957 278.967C289.552 278.991 297.713 286.523 298.097 297.025C298.388 304.94 298.397 312.882 298.093 320.796C297.707 330.812 289.862 338.438 279.845 338.683C271.379 338.89 262.893 338.969 254.433 338.64C250.138 338.473 249.128 339.998 249.261 344.018C249.53 352.117 249.477 360.239 249.196 368.339C249.078 371.766 247.765 374.912 243.504 375.303C240.09 375.617 237.775 374.022 236.64 370.957C236.154 369.643 236.353 368.049 236.35 366.583C236.334 352.943 236.342 339.305 236.342 325.666Z" fill="white"/>
<path fill-rule="evenodd" clip-rule="evenodd" d="M517.532 308.88C517.532 313.479 517.653 318.082 517.489 322.675C517.384 325.592 518.551 326.51 521.372 326.468C529.825 326.342 538.282 326.409 546.737 326.424C551.714 326.433 554.311 323.762 554.457 319.005C554.664 312.206 554.736 305.385 554.426 298.594C554.214 293.904 551.561 291.314 546.508 291.4C538.423 291.538 530.329 291.569 522.247 291.377C518.629 291.291 517.293 292.602 517.479 296.19C517.697 300.41 517.53 304.649 517.532 308.88ZM505.064 325.494C505.064 311.671 505.237 297.844 504.96 284.027C504.875 279.757 506.253 278.79 510.279 278.87C522.799 279.118 535.327 278.934 547.851 278.969C558.355 278.998 566.482 286.666 566.829 297.195C567.086 304.928 567.07 312.681 566.835 320.415C566.52 330.737 558.697 338.469 548.397 338.691C539.745 338.879 531.082 338.865 522.43 338.674C519.061 338.6 517.924 339.697 518.008 343.083C518.204 351.003 518.186 358.933 518.016 366.856C517.924 371.099 517.078 375.333 511.504 375.268C506.621 375.21 505.005 372.079 505.032 367.517C505.117 353.51 505.064 339.501 505.064 325.494Z" fill="white"/>
<path fill-rule="evenodd" clip-rule="evenodd" d="M374.899 327.239C374.541 325.451 374.529 323.496 373.765 321.902C369.318 312.608 364.827 303.329 360.067 294.192C357.995 290.213 354.727 290.252 352.637 294.314C348.091 303.145 343.83 312.125 339.6 321.115C337.416 325.756 337.998 330.458 340.216 334.957C344.204 343.045 348.27 351.095 352.291 359.168C353.212 361.017 354.144 362.985 356.576 362.877C358.666 362.785 359.605 361.077 360.456 359.373C364.657 350.979 368.903 342.608 373.102 334.214C374.187 332.046 374.82 329.747 374.899 327.239ZM325.972 327.385C325.678 324.04 325.911 320.844 327.269 318.002C332.347 307.378 337.108 296.554 342.947 286.355C349.212 275.413 365.253 276.216 371.025 287.38C375.842 296.699 380.376 306.165 384.968 315.598C388.663 323.189 388.688 330.919 385.132 338.519C381 347.353 376.588 356.055 372.348 364.839C369.116 371.532 364.296 375.655 356.423 375.385C348.944 375.13 344.208 371.243 341.075 364.694C337.185 356.557 333.1 348.511 328.999 340.478C326.86 336.286 325.538 331.962 325.972 327.385Z" fill="white"/>
<path fill-rule="evenodd" clip-rule="evenodd" d="M447.233 310.245C446.759 310.256 446.284 310.266 445.809 310.277C444.116 316.019 442.282 321.725 440.77 327.514C439.536 332.243 434.901 338.584 438.116 341.291C441.255 343.931 448.259 341.934 453.565 342.049C455.872 342.1 456.313 341.33 455.637 339.092C452.738 329.506 450.019 319.865 447.233 310.245ZM470.683 375.315C467.021 375.385 465.525 372.918 464.584 369.957C463.362 366.103 461.992 362.263 461.218 358.314C460.574 355.035 458.906 354.229 455.872 354.304C449.436 354.466 442.99 354.469 436.555 354.303C433.674 354.228 432.209 355.238 431.498 358.06C430.468 362.154 428.927 366.119 427.904 370.213C426.834 374.495 424.101 376.091 420.13 375.099C415.572 373.963 414.735 370.303 415.834 366.365C418.503 356.812 421.459 347.34 424.285 337.83C429.466 320.395 434.639 302.958 439.806 285.518C440.604 282.827 441.413 279.928 444.483 279.199C448.239 278.307 451.514 279.175 452.756 283.471C460.814 311.36 468.896 339.241 476.864 367.156C478.173 371.744 475.157 375.452 470.683 375.315Z" fill="white"/>
</svg>
