<svg width="139" height="125" viewBox="0 0 139 125" fill="none" xmlns="http://www.w3.org/2000/svg">
<path d="M0 125V111.158C0 111.158 34.605 97.316 69.21 97.316C103.815 97.316 138.42 111.158 138.42 111.158V125H0ZM64.3653 35.7191C56.0601 8.72715 13.842 14.9561 13.842 14.9561C13.842 14.9561 15.2262 68.9399 54.6759 60.6347C51.9075 40.5638 41.526 35.027 41.526 35.027C60.9048 35.027 62.289 58.5584 62.289 58.5584V90.395C64.3653 90.395 67.1337 90.395 69.21 90.395C71.2863 90.395 74.0547 90.395 76.131 90.395V61.3268C76.131 61.3268 76.131 34.3349 96.8941 27.4139C96.8941 27.4139 83.0521 48.1769 83.0521 62.0189C131.499 66.8636 131.499 0.421948 131.499 0.421948C131.499 0.421948 69.9021 -6.49905 64.3653 35.7191Z" fill="#9E9E9E"/>
</svg>
