<svg width="85" height="78" viewBox="0 0 85 78" fill="none" xmlns="http://www.w3.org/2000/svg">
<path d="M69.3 26V15.9H59.65V10.1H69.3V0H75.1V10.1H84.8V15.9H75.1V26H69.3Z" fill="white"/>
<path d="M0 78V71.5773C0 71.5773 16.0567 65.1546 32.1135 65.1546C48.1702 65.1546 64.2269 71.5773 64.2269 71.5773V78H0ZM29.8655 36.5736C26.0119 24.0494 6.42269 26.9396 6.42269 26.9396C6.42269 26.9396 7.06496 51.9881 25.3696 48.1345C24.0851 38.8216 19.2681 36.2525 19.2681 36.2525C28.2598 36.2525 28.9021 47.1711 28.9021 47.1711V61.9433C29.8655 61.9433 31.1501 61.9433 32.1135 61.9433C33.0769 61.9433 34.3614 61.9433 35.3248 61.9433V48.4556C35.3248 48.4556 35.3248 35.9314 44.9588 32.72C44.9588 32.72 38.5362 42.3541 38.5362 48.7768C61.0156 51.0247 61.0156 20.1958 61.0156 20.1958C61.0156 20.1958 32.4346 16.9844 29.8655 36.5736Z" fill="white"/>
</svg>
