<svg width="65" height="58" viewBox="0 0 65 58" fill="none" xmlns="http://www.w3.org/2000/svg">
<path d="M0 58V51.5773C0 51.5773 16.0567 45.1546 32.1135 45.1546C48.1702 45.1546 64.2269 51.5773 64.2269 51.5773V58H0ZM29.8655 16.5736C26.0119 4.0494 6.42269 6.93961 6.42269 6.93961C6.42269 6.93961 7.06496 31.9881 25.3696 28.1345C24.0851 18.8216 19.2681 16.2525 19.2681 16.2525C28.2598 16.2525 28.9021 27.1711 28.9021 27.1711V41.9433C29.8655 41.9433 31.1501 41.9433 32.1135 41.9433C33.0769 41.9433 34.3614 41.9433 35.3248 41.9433V28.4556C35.3248 28.4556 35.3248 15.9314 44.9588 12.72C44.9588 12.72 38.5362 22.3541 38.5362 28.7768C61.0156 31.0247 61.0156 0.195784 61.0156 0.195784C61.0156 0.195784 32.4346 -3.01556 29.8655 16.5736Z" fill="#D9D9D9"/>
</svg>
