<svg width="475" height="97" viewBox="0 0 475 97" fill="none" xmlns="http://www.w3.org/2000/svg">
<g filter="url(#filter0_d_327_449)">
<path d="M16.104 70H30.504L40.008 16.144H61.224L63.336 4.144H6.6L4.488 16.144H25.608L16.104 70ZM60.228 70H73.572L78.468 42.352C79.908 34.096 85.572 29.392 92.1 29.392C96.036 29.392 98.532 31.216 98.532 35.536C98.532 36.784 98.34 38.128 98.052 39.664L92.676 70H106.02L111.588 38.512C112.068 35.92 112.356 33.616 112.356 31.408C112.356 22.192 106.308 18.352 97.668 18.352C91.62 18.352 85.764 21.232 82.02 25.072H81.444L85.764 0.591995H72.42L60.228 70ZM135.354 71.152C142.074 71.152 148.026 68.56 152.25 63.184H152.922C153.018 64.912 153.498 66.352 154.17 67.504C155.706 70 158.394 71.152 161.946 71.152C165.306 71.152 167.994 70.288 169.626 69.52L171.066 60.976H167.994C166.362 60.976 165.306 60.208 165.306 58.384C165.306 57.04 167.61 44.464 169.914 31.888L172.218 19.504H161.274L158.01 25.456H157.338C154.554 20.56 149.466 18.352 143.034 18.352C130.938 18.352 122.202 26.32 119.13 43.984C118.554 47.152 118.362 49.936 118.362 52.432C118.362 64.624 124.986 71.152 135.354 71.152ZM140.922 60.208C134.586 60.208 131.994 57.232 131.994 51.28C131.994 49.744 132.186 47.824 132.954 43.696C134.874 34 138.426 29.296 146.394 29.296C152.442 29.296 155.034 32.752 155.034 38.896C155.034 40.432 154.938 42.16 154.266 45.52C152.634 54.736 147.642 60.208 140.922 60.208ZM175.916 70H189.26L194.156 42.352C195.596 34.096 201.26 29.392 207.788 29.392C211.724 29.392 214.22 31.12 214.22 35.536C214.22 36.784 214.028 38.128 213.74 39.664L208.364 70H221.708L227.276 38.512C227.756 35.92 228.044 33.616 228.044 31.408C228.044 22.192 221.996 18.352 213.26 18.352C206.636 18.352 200.204 21.712 196.364 26.512H195.692V19.504H184.748L175.916 70ZM233.666 70H246.914L249.41 55.792L258.434 48.016L266.69 70H281.09L268.322 39.376L289.154 19.504H273.602L252.098 40.528L259.202 0.495996H245.858L233.666 70ZM308.957 88.048C321.053 88.048 328.349 78.928 334.205 67.6L359.453 19.504H345.533L334.205 42.928C332.477 46.672 329.885 52.624 328.253 56.656H327.773C327.293 52.624 326.333 46.288 325.565 41.968L321.149 19.504H307.709L318.557 70C316.157 74.896 312.413 77.68 307.421 77.68H301.66L300.124 86.8C300.988 87.088 304.061 88.048 308.957 88.048ZM380.945 71.152C396.401 71.152 405.425 64.144 409.169 48.784C410.417 45.424 411.185 41.872 411.185 38.032C411.185 24.688 403.312 18.352 388.337 18.352C372.209 18.352 362.033 26.32 359.057 43.696C358.577 46.384 358.289 49.072 358.289 51.568C358.289 64.816 366.161 71.152 380.945 71.152ZM381.905 60.784C374.897 60.784 371.825 57.616 371.825 51.088C371.825 49.552 372.017 47.728 372.785 43.6C374.705 33.808 378.833 28.624 387.473 28.624C394.481 28.624 397.457 31.984 397.457 38.416C397.457 40.048 397.361 41.776 396.593 45.904C394.769 55.792 390.545 60.784 381.905 60.784ZM432.716 71.152C439.436 71.152 445.772 67.792 449.708 62.992H450.38V70H461.228L470.156 19.504H456.812L451.916 47.152C450.38 55.408 444.716 60.112 438.284 60.112C434.252 60.112 431.756 58.384 431.756 53.968C431.756 52.72 432.044 51.472 432.236 49.84L437.612 19.504H424.268L418.7 50.992C418.316 53.584 417.836 55.888 417.836 58.096C417.836 67.312 424.076 71.152 432.716 71.152Z" fill="#FAFAFA"/>
</g>
<defs>
<filter id="filter0_d_327_449" x="0.488281" y="0.496094" width="473.668" height="95.5518" filterUnits="userSpaceOnUse" color-interpolation-filters="sRGB">
<feFlood flood-opacity="0" result="BackgroundImageFix"/>
<feColorMatrix in="SourceAlpha" type="matrix" values="0 0 0 0 0 0 0 0 0 0 0 0 0 0 0 0 0 0 127 0" result="hardAlpha"/>
<feOffset dy="4"/>
<feGaussianBlur stdDeviation="2"/>
<feComposite in2="hardAlpha" operator="out"/>
<feColorMatrix type="matrix" values="0 0 0 0 0 0 0 0 0 0 0 0 0 0 0 0 0 0 0.25 0"/>
<feBlend mode="normal" in2="BackgroundImageFix" result="effect1_dropShadow_327_449"/>
<feBlend mode="normal" in="SourceGraphic" in2="effect1_dropShadow_327_449" result="shape"/>
</filter>
</defs>
</svg>
