<svg width="1187" height="670" viewBox="0 0 1187 670" fill="none" xmlns="http://www.w3.org/2000/svg">
<path d="M226.58 292.42C222.8 292.42 219.883 291.417 217.83 289.41C215.8 287.38 214.785 284.242 214.785 279.995C214.785 277.172 215.275 274.85 216.255 273.03C217.235 271.187 218.658 269.822 220.525 268.935C222.392 268.025 224.632 267.57 227.245 267.57C228.808 267.57 230.278 267.745 231.655 268.095C233.032 268.445 234.245 268.982 235.295 269.705C236.368 270.428 237.197 271.338 237.78 272.435C238.387 273.508 238.69 274.792 238.69 276.285H233.405C233.405 275.562 233.242 274.92 232.915 274.36C232.612 273.8 232.18 273.333 231.62 272.96C231.06 272.587 230.418 272.307 229.695 272.12C228.972 271.933 228.213 271.84 227.42 271.84C226.207 271.84 225.145 272.003 224.235 272.33C223.325 272.633 222.567 273.112 221.96 273.765C221.377 274.395 220.933 275.188 220.63 276.145C220.327 277.102 220.175 278.21 220.175 279.47V280.52C220.175 282.27 220.432 283.705 220.945 284.825C221.458 285.945 222.228 286.785 223.255 287.345C224.282 287.882 225.553 288.15 227.07 288.15C228.33 288.15 229.438 287.963 230.395 287.59C231.375 287.193 232.133 286.633 232.67 285.91C233.23 285.187 233.51 284.3 233.51 283.25V283.005H226.335V279.015H238.69V292H235.26L234.805 289.41C234.105 290.087 233.347 290.647 232.53 291.09C231.737 291.533 230.85 291.86 229.87 292.07C228.89 292.303 227.793 292.42 226.58 292.42ZM243.302 270.895V266.695H248.167V270.895H243.302ZM243.302 292V273.59H248.167V292H243.302ZM258.128 292.42C256.961 292.42 256.016 292.21 255.293 291.79C254.569 291.37 254.044 290.81 253.718 290.11C253.391 289.387 253.228 288.593 253.228 287.73V277.335H250.953V273.59H253.403L254.313 268.34H258.093V273.59H261.453V277.335H258.093V286.925C258.093 287.485 258.221 287.917 258.478 288.22C258.734 288.5 259.154 288.64 259.738 288.64H261.453V291.86C261.173 291.953 260.846 292.035 260.473 292.105C260.099 292.198 259.703 292.268 259.283 292.315C258.863 292.385 258.478 292.42 258.128 292.42ZM264.595 292V266.695H269.46V275.62H269.705C270.102 275.13 270.569 274.71 271.105 274.36C271.665 273.987 272.284 273.695 272.96 273.485C273.66 273.275 274.419 273.17 275.235 273.17C276.449 273.17 277.51 273.392 278.42 273.835C279.33 274.278 280.03 274.978 280.52 275.935C281.034 276.892 281.29 278.14 281.29 279.68V292H276.425V280.45C276.425 279.867 276.355 279.377 276.215 278.98C276.075 278.56 275.865 278.222 275.585 277.965C275.329 277.685 275.002 277.487 274.605 277.37C274.209 277.253 273.765 277.195 273.275 277.195C272.552 277.195 271.899 277.37 271.315 277.72C270.732 278.07 270.277 278.548 269.95 279.155C269.624 279.762 269.46 280.462 269.46 281.255V292H264.595ZM291.6 292.42C289.733 292.42 288.252 291.907 287.155 290.88C286.058 289.853 285.51 288.197 285.51 285.91V273.59H290.375V285.105C290.375 285.712 290.445 286.225 290.585 286.645C290.725 287.042 290.923 287.368 291.18 287.625C291.46 287.882 291.798 288.068 292.195 288.185C292.592 288.302 293.035 288.36 293.525 288.36C294.248 288.36 294.902 288.185 295.485 287.835C296.068 287.485 296.523 287.007 296.85 286.4C297.177 285.77 297.34 285.07 297.34 284.3V273.59H302.205V292H298.215L297.865 289.48H297.62C297.177 290.063 296.652 290.577 296.045 291.02C295.462 291.463 294.797 291.802 294.05 292.035C293.303 292.292 292.487 292.42 291.6 292.42ZM316.961 292.42C315.771 292.42 314.674 292.187 313.671 291.72C312.691 291.23 311.897 290.495 311.291 289.515H311.046L310.661 292H306.671V266.695H311.536V275.62H311.746C312.119 275.083 312.574 274.628 313.111 274.255C313.647 273.882 314.254 273.613 314.931 273.45C315.607 273.263 316.342 273.17 317.136 273.17C318.582 273.17 319.842 273.508 320.916 274.185C322.012 274.862 322.864 275.912 323.471 277.335C324.077 278.735 324.381 280.543 324.381 282.76C324.381 284.977 324.077 286.797 323.471 288.22C322.887 289.643 322.036 290.705 320.916 291.405C319.819 292.082 318.501 292.42 316.961 292.42ZM315.456 288.43C316.436 288.43 317.206 288.243 317.766 287.87C318.349 287.473 318.769 286.89 319.026 286.12C319.282 285.35 319.411 284.382 319.411 283.215V282.41C319.411 281.243 319.282 280.275 319.026 279.505C318.769 278.712 318.349 278.128 317.766 277.755C317.206 277.358 316.436 277.16 315.456 277.16C314.756 277.16 314.161 277.288 313.671 277.545C313.181 277.778 312.772 278.128 312.446 278.595C312.142 279.038 311.909 279.598 311.746 280.275C311.582 280.952 311.501 281.698 311.501 282.515V283.145C311.501 284.242 311.641 285.187 311.921 285.98C312.201 286.773 312.632 287.38 313.216 287.8C313.799 288.22 314.546 288.43 315.456 288.43ZM360.88 292L365.325 266.695H368.405L366.795 275.9H367.005C367.565 275.293 368.16 274.792 368.79 274.395C369.444 273.975 370.132 273.672 370.855 273.485C371.602 273.275 372.36 273.17 373.13 273.17C374.134 273.17 375.02 273.322 375.79 273.625C376.56 273.928 377.167 274.407 377.61 275.06C378.054 275.713 378.275 276.588 378.275 277.685C378.275 278.012 378.252 278.362 378.205 278.735C378.182 279.108 378.135 279.493 378.065 279.89L375.93 292H372.85L374.95 280.065C374.997 279.785 375.032 279.517 375.055 279.26C375.102 278.98 375.125 278.723 375.125 278.49C375.125 277.813 374.985 277.288 374.705 276.915C374.449 276.542 374.087 276.285 373.62 276.145C373.154 275.982 372.605 275.9 371.975 275.9C371.299 275.9 370.622 276.028 369.945 276.285C369.269 276.518 368.639 276.88 368.055 277.37C367.495 277.86 367.005 278.478 366.585 279.225C366.189 279.972 365.909 280.823 365.745 281.78L363.96 292H360.88ZM385.012 292.42C384.195 292.42 383.554 292.28 383.087 292C382.644 291.743 382.317 291.405 382.107 290.985C381.92 290.565 381.827 290.075 381.827 289.515C381.827 289.352 381.839 289.188 381.862 289.025C381.885 288.838 381.909 288.652 381.932 288.465L384.067 276.18H381.687L382.142 273.59H384.557L386.062 268.445H388.477L387.567 273.59H391.032L390.577 276.18H387.147L385.082 287.765C385.059 287.905 385.024 288.092 384.977 288.325C384.954 288.535 384.942 288.675 384.942 288.745C384.942 289.095 385.047 289.363 385.257 289.55C385.467 289.737 385.794 289.83 386.237 289.83H388.197L387.847 291.86C387.59 291.977 387.299 292.07 386.972 292.14C386.645 292.21 386.307 292.268 385.957 292.315C385.63 292.385 385.315 292.42 385.012 292.42ZM395.403 292.42C394.586 292.42 393.944 292.28 393.478 292C393.034 291.743 392.708 291.405 392.497 290.985C392.311 290.565 392.218 290.075 392.218 289.515C392.218 289.352 392.229 289.188 392.253 289.025C392.276 288.838 392.299 288.652 392.323 288.465L394.458 276.18H392.078L392.533 273.59H394.948L396.453 268.445H398.868L397.958 273.59H401.423L400.968 276.18H397.538L395.473 287.765C395.449 287.905 395.414 288.092 395.368 288.325C395.344 288.535 395.332 288.675 395.332 288.745C395.332 289.095 395.438 289.363 395.648 289.55C395.858 289.737 396.184 289.83 396.628 289.83H398.588L398.238 291.86C397.981 291.977 397.689 292.07 397.363 292.14C397.036 292.21 396.698 292.268 396.348 292.315C396.021 292.385 395.706 292.42 395.403 292.42ZM400.298 298.055L404.603 273.59H407.018L406.913 276.215H407.158C407.928 275.188 408.815 274.43 409.818 273.94C410.845 273.427 411.918 273.17 413.038 273.17C414.345 273.17 415.453 273.415 416.363 273.905C417.273 274.395 417.973 275.13 418.463 276.11C418.953 277.09 419.198 278.338 419.198 279.855C419.198 280.345 419.175 280.87 419.128 281.43C419.105 281.99 419.035 282.585 418.918 283.215C418.545 285.315 417.95 287.042 417.133 288.395C416.316 289.748 415.336 290.763 414.193 291.44C413.05 292.093 411.79 292.42 410.413 292.42C409.596 292.42 408.838 292.327 408.138 292.14C407.438 291.953 406.831 291.662 406.318 291.265C405.805 290.845 405.385 290.32 405.058 289.69H404.848L403.378 298.055H400.298ZM409.643 289.725C410.74 289.725 411.685 289.503 412.478 289.06C413.271 288.617 413.925 287.928 414.438 286.995C414.975 286.038 415.371 284.813 415.628 283.32C415.745 282.76 415.826 282.282 415.873 281.885C415.92 281.465 415.955 281.103 415.978 280.8C416.001 280.497 416.013 280.228 416.013 279.995C416.013 279.015 415.861 278.222 415.558 277.615C415.255 277.008 414.823 276.565 414.263 276.285C413.703 276.005 413.015 275.865 412.198 275.865C411.101 275.865 410.133 276.122 409.293 276.635C408.476 277.125 407.8 277.86 407.263 278.84C406.726 279.797 406.341 280.987 406.108 282.41C406.015 282.9 405.945 283.32 405.898 283.67C405.851 284.02 405.816 284.323 405.793 284.58C405.77 284.837 405.758 285.093 405.758 285.35C405.758 286.47 405.933 287.357 406.283 288.01C406.633 288.64 407.1 289.083 407.683 289.34C408.266 289.597 408.92 289.725 409.643 289.725ZM427.997 292.42C426.853 292.42 425.838 292.315 424.952 292.105C424.065 291.895 423.318 291.592 422.712 291.195C422.105 290.798 421.638 290.32 421.312 289.76C421.008 289.177 420.857 288.535 420.857 287.835C420.857 287.555 420.88 287.287 420.927 287.03C420.973 286.75 421.032 286.505 421.102 286.295H424.147C424.1 286.482 424.053 286.668 424.007 286.855C423.983 287.042 423.972 287.205 423.972 287.345C423.972 287.952 424.147 288.453 424.497 288.85C424.847 289.223 425.337 289.492 425.967 289.655C426.597 289.818 427.332 289.9 428.172 289.9C428.825 289.9 429.432 289.842 429.992 289.725C430.552 289.585 431.042 289.387 431.462 289.13C431.905 288.873 432.243 288.547 432.477 288.15C432.733 287.73 432.862 287.24 432.862 286.68C432.862 286.213 432.722 285.828 432.442 285.525C432.185 285.198 431.812 284.93 431.322 284.72C430.855 284.487 430.33 284.288 429.747 284.125C429.163 283.938 428.557 283.752 427.927 283.565C427.32 283.378 426.713 283.168 426.107 282.935C425.523 282.702 424.987 282.422 424.497 282.095C424.03 281.768 423.657 281.36 423.377 280.87C423.097 280.357 422.957 279.727 422.957 278.98C422.957 278 423.155 277.148 423.552 276.425C423.948 275.702 424.497 275.095 425.197 274.605C425.897 274.115 426.702 273.753 427.612 273.52C428.522 273.287 429.502 273.17 430.552 273.17C431.485 273.17 432.348 273.263 433.142 273.45C433.958 273.613 434.658 273.882 435.242 274.255C435.848 274.605 436.315 275.048 436.642 275.585C436.992 276.122 437.167 276.74 437.167 277.44C437.167 277.743 437.132 278.035 437.062 278.315C437.015 278.572 436.98 278.758 436.957 278.875H433.947C433.97 278.712 433.982 278.572 433.982 278.455C434.005 278.315 434.017 278.187 434.017 278.07C434.017 277.487 433.865 277.02 433.562 276.67C433.258 276.32 432.838 276.075 432.302 275.935C431.765 275.772 431.147 275.69 430.447 275.69C429.84 275.69 429.268 275.748 428.732 275.865C428.218 275.958 427.763 276.122 427.367 276.355C426.993 276.565 426.69 276.857 426.457 277.23C426.247 277.58 426.142 277.977 426.142 278.42C426.142 278.98 426.34 279.423 426.737 279.75C427.133 280.053 427.647 280.298 428.277 280.485C428.907 280.672 429.583 280.893 430.307 281.15C431.007 281.383 431.695 281.617 432.372 281.85C433.048 282.083 433.667 282.375 434.227 282.725C434.81 283.052 435.277 283.495 435.627 284.055C435.977 284.592 436.152 285.268 436.152 286.085C436.152 287.158 435.942 288.092 435.522 288.885C435.125 289.678 434.565 290.343 433.842 290.88C433.118 291.393 432.255 291.778 431.252 292.035C430.272 292.292 429.187 292.42 427.997 292.42ZM442.723 277.23L443.353 273.555H446.783L446.153 277.23H442.723ZM440.133 292L440.798 288.325H444.228L443.563 292H440.133ZM446.71 293.715L459.275 266.275H461.83L449.265 293.715H446.71ZM456.998 293.715L469.563 266.275H472.118L459.553 293.715H456.998ZM475.721 298.37C474.531 298.37 473.458 298.207 472.501 297.88C471.544 297.577 470.786 297.11 470.226 296.48C469.689 295.873 469.421 295.103 469.421 294.17C469.421 294.007 469.433 293.82 469.456 293.61C469.479 293.4 469.526 293.155 469.596 292.875H472.571C472.548 292.992 472.524 293.097 472.501 293.19C472.501 293.307 472.501 293.4 472.501 293.47C472.501 294.03 472.653 294.485 472.956 294.835C473.283 295.185 473.703 295.43 474.216 295.57C474.753 295.71 475.336 295.78 475.966 295.78C477.133 295.78 478.124 295.582 478.941 295.185C479.781 294.788 480.458 294.182 480.971 293.365C481.484 292.572 481.846 291.58 482.056 290.39C482.103 290.133 482.138 289.888 482.161 289.655C482.208 289.398 482.254 289.177 482.301 288.99H482.056C481.566 289.62 481.018 290.145 480.411 290.565C479.804 290.962 479.151 291.253 478.451 291.44C477.774 291.627 477.074 291.72 476.351 291.72C475.114 291.72 474.041 291.487 473.131 291.02C472.244 290.53 471.556 289.807 471.066 288.85C470.576 287.87 470.331 286.633 470.331 285.14C470.331 284.72 470.354 284.277 470.401 283.81C470.448 283.32 470.518 282.807 470.611 282.27C471.171 279.073 472.186 276.763 473.656 275.34C475.149 273.893 476.981 273.17 479.151 273.17C480.458 273.17 481.566 273.427 482.476 273.94C483.409 274.43 484.121 275.188 484.611 276.215H484.856L485.591 273.59H488.076L485.206 290.075C484.856 292.058 484.284 293.657 483.491 294.87C482.721 296.083 481.694 296.97 480.411 297.53C479.151 298.09 477.588 298.37 475.721 298.37ZM477.506 289.025C478.136 289.025 478.754 288.92 479.361 288.71C479.991 288.5 480.574 288.15 481.111 287.66C481.648 287.17 482.114 286.528 482.511 285.735C482.908 284.918 483.199 283.915 483.386 282.725C483.456 282.258 483.514 281.862 483.561 281.535C483.608 281.208 483.643 280.917 483.666 280.66C483.689 280.403 483.701 280.158 483.701 279.925C483.701 279.038 483.561 278.292 483.281 277.685C483.001 277.078 482.569 276.623 481.986 276.32C481.403 276.017 480.656 275.865 479.746 275.865C478.789 275.865 477.914 276.063 477.121 276.46C476.328 276.857 475.651 277.51 475.091 278.42C474.531 279.33 474.123 280.555 473.866 282.095C473.796 282.608 473.726 283.052 473.656 283.425C473.609 283.798 473.574 284.113 473.551 284.37C473.551 284.603 473.551 284.837 473.551 285.07C473.551 285.98 473.691 286.727 473.971 287.31C474.251 287.893 474.683 288.325 475.266 288.605C475.873 288.885 476.619 289.025 477.506 289.025ZM493.244 270.125L493.839 266.695H496.919L496.324 270.125H493.244ZM489.464 292L492.719 273.59H495.799L492.544 292H489.464ZM501.77 292.42C500.953 292.42 500.311 292.28 499.845 292C499.401 291.743 499.075 291.405 498.865 290.985C498.678 290.565 498.585 290.075 498.585 289.515C498.585 289.352 498.596 289.188 498.62 289.025C498.643 288.838 498.666 288.652 498.69 288.465L500.825 276.18H498.445L498.9 273.59H501.315L502.82 268.445H505.235L504.325 273.59H507.79L507.335 276.18H503.905L501.84 287.765C501.816 287.905 501.781 288.092 501.735 288.325C501.711 288.535 501.7 288.675 501.7 288.745C501.7 289.095 501.805 289.363 502.015 289.55C502.225 289.737 502.551 289.83 502.995 289.83H504.955L504.605 291.86C504.348 291.977 504.056 292.07 503.73 292.14C503.403 292.21 503.065 292.268 502.715 292.315C502.388 292.385 502.073 292.42 501.77 292.42ZM507.75 292L512.195 266.695H515.275L513.665 275.9H513.875C514.435 275.293 515.03 274.792 515.66 274.395C516.314 273.975 517.002 273.672 517.725 273.485C518.472 273.275 519.23 273.17 520 273.17C521.004 273.17 521.89 273.322 522.66 273.625C523.43 273.928 524.037 274.407 524.48 275.06C524.924 275.713 525.145 276.588 525.145 277.685C525.145 278.012 525.122 278.362 525.075 278.735C525.052 279.108 525.005 279.493 524.935 279.89L522.8 292H519.72L521.82 280.065C521.867 279.785 521.902 279.517 521.925 279.26C521.972 278.98 521.995 278.723 521.995 278.49C521.995 277.813 521.855 277.288 521.575 276.915C521.319 276.542 520.957 276.285 520.49 276.145C520.024 275.982 519.475 275.9 518.845 275.9C518.169 275.9 517.492 276.028 516.815 276.285C516.139 276.518 515.509 276.88 514.925 277.37C514.365 277.86 513.875 278.478 513.455 279.225C513.059 279.972 512.779 280.823 512.615 281.78L510.83 292H507.75ZM533.282 292.42C532.302 292.42 531.415 292.268 530.622 291.965C529.829 291.662 529.21 291.183 528.767 290.53C528.324 289.877 528.102 289.002 528.102 287.905C528.102 287.555 528.125 287.205 528.172 286.855C528.219 286.482 528.277 286.097 528.347 285.7L530.482 273.59H533.562L531.462 285.56C531.439 285.84 531.404 286.108 531.357 286.365C531.31 286.622 531.287 286.867 531.287 287.1C531.287 287.777 531.415 288.313 531.672 288.71C531.952 289.083 532.325 289.34 532.792 289.48C533.282 289.62 533.83 289.69 534.437 289.69C535.137 289.69 535.814 289.573 536.467 289.34C537.12 289.107 537.727 288.757 538.287 288.29C538.847 287.8 539.337 287.193 539.757 286.47C540.177 285.747 540.469 284.907 540.632 283.95L542.452 273.59H545.567L542.312 292H539.862L540.037 289.235H539.827C539.244 289.958 538.59 290.565 537.867 291.055C537.167 291.522 536.432 291.86 535.662 292.07C534.892 292.303 534.099 292.42 533.282 292.42ZM556.085 292.42C554.779 292.42 553.647 292.175 552.69 291.685C551.757 291.195 551.057 290.425 550.59 289.375H550.345L549.575 292H547.125L551.57 266.695H554.65L553.04 275.9H553.25C553.764 275.247 554.324 274.722 554.93 274.325C555.537 273.928 556.19 273.637 556.89 273.45C557.59 273.263 558.29 273.17 558.99 273.17C560.227 273.17 561.289 273.415 562.175 273.905C563.085 274.395 563.785 275.13 564.275 276.11C564.765 277.09 565.01 278.338 565.01 279.855C565.01 280.298 564.987 280.777 564.94 281.29C564.894 281.803 564.812 282.352 564.695 282.935C564.322 285.152 563.739 286.96 562.945 288.36C562.152 289.737 561.172 290.763 560.005 291.44C558.862 292.093 557.555 292.42 556.085 292.42ZM555.49 289.725C556.517 289.725 557.415 289.515 558.185 289.095C558.979 288.675 559.644 287.987 560.18 287.03C560.74 286.05 561.16 284.755 561.44 283.145C561.534 282.585 561.604 282.118 561.65 281.745C561.72 281.348 561.767 281.01 561.79 280.73C561.814 280.427 561.825 280.158 561.825 279.925C561.825 278.992 561.674 278.233 561.37 277.65C561.09 277.043 560.647 276.6 560.04 276.32C559.457 276.017 558.722 275.865 557.835 275.865C557.229 275.865 556.61 275.97 555.98 276.18C555.374 276.39 554.802 276.752 554.265 277.265C553.729 277.778 553.239 278.467 552.795 279.33C552.375 280.17 552.06 281.232 551.85 282.515C551.78 282.982 551.722 283.402 551.675 283.775C551.629 284.125 551.594 284.44 551.57 284.72C551.547 284.977 551.535 285.222 551.535 285.455C551.535 286.388 551.675 287.182 551.955 287.835C552.235 288.465 552.667 288.943 553.25 289.27C553.834 289.573 554.58 289.725 555.49 289.725ZM567.684 292L568.349 288.325H571.779L571.114 292H567.684ZM584.321 292.42C582.734 292.42 581.404 292.175 580.331 291.685C579.257 291.195 578.452 290.437 577.916 289.41C577.379 288.383 577.111 287.088 577.111 285.525C577.111 284.918 577.134 284.312 577.181 283.705C577.251 283.075 577.356 282.457 577.496 281.85C577.776 280.52 578.161 279.33 578.651 278.28C579.141 277.207 579.759 276.297 580.506 275.55C581.252 274.78 582.127 274.197 583.131 273.8C584.157 273.38 585.324 273.17 586.631 273.17C588.171 273.17 589.431 273.392 590.411 273.835C591.391 274.255 592.126 274.862 592.616 275.655C593.106 276.448 593.351 277.417 593.351 278.56C593.351 278.84 593.339 279.143 593.316 279.47C593.292 279.773 593.246 280.088 593.176 280.415H590.096C590.142 280.158 590.177 279.913 590.201 279.68C590.224 279.423 590.236 279.178 590.236 278.945C590.236 278.245 590.107 277.662 589.851 277.195C589.617 276.705 589.232 276.343 588.696 276.11C588.182 275.853 587.506 275.725 586.666 275.725C585.662 275.725 584.752 275.97 583.936 276.46C583.119 276.927 582.431 277.65 581.871 278.63C581.311 279.587 580.891 280.823 580.611 282.34C580.517 282.853 580.447 283.297 580.401 283.67C580.354 284.043 580.319 284.382 580.296 284.685C580.272 284.965 580.261 285.222 580.261 285.455C580.261 286.482 580.412 287.322 580.716 287.975C581.042 288.605 581.497 289.072 582.081 289.375C582.687 289.678 583.411 289.83 584.251 289.83C585.301 289.83 586.164 289.643 586.841 289.27C587.541 288.897 588.101 288.36 588.521 287.66C588.941 286.937 589.232 286.108 589.396 285.175H592.336C592.126 286.598 591.694 287.858 591.041 288.955C590.411 290.028 589.536 290.88 588.416 291.51C587.319 292.117 585.954 292.42 584.321 292.42ZM602.61 292.42C601 292.42 599.647 292.175 598.55 291.685C597.453 291.172 596.613 290.413 596.03 289.41C595.47 288.383 595.19 287.088 595.19 285.525C595.19 285.058 595.213 284.58 595.26 284.09C595.33 283.577 595.412 283.052 595.505 282.515C595.878 280.345 596.497 278.583 597.36 277.23C598.223 275.853 599.32 274.838 600.65 274.185C602.003 273.508 603.578 273.17 605.375 273.17C607.008 273.17 608.373 273.427 609.47 273.94C610.567 274.43 611.395 275.188 611.955 276.215C612.515 277.242 612.795 278.548 612.795 280.135C612.795 280.578 612.772 281.045 612.725 281.535C612.678 282.025 612.608 282.538 612.515 283.075C612.142 285.222 611.523 286.983 610.66 288.36C609.797 289.737 608.7 290.763 607.37 291.44C606.04 292.093 604.453 292.42 602.61 292.42ZM602.75 289.83C603.917 289.83 604.932 289.597 605.795 289.13C606.682 288.663 607.405 287.94 607.965 286.96C608.548 285.957 608.968 284.697 609.225 283.18C609.318 282.643 609.388 282.2 609.435 281.85C609.482 281.477 609.517 281.162 609.54 280.905C609.563 280.625 609.575 280.368 609.575 280.135C609.575 279.132 609.412 278.315 609.085 277.685C608.758 277.032 608.268 276.553 607.615 276.25C606.985 275.923 606.18 275.76 605.2 275.76C604.033 275.76 603.018 276.005 602.155 276.495C601.292 276.962 600.58 277.685 600.02 278.665C599.46 279.622 599.04 280.87 598.76 282.41C598.667 282.947 598.585 283.402 598.515 283.775C598.468 284.148 598.433 284.463 598.41 284.72C598.387 284.977 598.375 285.222 598.375 285.455C598.375 286.482 598.538 287.31 598.865 287.94C599.192 288.57 599.682 289.048 600.335 289.375C600.988 289.678 601.793 289.83 602.75 289.83ZM614.801 292L618.021 273.59H620.436L620.261 276.355H620.506C621.113 275.608 621.743 275.002 622.396 274.535C623.049 274.068 623.726 273.73 624.426 273.52C625.149 273.287 625.908 273.17 626.701 273.17C627.868 273.17 628.859 273.427 629.676 273.94C630.493 274.43 631.029 275.235 631.286 276.355H631.531C632.138 275.608 632.768 275.002 633.421 274.535C634.098 274.068 634.798 273.73 635.521 273.52C636.268 273.287 637.038 273.17 637.831 273.17C639.231 273.17 640.374 273.52 641.261 274.22C642.171 274.897 642.626 276.04 642.626 277.65C642.626 277.953 642.603 278.28 642.556 278.63C642.509 278.98 642.451 279.353 642.381 279.75L640.211 292H637.131L639.266 279.96C639.313 279.657 639.348 279.388 639.371 279.155C639.418 278.922 639.441 278.7 639.441 278.49C639.441 277.79 639.313 277.253 639.056 276.88C638.799 276.507 638.449 276.25 638.006 276.11C637.563 275.97 637.061 275.9 636.501 275.9C635.684 275.9 634.879 276.133 634.086 276.6C633.293 277.043 632.604 277.697 632.021 278.56C631.461 279.4 631.076 280.438 630.866 281.675L629.046 292H625.966L628.101 279.96C628.148 279.657 628.183 279.388 628.206 279.155C628.229 278.898 628.241 278.665 628.241 278.455C628.241 277.778 628.113 277.253 627.856 276.88C627.623 276.507 627.284 276.25 626.841 276.11C626.398 275.97 625.896 275.9 625.336 275.9C624.519 275.9 623.714 276.122 622.921 276.565C622.128 277.008 621.439 277.662 620.856 278.525C620.296 279.388 619.911 280.438 619.701 281.675L617.881 292H614.801ZM642.183 293.715L654.748 266.275H657.303L644.738 293.715H642.183ZM653.906 292L654.186 290.355L666.646 276.18H657.406L657.861 273.59H671.756L671.476 275.2L658.946 289.41H669.551L669.096 292H653.906ZM679.825 292.42C678.168 292.42 676.78 292.175 675.66 291.685C674.563 291.172 673.735 290.402 673.175 289.375C672.638 288.325 672.37 287.042 672.37 285.525C672.37 284.895 672.405 284.265 672.475 283.635C672.545 282.982 672.638 282.363 672.755 281.78C673.105 280.123 673.653 278.653 674.4 277.37C675.146 276.063 676.15 275.037 677.41 274.29C678.693 273.543 680.28 273.17 682.17 273.17C683.756 273.17 685.063 273.438 686.09 273.975C687.14 274.488 687.91 275.235 688.4 276.215C688.913 277.195 689.17 278.397 689.17 279.82C689.17 280.357 689.123 280.952 689.03 281.605C688.96 282.258 688.843 282.912 688.68 283.565H675.695C675.648 283.915 675.601 284.253 675.555 284.58C675.531 284.883 675.52 285.175 675.52 285.455C675.52 286.482 675.671 287.322 675.975 287.975C676.301 288.628 676.791 289.107 677.445 289.41C678.098 289.713 678.903 289.865 679.86 289.865C680.466 289.865 681.05 289.795 681.61 289.655C682.17 289.492 682.683 289.247 683.15 288.92C683.616 288.593 684.025 288.173 684.375 287.66C684.725 287.123 684.993 286.482 685.18 285.735H688.19C687.956 286.855 687.583 287.835 687.07 288.675C686.556 289.515 685.938 290.215 685.215 290.775C684.491 291.312 683.663 291.72 682.73 292C681.82 292.28 680.851 292.42 679.825 292.42ZM676.115 281.255H685.915C685.985 280.928 686.031 280.625 686.055 280.345C686.078 280.065 686.09 279.797 686.09 279.54C686.09 278.677 685.938 277.965 685.635 277.405C685.355 276.845 684.923 276.425 684.34 276.145C683.756 275.842 683.021 275.69 682.135 275.69C681.108 275.69 680.198 275.912 679.405 276.355C678.611 276.775 677.935 277.393 677.375 278.21C676.838 279.027 676.418 280.042 676.115 281.255ZM691.124 292L694.344 273.59H696.759L696.584 276.355H696.829C697.436 275.632 698.089 275.037 698.789 274.57C699.513 274.08 700.259 273.73 701.029 273.52C701.799 273.287 702.581 273.17 703.374 273.17C704.378 273.17 705.264 273.322 706.034 273.625C706.804 273.928 707.411 274.407 707.854 275.06C708.298 275.713 708.519 276.588 708.519 277.685C708.519 278.012 708.496 278.362 708.449 278.735C708.426 279.108 708.379 279.493 708.309 279.89L706.174 292H703.094L705.194 280.065C705.241 279.762 705.276 279.482 705.299 279.225C705.346 278.945 705.369 278.7 705.369 278.49C705.369 277.813 705.229 277.288 704.949 276.915C704.693 276.542 704.331 276.285 703.864 276.145C703.398 275.982 702.849 275.9 702.219 275.9C701.543 275.9 700.866 276.028 700.189 276.285C699.536 276.518 698.918 276.88 698.334 277.37C697.774 277.86 697.284 278.478 696.864 279.225C696.444 279.972 696.153 280.823 695.989 281.78L694.204 292H691.124ZM719.806 292.42C718.499 292.42 717.368 292.175 716.411 291.685C715.478 291.195 714.778 290.425 714.311 289.375H714.066L713.296 292H710.846L715.291 266.695H718.371L716.761 275.9H716.971C717.484 275.247 718.044 274.722 718.651 274.325C719.258 273.928 719.911 273.637 720.611 273.45C721.311 273.263 722.011 273.17 722.711 273.17C723.948 273.17 725.009 273.415 725.896 273.905C726.806 274.395 727.506 275.13 727.996 276.11C728.486 277.09 728.731 278.338 728.731 279.855C728.731 280.298 728.708 280.777 728.661 281.29C728.614 281.803 728.533 282.352 728.416 282.935C728.043 285.152 727.459 286.96 726.666 288.36C725.873 289.737 724.893 290.763 723.726 291.44C722.583 292.093 721.276 292.42 719.806 292.42ZM719.211 289.725C720.238 289.725 721.136 289.515 721.906 289.095C722.699 288.675 723.364 287.987 723.901 287.03C724.461 286.05 724.881 284.755 725.161 283.145C725.254 282.585 725.324 282.118 725.371 281.745C725.441 281.348 725.488 281.01 725.511 280.73C725.534 280.427 725.546 280.158 725.546 279.925C725.546 278.992 725.394 278.233 725.091 277.65C724.811 277.043 724.368 276.6 723.761 276.32C723.178 276.017 722.443 275.865 721.556 275.865C720.949 275.865 720.331 275.97 719.701 276.18C719.094 276.39 718.523 276.752 717.986 277.265C717.449 277.778 716.959 278.467 716.516 279.33C716.096 280.17 715.781 281.232 715.571 282.515C715.501 282.982 715.443 283.402 715.396 283.775C715.349 284.125 715.314 284.44 715.291 284.72C715.268 284.977 715.256 285.222 715.256 285.455C715.256 286.388 715.396 287.182 715.676 287.835C715.956 288.465 716.388 288.943 716.971 289.27C717.554 289.573 718.301 289.725 719.211 289.725ZM734.484 270.125L735.079 266.695H738.159L737.564 270.125H734.484ZM730.704 292L733.959 273.59H737.039L733.784 292H730.704ZM743.01 292.42C742.193 292.42 741.552 292.28 741.085 292C740.642 291.743 740.315 291.405 740.105 290.985C739.918 290.565 739.825 290.075 739.825 289.515C739.825 289.352 739.837 289.188 739.86 289.025C739.883 288.838 739.907 288.652 739.93 288.465L742.065 276.18H739.685L740.14 273.59H742.555L744.06 268.445H746.475L745.565 273.59H749.03L748.575 276.18H745.145L743.08 287.765C743.057 287.905 743.022 288.092 742.975 288.325C742.952 288.535 742.94 288.675 742.94 288.745C742.94 289.095 743.045 289.363 743.255 289.55C743.465 289.737 743.792 289.83 744.235 289.83H746.195L745.845 291.86C745.588 291.977 745.297 292.07 744.97 292.14C744.643 292.21 744.305 292.268 743.955 292.315C743.628 292.385 743.313 292.42 743.01 292.42ZM749.621 292L753.821 267.99H772.336L771.811 270.86H756.656L755.361 278.28H768.976L768.486 281.15H754.836L753.436 289.13H768.836L768.311 292H749.621ZM779.187 292L782.897 270.895H774.672L775.162 267.99H795.007L794.517 270.895H786.222L782.512 292H779.187ZM794.533 292L798.733 267.99H802.058L800.238 278.28H813.328L815.148 267.99H818.473L814.273 292H810.913L812.838 281.185H799.748L797.858 292H794.533ZM816.944 293.715L829.509 266.275H832.064L819.499 293.715H816.944ZM837.837 292.42C836.181 292.42 834.792 292.175 833.672 291.685C832.576 291.172 831.747 290.402 831.187 289.375C830.651 288.325 830.382 287.042 830.382 285.525C830.382 284.895 830.417 284.265 830.487 283.635C830.557 282.982 830.651 282.363 830.767 281.78C831.117 280.123 831.666 278.653 832.412 277.37C833.159 276.063 834.162 275.037 835.422 274.29C836.706 273.543 838.292 273.17 840.182 273.17C841.769 273.17 843.076 273.438 844.102 273.975C845.152 274.488 845.922 275.235 846.412 276.215C846.926 277.195 847.182 278.397 847.182 279.82C847.182 280.357 847.136 280.952 847.042 281.605C846.972 282.258 846.856 282.912 846.692 283.565H833.707C833.661 283.915 833.614 284.253 833.567 284.58C833.544 284.883 833.532 285.175 833.532 285.455C833.532 286.482 833.684 287.322 833.987 287.975C834.314 288.628 834.804 289.107 835.457 289.41C836.111 289.713 836.916 289.865 837.872 289.865C838.479 289.865 839.062 289.795 839.622 289.655C840.182 289.492 840.696 289.247 841.162 288.92C841.629 288.593 842.037 288.173 842.387 287.66C842.737 287.123 843.006 286.482 843.192 285.735H846.202C845.969 286.855 845.596 287.835 845.082 288.675C844.569 289.515 843.951 290.215 843.227 290.775C842.504 291.312 841.676 291.72 840.742 292C839.832 292.28 838.864 292.42 837.837 292.42ZM834.127 281.255H843.927C843.997 280.928 844.044 280.625 844.067 280.345C844.091 280.065 844.102 279.797 844.102 279.54C844.102 278.677 843.951 277.965 843.647 277.405C843.367 276.845 842.936 276.425 842.352 276.145C841.769 275.842 841.034 275.69 840.147 275.69C839.121 275.69 838.211 275.912 837.417 276.355C836.624 276.775 835.947 277.393 835.387 278.21C834.851 279.027 834.431 280.042 834.127 281.255ZM849.137 292L852.357 273.59H854.772L854.597 276.355H854.842C855.449 275.632 856.102 275.037 856.802 274.57C857.525 274.08 858.272 273.73 859.042 273.52C859.812 273.287 860.594 273.17 861.387 273.17C862.39 273.17 863.277 273.322 864.047 273.625C864.817 273.928 865.424 274.407 865.867 275.06C866.31 275.713 866.532 276.588 866.532 277.685C866.532 278.012 866.509 278.362 866.462 278.735C866.439 279.108 866.392 279.493 866.322 279.89L864.187 292H861.107L863.207 280.065C863.254 279.762 863.289 279.482 863.312 279.225C863.359 278.945 863.382 278.7 863.382 278.49C863.382 277.813 863.242 277.288 862.962 276.915C862.705 276.542 862.344 276.285 861.877 276.145C861.41 275.982 860.862 275.9 860.232 275.9C859.555 275.9 858.879 276.028 858.202 276.285C857.549 276.518 856.93 276.88 856.347 277.37C855.787 277.86 855.297 278.478 854.877 279.225C854.457 279.972 854.165 280.823 854.002 281.78L852.217 292H849.137ZM876.734 292.42C875.077 292.42 873.689 292.175 872.569 291.685C871.472 291.172 870.644 290.402 870.084 289.375C869.547 288.325 869.279 287.042 869.279 285.525C869.279 284.895 869.314 284.265 869.384 283.635C869.454 282.982 869.547 282.363 869.664 281.78C870.014 280.123 870.562 278.653 871.309 277.37C872.055 276.063 873.059 275.037 874.319 274.29C875.602 273.543 877.189 273.17 879.079 273.17C880.665 273.17 881.972 273.438 882.999 273.975C884.049 274.488 884.819 275.235 885.309 276.215C885.822 277.195 886.079 278.397 886.079 279.82C886.079 280.357 886.032 280.952 885.939 281.605C885.869 282.258 885.752 282.912 885.589 283.565H872.604C872.557 283.915 872.51 284.253 872.464 284.58C872.44 284.883 872.429 285.175 872.429 285.455C872.429 286.482 872.58 287.322 872.884 287.975C873.21 288.628 873.7 289.107 874.354 289.41C875.007 289.713 875.812 289.865 876.769 289.865C877.375 289.865 877.959 289.795 878.519 289.655C879.079 289.492 879.592 289.247 880.059 288.92C880.525 288.593 880.934 288.173 881.284 287.66C881.634 287.123 881.902 286.482 882.089 285.735H885.099C884.865 286.855 884.492 287.835 883.979 288.675C883.465 289.515 882.847 290.215 882.124 290.775C881.4 291.312 880.572 291.72 879.639 292C878.729 292.28 877.76 292.42 876.734 292.42ZM873.024 281.255H882.824C882.894 280.928 882.94 280.625 882.964 280.345C882.987 280.065 882.999 279.797 882.999 279.54C882.999 278.677 882.847 277.965 882.544 277.405C882.264 276.845 881.832 276.425 881.249 276.145C880.665 275.842 879.93 275.69 879.044 275.69C878.017 275.69 877.107 275.912 876.314 276.355C875.52 276.775 874.844 277.393 874.284 278.21C873.747 279.027 873.327 280.042 873.024 281.255ZM894.159 292.42C892.945 292.42 891.884 292.175 890.974 291.685C890.087 291.195 889.399 290.46 888.909 289.48C888.419 288.5 888.174 287.252 888.174 285.735C888.174 285.268 888.197 284.778 888.244 284.265C888.314 283.752 888.395 283.203 888.489 282.62C888.862 280.427 889.445 278.63 890.239 277.23C891.032 275.83 892 274.803 893.144 274.15C894.31 273.497 895.617 273.17 897.064 273.17C897.88 273.17 898.615 273.275 899.269 273.485C899.945 273.672 900.54 273.987 901.054 274.43C901.567 274.85 901.975 275.387 902.279 276.04H902.489L903.434 273.59H905.954L905.184 277.93C905.044 278.723 904.88 279.587 904.694 280.52C904.53 281.453 904.367 282.387 904.204 283.32C904.04 284.23 903.889 285.082 903.749 285.875C903.632 286.645 903.527 287.31 903.434 287.87C903.364 288.407 903.329 288.745 903.329 288.885C903.329 289.188 903.41 289.422 903.574 289.585C903.737 289.725 903.97 289.795 904.274 289.795H905.674L905.324 291.825C905.09 291.942 904.775 292.058 904.379 292.175C904.005 292.315 903.562 292.385 903.049 292.385C902.395 292.385 901.87 292.245 901.474 291.965C901.077 291.662 900.809 291.23 900.669 290.67C900.622 290.483 900.587 290.273 900.564 290.04C900.54 289.807 900.529 289.573 900.529 289.34L900.319 289.27C899.549 290.343 898.627 291.137 897.554 291.65C896.504 292.163 895.372 292.42 894.159 292.42ZM895.279 289.725C895.885 289.725 896.492 289.62 897.099 289.41C897.705 289.177 898.277 288.803 898.814 288.29C899.35 287.777 899.829 287.1 900.249 286.26C900.669 285.397 900.984 284.335 901.194 283.075C901.287 282.608 901.345 282.2 901.369 281.85C901.415 281.477 901.45 281.15 901.474 280.87C901.497 280.59 901.509 280.345 901.509 280.135C901.509 279.202 901.369 278.42 901.089 277.79C900.832 277.137 900.412 276.658 899.829 276.355C899.269 276.028 898.534 275.865 897.624 275.865C896.62 275.865 895.734 276.075 894.964 276.495C894.194 276.915 893.54 277.615 893.004 278.595C892.467 279.552 892.047 280.835 891.744 282.445C891.65 282.982 891.58 283.448 891.534 283.845C891.487 284.218 891.452 284.557 891.429 284.86C891.405 285.14 891.394 285.408 891.394 285.665C891.394 287.065 891.709 288.092 892.339 288.745C892.992 289.398 893.972 289.725 895.279 289.725ZM913.358 298.37C912.168 298.37 911.094 298.207 910.138 297.88C909.181 297.577 908.423 297.11 907.863 296.48C907.326 295.873 907.058 295.103 907.058 294.17C907.058 294.007 907.069 293.82 907.093 293.61C907.116 293.4 907.163 293.155 907.233 292.875H910.208C910.184 292.992 910.161 293.097 910.138 293.19C910.138 293.307 910.138 293.4 910.138 293.47C910.138 294.03 910.289 294.485 910.593 294.835C910.919 295.185 911.339 295.43 911.853 295.57C912.389 295.71 912.973 295.78 913.603 295.78C914.769 295.78 915.761 295.582 916.578 295.185C917.418 294.788 918.094 294.182 918.608 293.365C919.121 292.572 919.483 291.58 919.693 290.39C919.739 290.133 919.774 289.888 919.798 289.655C919.844 289.398 919.891 289.177 919.938 288.99H919.693C919.203 289.62 918.654 290.145 918.048 290.565C917.441 290.962 916.788 291.253 916.088 291.44C915.411 291.627 914.711 291.72 913.988 291.72C912.751 291.72 911.678 291.487 910.768 291.02C909.881 290.53 909.193 289.807 908.703 288.85C908.213 287.87 907.968 286.633 907.968 285.14C907.968 284.72 907.991 284.277 908.038 283.81C908.084 283.32 908.154 282.807 908.248 282.27C908.808 279.073 909.823 276.763 911.293 275.34C912.786 273.893 914.618 273.17 916.788 273.17C918.094 273.17 919.203 273.427 920.113 273.94C921.046 274.43 921.758 275.188 922.248 276.215H922.493L923.228 273.59H925.713L922.843 290.075C922.493 292.058 921.921 293.657 921.128 294.87C920.358 296.083 919.331 296.97 918.048 297.53C916.788 298.09 915.224 298.37 913.358 298.37ZM915.143 289.025C915.773 289.025 916.391 288.92 916.998 288.71C917.628 288.5 918.211 288.15 918.748 287.66C919.284 287.17 919.751 286.528 920.148 285.735C920.544 284.918 920.836 283.915 921.023 282.725C921.093 282.258 921.151 281.862 921.198 281.535C921.244 281.208 921.279 280.917 921.303 280.66C921.326 280.403 921.338 280.158 921.338 279.925C921.338 279.038 921.198 278.292 920.918 277.685C920.638 277.078 920.206 276.623 919.623 276.32C919.039 276.017 918.293 275.865 917.383 275.865C916.426 275.865 915.551 276.063 914.758 276.46C913.964 276.857 913.288 277.51 912.728 278.42C912.168 279.33 911.759 280.555 911.503 282.095C911.433 282.608 911.363 283.052 911.293 283.425C911.246 283.798 911.211 284.113 911.188 284.37C911.188 284.603 911.188 284.837 911.188 285.07C911.188 285.98 911.328 286.727 911.608 287.31C911.888 287.893 912.319 288.325 912.903 288.605C913.509 288.885 914.256 289.025 915.143 289.025ZM934.871 292.42C933.261 292.42 931.908 292.175 930.811 291.685C929.714 291.172 928.874 290.413 928.291 289.41C927.731 288.383 927.451 287.088 927.451 285.525C927.451 285.058 927.474 284.58 927.521 284.09C927.591 283.577 927.673 283.052 927.766 282.515C928.139 280.345 928.758 278.583 929.621 277.23C930.484 275.853 931.581 274.838 932.911 274.185C934.264 273.508 935.839 273.17 937.636 273.17C939.269 273.17 940.634 273.427 941.731 273.94C942.828 274.43 943.656 275.188 944.216 276.215C944.776 277.242 945.056 278.548 945.056 280.135C945.056 280.578 945.033 281.045 944.986 281.535C944.939 282.025 944.869 282.538 944.776 283.075C944.403 285.222 943.784 286.983 942.921 288.36C942.058 289.737 940.961 290.763 939.631 291.44C938.301 292.093 936.714 292.42 934.871 292.42ZM935.011 289.83C936.178 289.83 937.193 289.597 938.056 289.13C938.943 288.663 939.666 287.94 940.226 286.96C940.809 285.957 941.229 284.697 941.486 283.18C941.579 282.643 941.649 282.2 941.696 281.85C941.743 281.477 941.778 281.162 941.801 280.905C941.824 280.625 941.836 280.368 941.836 280.135C941.836 279.132 941.673 278.315 941.346 277.685C941.019 277.032 940.529 276.553 939.876 276.25C939.246 275.923 938.441 275.76 937.461 275.76C936.294 275.76 935.279 276.005 934.416 276.495C933.553 276.962 932.841 277.685 932.281 278.665C931.721 279.622 931.301 280.87 931.021 282.41C930.928 282.947 930.846 283.402 930.776 283.775C930.729 284.148 930.694 284.463 930.671 284.72C930.648 284.977 930.636 285.222 930.636 285.455C930.636 286.482 930.799 287.31 931.126 287.94C931.453 288.57 931.943 289.048 932.596 289.375C933.249 289.678 934.054 289.83 935.011 289.83ZM947.062 292L950.282 273.59H952.697L952.522 276.355H952.767C953.374 275.632 954.027 275.037 954.727 274.57C955.45 274.08 956.197 273.73 956.967 273.52C957.737 273.287 958.519 273.17 959.312 273.17C960.315 273.17 961.202 273.322 961.972 273.625C962.742 273.928 963.349 274.407 963.792 275.06C964.235 275.713 964.457 276.588 964.457 277.685C964.457 278.012 964.434 278.362 964.387 278.735C964.364 279.108 964.317 279.493 964.247 279.89L962.112 292H959.032L961.132 280.065C961.179 279.762 961.214 279.482 961.237 279.225C961.284 278.945 961.307 278.7 961.307 278.49C961.307 277.813 961.167 277.288 960.887 276.915C960.63 276.542 960.269 276.285 959.802 276.145C959.335 275.982 958.787 275.9 958.157 275.9C957.48 275.9 956.804 276.028 956.127 276.285C955.474 276.518 954.855 276.88 954.272 277.37C953.712 277.86 953.222 278.478 952.802 279.225C952.382 279.972 952.09 280.823 951.927 281.78L950.142 292H947.062Z" fill="white"/>
<path d="M213.21 397L222.45 372.99H228.89L238.13 397H232.495L230.78 392.275H220.315L218.6 397H213.21ZM221.82 388.075H229.275L227.14 382.16C227.047 381.903 226.93 381.6 226.79 381.25C226.673 380.877 226.545 380.468 226.405 380.025C226.265 379.582 226.125 379.15 225.985 378.73C225.868 378.287 225.752 377.89 225.635 377.54H225.425C225.308 377.983 225.157 378.508 224.97 379.115C224.783 379.698 224.597 380.27 224.41 380.83C224.223 381.367 224.072 381.81 223.955 382.16L221.82 388.075ZM247.077 397.42C245.56 397.42 244.242 397.082 243.122 396.405C242.025 395.705 241.174 394.643 240.567 393.22C239.96 391.797 239.657 389.977 239.657 387.76C239.657 385.543 239.96 383.735 240.567 382.335C241.197 380.912 242.049 379.862 243.122 379.185C244.219 378.508 245.479 378.17 246.902 378.17C247.695 378.17 248.43 378.263 249.107 378.45C249.807 378.613 250.414 378.882 250.927 379.255C251.464 379.628 251.919 380.083 252.292 380.62H252.502V371.695H257.367V397H253.377L252.992 394.515H252.747C252.14 395.495 251.347 396.23 250.367 396.72C249.387 397.187 248.29 397.42 247.077 397.42ZM248.617 393.43C249.527 393.43 250.262 393.22 250.822 392.8C251.405 392.38 251.837 391.773 252.117 390.98C252.397 390.187 252.537 389.242 252.537 388.145V387.515C252.537 386.698 252.455 385.952 252.292 385.275C252.152 384.598 251.919 384.038 251.592 383.595C251.265 383.128 250.857 382.778 250.367 382.545C249.877 382.288 249.294 382.16 248.617 382.16C247.637 382.16 246.855 382.358 246.272 382.755C245.689 383.128 245.269 383.712 245.012 384.505C244.755 385.275 244.627 386.243 244.627 387.41V388.215C244.627 389.382 244.755 390.35 245.012 391.12C245.269 391.89 245.689 392.473 246.272 392.87C246.855 393.243 247.637 393.43 248.617 393.43ZM261.861 397V378.59H265.886L266.271 381.46H266.516C266.749 380.853 267.053 380.305 267.426 379.815C267.799 379.302 268.266 378.893 268.826 378.59C269.386 378.287 270.039 378.135 270.786 378.135C271.183 378.135 271.544 378.182 271.871 378.275C272.198 378.345 272.443 378.415 272.606 378.485V382.895H271.101C270.378 382.895 269.736 383 269.176 383.21C268.639 383.397 268.184 383.7 267.811 384.12C267.438 384.54 267.158 385.053 266.971 385.66C266.808 386.267 266.726 386.978 266.726 387.795V397H261.861ZM283.18 397.42C281.15 397.42 279.447 397.082 278.07 396.405C276.694 395.705 275.655 394.643 274.955 393.22C274.255 391.797 273.905 389.988 273.905 387.795C273.905 385.578 274.255 383.77 274.955 382.37C275.655 380.947 276.682 379.897 278.035 379.22C279.412 378.52 281.092 378.17 283.075 378.17C284.942 378.17 286.517 378.508 287.8 379.185C289.084 379.838 290.052 380.865 290.705 382.265C291.359 383.642 291.685 385.427 291.685 387.62V388.88H278.84C278.887 389.953 279.05 390.863 279.33 391.61C279.634 392.357 280.089 392.917 280.695 393.29C281.325 393.64 282.154 393.815 283.18 393.815C283.74 393.815 284.242 393.745 284.685 393.605C285.152 393.465 285.549 393.255 285.875 392.975C286.202 392.695 286.459 392.345 286.645 391.925C286.832 391.505 286.925 391.027 286.925 390.49H291.685C291.685 391.657 291.475 392.672 291.055 393.535C290.635 394.398 290.052 395.122 289.305 395.705C288.559 396.265 287.66 396.697 286.61 397C285.584 397.28 284.44 397.42 283.18 397.42ZM278.91 385.8H286.68C286.68 385.1 286.587 384.493 286.4 383.98C286.237 383.467 286.004 383.047 285.7 382.72C285.397 382.393 285.024 382.16 284.58 382.02C284.16 381.857 283.682 381.775 283.145 381.775C282.259 381.775 281.512 381.927 280.905 382.23C280.322 382.51 279.867 382.953 279.54 383.56C279.237 384.143 279.027 384.89 278.91 385.8ZM302.71 397.42C301.426 397.42 300.271 397.28 299.245 397C298.218 396.72 297.343 396.335 296.62 395.845C295.896 395.332 295.336 394.725 294.94 394.025C294.566 393.325 294.38 392.532 294.38 391.645C294.38 391.552 294.38 391.458 294.38 391.365C294.38 391.272 294.391 391.202 294.415 391.155H299.105C299.105 391.202 299.105 391.248 299.105 391.295C299.105 391.342 299.105 391.388 299.105 391.435C299.128 392.018 299.315 392.497 299.665 392.87C300.015 393.22 300.47 393.477 301.03 393.64C301.613 393.803 302.22 393.885 302.85 393.885C303.41 393.885 303.946 393.838 304.46 393.745C304.996 393.628 305.44 393.43 305.79 393.15C306.163 392.87 306.35 392.508 306.35 392.065C306.35 391.505 306.116 391.073 305.65 390.77C305.206 390.467 304.611 390.222 303.865 390.035C303.141 389.848 302.348 389.638 301.485 389.405C300.691 389.218 299.898 389.008 299.105 388.775C298.311 388.518 297.588 388.192 296.935 387.795C296.305 387.398 295.791 386.885 295.395 386.255C294.998 385.602 294.8 384.785 294.8 383.805C294.8 382.848 295.01 382.02 295.43 381.32C295.85 380.597 296.421 380.002 297.145 379.535C297.891 379.068 298.755 378.73 299.735 378.52C300.738 378.287 301.811 378.17 302.955 378.17C304.028 378.17 305.031 378.287 305.965 378.52C306.898 378.73 307.715 379.057 308.415 379.5C309.115 379.92 309.663 380.457 310.06 381.11C310.456 381.74 310.655 382.452 310.655 383.245C310.655 383.408 310.655 383.56 310.655 383.7C310.655 383.84 310.643 383.933 310.62 383.98H305.965V383.7C305.965 383.28 305.836 382.93 305.58 382.65C305.323 382.347 304.95 382.113 304.46 381.95C303.993 381.787 303.421 381.705 302.745 381.705C302.278 381.705 301.846 381.74 301.45 381.81C301.076 381.88 300.75 381.985 300.47 382.125C300.19 382.265 299.968 382.44 299.805 382.65C299.665 382.837 299.595 383.07 299.595 383.35C299.595 383.747 299.758 384.073 300.085 384.33C300.435 384.563 300.89 384.762 301.45 384.925C302.01 385.088 302.628 385.263 303.305 385.45C304.145 385.683 305.02 385.917 305.93 386.15C306.863 386.36 307.726 386.652 308.52 387.025C309.313 387.398 309.955 387.935 310.445 388.635C310.935 389.312 311.18 390.233 311.18 391.4C311.18 392.52 310.958 393.465 310.515 394.235C310.095 395.005 309.5 395.623 308.73 396.09C307.96 396.557 307.061 396.895 306.035 397.105C305.008 397.315 303.9 397.42 302.71 397.42ZM322.158 397.42C320.875 397.42 319.72 397.28 318.693 397C317.666 396.72 316.791 396.335 316.068 395.845C315.345 395.332 314.785 394.725 314.388 394.025C314.015 393.325 313.828 392.532 313.828 391.645C313.828 391.552 313.828 391.458 313.828 391.365C313.828 391.272 313.84 391.202 313.863 391.155H318.553C318.553 391.202 318.553 391.248 318.553 391.295C318.553 391.342 318.553 391.388 318.553 391.435C318.576 392.018 318.763 392.497 319.113 392.87C319.463 393.22 319.918 393.477 320.478 393.64C321.061 393.803 321.668 393.885 322.298 393.885C322.858 393.885 323.395 393.838 323.908 393.745C324.445 393.628 324.888 393.43 325.238 393.15C325.611 392.87 325.798 392.508 325.798 392.065C325.798 391.505 325.565 391.073 325.098 390.77C324.655 390.467 324.06 390.222 323.313 390.035C322.59 389.848 321.796 389.638 320.933 389.405C320.14 389.218 319.346 389.008 318.553 388.775C317.76 388.518 317.036 388.192 316.383 387.795C315.753 387.398 315.24 386.885 314.843 386.255C314.446 385.602 314.248 384.785 314.248 383.805C314.248 382.848 314.458 382.02 314.878 381.32C315.298 380.597 315.87 380.002 316.593 379.535C317.34 379.068 318.203 378.73 319.183 378.52C320.186 378.287 321.26 378.17 322.403 378.17C323.476 378.17 324.48 378.287 325.413 378.52C326.346 378.73 327.163 379.057 327.863 379.5C328.563 379.92 329.111 380.457 329.508 381.11C329.905 381.74 330.103 382.452 330.103 383.245C330.103 383.408 330.103 383.56 330.103 383.7C330.103 383.84 330.091 383.933 330.068 383.98H325.413V383.7C325.413 383.28 325.285 382.93 325.028 382.65C324.771 382.347 324.398 382.113 323.908 381.95C323.441 381.787 322.87 381.705 322.193 381.705C321.726 381.705 321.295 381.74 320.898 381.81C320.525 381.88 320.198 381.985 319.918 382.125C319.638 382.265 319.416 382.44 319.253 382.65C319.113 382.837 319.043 383.07 319.043 383.35C319.043 383.747 319.206 384.073 319.533 384.33C319.883 384.563 320.338 384.762 320.898 384.925C321.458 385.088 322.076 385.263 322.753 385.45C323.593 385.683 324.468 385.917 325.378 386.15C326.311 386.36 327.175 386.652 327.968 387.025C328.761 387.398 329.403 387.935 329.893 388.635C330.383 389.312 330.628 390.233 330.628 391.4C330.628 392.52 330.406 393.465 329.963 394.235C329.543 395.005 328.948 395.623 328.178 396.09C327.408 396.557 326.51 396.895 325.483 397.105C324.456 397.315 323.348 397.42 322.158 397.42ZM374.942 397.42C373.285 397.42 371.897 397.175 370.777 396.685C369.68 396.172 368.852 395.402 368.292 394.375C367.755 393.325 367.487 392.042 367.487 390.525C367.487 389.895 367.522 389.265 367.592 388.635C367.662 387.982 367.755 387.363 367.872 386.78C368.222 385.123 368.77 383.653 369.517 382.37C370.263 381.063 371.267 380.037 372.527 379.29C373.81 378.543 375.397 378.17 377.287 378.17C378.873 378.17 380.18 378.438 381.207 378.975C382.257 379.488 383.027 380.235 383.517 381.215C384.03 382.195 384.287 383.397 384.287 384.82C384.287 385.357 384.24 385.952 384.147 386.605C384.077 387.258 383.96 387.912 383.797 388.565H370.812C370.765 388.915 370.718 389.253 370.672 389.58C370.648 389.883 370.637 390.175 370.637 390.455C370.637 391.482 370.788 392.322 371.092 392.975C371.418 393.628 371.908 394.107 372.562 394.41C373.215 394.713 374.02 394.865 374.977 394.865C375.583 394.865 376.167 394.795 376.727 394.655C377.287 394.492 377.8 394.247 378.267 393.92C378.733 393.593 379.142 393.173 379.492 392.66C379.842 392.123 380.11 391.482 380.297 390.735H383.307C383.073 391.855 382.7 392.835 382.187 393.675C381.673 394.515 381.055 395.215 380.332 395.775C379.608 396.312 378.78 396.72 377.847 397C376.937 397.28 375.968 397.42 374.942 397.42ZM371.232 386.255H381.032C381.102 385.928 381.148 385.625 381.172 385.345C381.195 385.065 381.207 384.797 381.207 384.54C381.207 383.677 381.055 382.965 380.752 382.405C380.472 381.845 380.04 381.425 379.457 381.145C378.873 380.842 378.138 380.69 377.252 380.69C376.225 380.69 375.315 380.912 374.522 381.355C373.728 381.775 373.052 382.393 372.492 383.21C371.955 384.027 371.535 385.042 371.232 386.255ZM386.242 397L389.462 378.59H391.877L391.702 381.355H391.947C392.553 380.632 393.207 380.037 393.907 379.57C394.63 379.08 395.377 378.73 396.147 378.52C396.917 378.287 397.698 378.17 398.492 378.17C399.495 378.17 400.382 378.322 401.152 378.625C401.922 378.928 402.528 379.407 402.972 380.06C403.415 380.713 403.637 381.588 403.637 382.685C403.637 383.012 403.613 383.362 403.567 383.735C403.543 384.108 403.497 384.493 403.427 384.89L401.292 397H398.212L400.312 385.065C400.358 384.762 400.393 384.482 400.417 384.225C400.463 383.945 400.487 383.7 400.487 383.49C400.487 382.813 400.347 382.288 400.067 381.915C399.81 381.542 399.448 381.285 398.982 381.145C398.515 380.982 397.967 380.9 397.337 380.9C396.66 380.9 395.983 381.028 395.307 381.285C394.653 381.518 394.035 381.88 393.452 382.37C392.892 382.86 392.402 383.478 391.982 384.225C391.562 384.972 391.27 385.823 391.107 386.78L389.322 397H386.242ZM413.838 397.42C412.182 397.42 410.793 397.175 409.673 396.685C408.577 396.172 407.748 395.402 407.188 394.375C406.652 393.325 406.383 392.042 406.383 390.525C406.383 389.895 406.418 389.265 406.488 388.635C406.558 387.982 406.652 387.363 406.768 386.78C407.118 385.123 407.667 383.653 408.413 382.37C409.16 381.063 410.163 380.037 411.423 379.29C412.707 378.543 414.293 378.17 416.183 378.17C417.77 378.17 419.077 378.438 420.103 378.975C421.153 379.488 421.923 380.235 422.413 381.215C422.927 382.195 423.183 383.397 423.183 384.82C423.183 385.357 423.137 385.952 423.043 386.605C422.973 387.258 422.857 387.912 422.693 388.565H409.708C409.662 388.915 409.615 389.253 409.568 389.58C409.545 389.883 409.533 390.175 409.533 390.455C409.533 391.482 409.685 392.322 409.988 392.975C410.315 393.628 410.805 394.107 411.458 394.41C412.112 394.713 412.917 394.865 413.873 394.865C414.48 394.865 415.063 394.795 415.623 394.655C416.183 394.492 416.697 394.247 417.163 393.92C417.63 393.593 418.038 393.173 418.388 392.66C418.738 392.123 419.007 391.482 419.193 390.735H422.203C421.97 391.855 421.597 392.835 421.083 393.675C420.57 394.515 419.952 395.215 419.228 395.775C418.505 396.312 417.677 396.72 416.743 397C415.833 397.28 414.865 397.42 413.838 397.42ZM410.128 386.255H419.928C419.998 385.928 420.045 385.625 420.068 385.345C420.092 385.065 420.103 384.797 420.103 384.54C420.103 383.677 419.952 382.965 419.648 382.405C419.368 381.845 418.937 381.425 418.353 381.145C417.77 380.842 417.035 380.69 416.148 380.69C415.122 380.69 414.212 380.912 413.418 381.355C412.625 381.775 411.948 382.393 411.388 383.21C410.852 384.027 410.432 385.042 410.128 386.255ZM431.263 397.42C430.05 397.42 428.988 397.175 428.078 396.685C427.191 396.195 426.503 395.46 426.013 394.48C425.523 393.5 425.278 392.252 425.278 390.735C425.278 390.268 425.301 389.778 425.348 389.265C425.418 388.752 425.5 388.203 425.593 387.62C425.966 385.427 426.55 383.63 427.343 382.23C428.136 380.83 429.105 379.803 430.248 379.15C431.415 378.497 432.721 378.17 434.168 378.17C434.985 378.17 435.72 378.275 436.373 378.485C437.05 378.672 437.645 378.987 438.158 379.43C438.671 379.85 439.08 380.387 439.383 381.04H439.593L440.538 378.59H443.058L442.288 382.93C442.148 383.723 441.985 384.587 441.798 385.52C441.635 386.453 441.471 387.387 441.308 388.32C441.145 389.23 440.993 390.082 440.853 390.875C440.736 391.645 440.631 392.31 440.538 392.87C440.468 393.407 440.433 393.745 440.433 393.885C440.433 394.188 440.515 394.422 440.678 394.585C440.841 394.725 441.075 394.795 441.378 394.795H442.778L442.428 396.825C442.195 396.942 441.88 397.058 441.483 397.175C441.11 397.315 440.666 397.385 440.153 397.385C439.5 397.385 438.975 397.245 438.578 396.965C438.181 396.662 437.913 396.23 437.773 395.67C437.726 395.483 437.691 395.273 437.668 395.04C437.645 394.807 437.633 394.573 437.633 394.34L437.423 394.27C436.653 395.343 435.731 396.137 434.658 396.65C433.608 397.163 432.476 397.42 431.263 397.42ZM432.383 394.725C432.99 394.725 433.596 394.62 434.203 394.41C434.81 394.177 435.381 393.803 435.918 393.29C436.455 392.777 436.933 392.1 437.353 391.26C437.773 390.397 438.088 389.335 438.298 388.075C438.391 387.608 438.45 387.2 438.473 386.85C438.52 386.477 438.555 386.15 438.578 385.87C438.601 385.59 438.613 385.345 438.613 385.135C438.613 384.202 438.473 383.42 438.193 382.79C437.936 382.137 437.516 381.658 436.933 381.355C436.373 381.028 435.638 380.865 434.728 380.865C433.725 380.865 432.838 381.075 432.068 381.495C431.298 381.915 430.645 382.615 430.108 383.595C429.571 384.552 429.151 385.835 428.848 387.445C428.755 387.982 428.685 388.448 428.638 388.845C428.591 389.218 428.556 389.557 428.533 389.86C428.51 390.14 428.498 390.408 428.498 390.665C428.498 392.065 428.813 393.092 429.443 393.745C430.096 394.398 431.076 394.725 432.383 394.725ZM450.462 403.37C449.272 403.37 448.199 403.207 447.242 402.88C446.285 402.577 445.527 402.11 444.967 401.48C444.43 400.873 444.162 400.103 444.162 399.17C444.162 399.007 444.174 398.82 444.197 398.61C444.22 398.4 444.267 398.155 444.337 397.875H447.312C447.289 397.992 447.265 398.097 447.242 398.19C447.242 398.307 447.242 398.4 447.242 398.47C447.242 399.03 447.394 399.485 447.697 399.835C448.024 400.185 448.444 400.43 448.957 400.57C449.494 400.71 450.077 400.78 450.707 400.78C451.874 400.78 452.865 400.582 453.682 400.185C454.522 399.788 455.199 399.182 455.712 398.365C456.225 397.572 456.587 396.58 456.797 395.39C456.844 395.133 456.879 394.888 456.902 394.655C456.949 394.398 456.995 394.177 457.042 393.99H456.797C456.307 394.62 455.759 395.145 455.152 395.565C454.545 395.962 453.892 396.253 453.192 396.44C452.515 396.627 451.815 396.72 451.092 396.72C449.855 396.72 448.782 396.487 447.872 396.02C446.985 395.53 446.297 394.807 445.807 393.85C445.317 392.87 445.072 391.633 445.072 390.14C445.072 389.72 445.095 389.277 445.142 388.81C445.189 388.32 445.259 387.807 445.352 387.27C445.912 384.073 446.927 381.763 448.397 380.34C449.89 378.893 451.722 378.17 453.892 378.17C455.199 378.17 456.307 378.427 457.217 378.94C458.15 379.43 458.862 380.188 459.352 381.215H459.597L460.332 378.59H462.817L459.947 395.075C459.597 397.058 459.025 398.657 458.232 399.87C457.462 401.083 456.435 401.97 455.152 402.53C453.892 403.09 452.329 403.37 450.462 403.37ZM452.247 394.025C452.877 394.025 453.495 393.92 454.102 393.71C454.732 393.5 455.315 393.15 455.852 392.66C456.389 392.17 456.855 391.528 457.252 390.735C457.649 389.918 457.94 388.915 458.127 387.725C458.197 387.258 458.255 386.862 458.302 386.535C458.349 386.208 458.384 385.917 458.407 385.66C458.43 385.403 458.442 385.158 458.442 384.925C458.442 384.038 458.302 383.292 458.022 382.685C457.742 382.078 457.31 381.623 456.727 381.32C456.144 381.017 455.397 380.865 454.487 380.865C453.53 380.865 452.655 381.063 451.862 381.46C451.069 381.857 450.392 382.51 449.832 383.42C449.272 384.33 448.864 385.555 448.607 387.095C448.537 387.608 448.467 388.052 448.397 388.425C448.35 388.798 448.315 389.113 448.292 389.37C448.292 389.603 448.292 389.837 448.292 390.07C448.292 390.98 448.432 391.727 448.712 392.31C448.992 392.893 449.424 393.325 450.007 393.605C450.614 393.885 451.36 394.025 452.247 394.025ZM471.975 397.42C470.365 397.42 469.012 397.175 467.915 396.685C466.819 396.172 465.979 395.413 465.395 394.41C464.835 393.383 464.555 392.088 464.555 390.525C464.555 390.058 464.579 389.58 464.625 389.09C464.695 388.577 464.777 388.052 464.87 387.515C465.244 385.345 465.862 383.583 466.725 382.23C467.589 380.853 468.685 379.838 470.015 379.185C471.369 378.508 472.944 378.17 474.74 378.17C476.374 378.17 477.739 378.427 478.835 378.94C479.932 379.43 480.76 380.188 481.32 381.215C481.88 382.242 482.16 383.548 482.16 385.135C482.16 385.578 482.137 386.045 482.09 386.535C482.044 387.025 481.974 387.538 481.88 388.075C481.507 390.222 480.889 391.983 480.025 393.36C479.162 394.737 478.065 395.763 476.735 396.44C475.405 397.093 473.819 397.42 471.975 397.42ZM472.115 394.83C473.282 394.83 474.297 394.597 475.16 394.13C476.047 393.663 476.77 392.94 477.33 391.96C477.914 390.957 478.334 389.697 478.59 388.18C478.684 387.643 478.754 387.2 478.8 386.85C478.847 386.477 478.882 386.162 478.905 385.905C478.929 385.625 478.94 385.368 478.94 385.135C478.94 384.132 478.777 383.315 478.45 382.685C478.124 382.032 477.634 381.553 476.98 381.25C476.35 380.923 475.545 380.76 474.565 380.76C473.399 380.76 472.384 381.005 471.52 381.495C470.657 381.962 469.945 382.685 469.385 383.665C468.825 384.622 468.405 385.87 468.125 387.41C468.032 387.947 467.95 388.402 467.88 388.775C467.834 389.148 467.799 389.463 467.775 389.72C467.752 389.977 467.74 390.222 467.74 390.455C467.74 391.482 467.904 392.31 468.23 392.94C468.557 393.57 469.047 394.048 469.7 394.375C470.354 394.678 471.159 394.83 472.115 394.83ZM484.166 397L487.386 378.59H489.801L489.626 381.355H489.871C490.478 380.632 491.131 380.037 491.831 379.57C492.555 379.08 493.301 378.73 494.071 378.52C494.841 378.287 495.623 378.17 496.416 378.17C497.42 378.17 498.306 378.322 499.076 378.625C499.846 378.928 500.453 379.407 500.896 380.06C501.34 380.713 501.561 381.588 501.561 382.685C501.561 383.012 501.538 383.362 501.491 383.735C501.468 384.108 501.421 384.493 501.351 384.89L499.216 397H496.136L498.236 385.065C498.283 384.762 498.318 384.482 498.341 384.225C498.388 383.945 498.411 383.7 498.411 383.49C498.411 382.813 498.271 382.288 497.991 381.915C497.735 381.542 497.373 381.285 496.906 381.145C496.44 380.982 495.891 380.9 495.261 380.9C494.585 380.9 493.908 381.028 493.231 381.285C492.578 381.518 491.96 381.88 491.376 382.37C490.816 382.86 490.326 383.478 489.906 384.225C489.486 384.972 489.195 385.823 489.031 386.78L487.246 397H484.166ZM504.588 397L505.253 393.325H508.683L508.018 397H504.588ZM521.47 397.42C519.813 397.42 518.425 397.175 517.305 396.685C516.208 396.172 515.38 395.402 514.82 394.375C514.283 393.325 514.015 392.042 514.015 390.525C514.015 389.895 514.05 389.265 514.12 388.635C514.19 387.982 514.283 387.363 514.4 386.78C514.75 385.123 515.298 383.653 516.045 382.37C516.792 381.063 517.795 380.037 519.055 379.29C520.338 378.543 521.925 378.17 523.815 378.17C525.402 378.17 526.708 378.438 527.735 378.975C528.785 379.488 529.555 380.235 530.045 381.215C530.558 382.195 530.815 383.397 530.815 384.82C530.815 385.357 530.768 385.952 530.675 386.605C530.605 387.258 530.488 387.912 530.325 388.565H517.34C517.293 388.915 517.247 389.253 517.2 389.58C517.177 389.883 517.165 390.175 517.165 390.455C517.165 391.482 517.317 392.322 517.62 392.975C517.947 393.628 518.437 394.107 519.09 394.41C519.743 394.713 520.548 394.865 521.505 394.865C522.112 394.865 522.695 394.795 523.255 394.655C523.815 394.492 524.328 394.247 524.795 393.92C525.262 393.593 525.67 393.173 526.02 392.66C526.37 392.123 526.638 391.482 526.825 390.735H529.835C529.602 391.855 529.228 392.835 528.715 393.675C528.202 394.515 527.583 395.215 526.86 395.775C526.137 396.312 525.308 396.72 524.375 397C523.465 397.28 522.497 397.42 521.47 397.42ZM517.76 386.255H527.56C527.63 385.928 527.677 385.625 527.7 385.345C527.723 385.065 527.735 384.797 527.735 384.54C527.735 383.677 527.583 382.965 527.28 382.405C527 381.845 526.568 381.425 525.985 381.145C525.402 380.842 524.667 380.69 523.78 380.69C522.753 380.69 521.843 380.912 521.05 381.355C520.257 381.775 519.58 382.393 519.02 383.21C518.483 384.027 518.063 385.042 517.76 386.255ZM537.18 397.42C536.363 397.42 535.722 397.28 535.255 397C534.812 396.743 534.485 396.405 534.275 395.985C534.088 395.565 533.995 395.075 533.995 394.515C533.995 394.352 534.007 394.188 534.03 394.025C534.053 393.838 534.077 393.652 534.1 393.465L536.235 381.18H533.855L534.31 378.59H536.725L538.23 373.445H540.645L539.735 378.59H543.2L542.745 381.18H539.315L537.25 392.765C537.227 392.905 537.192 393.092 537.145 393.325C537.122 393.535 537.11 393.675 537.11 393.745C537.11 394.095 537.215 394.363 537.425 394.55C537.635 394.737 537.962 394.83 538.405 394.83H540.365L540.015 396.86C539.758 396.977 539.467 397.07 539.14 397.14C538.813 397.21 538.475 397.268 538.125 397.315C537.798 397.385 537.483 397.42 537.18 397.42ZM543.16 397L547.605 371.695H550.685L549.075 380.9H549.285C549.845 380.293 550.44 379.792 551.07 379.395C551.724 378.975 552.412 378.672 553.135 378.485C553.882 378.275 554.64 378.17 555.41 378.17C556.414 378.17 557.3 378.322 558.07 378.625C558.84 378.928 559.447 379.407 559.89 380.06C560.334 380.713 560.555 381.588 560.555 382.685C560.555 383.012 560.532 383.362 560.485 383.735C560.462 384.108 560.415 384.493 560.345 384.89L558.21 397H555.13L557.23 385.065C557.277 384.785 557.312 384.517 557.335 384.26C557.382 383.98 557.405 383.723 557.405 383.49C557.405 382.813 557.265 382.288 556.985 381.915C556.729 381.542 556.367 381.285 555.9 381.145C555.434 380.982 554.885 380.9 554.255 380.9C553.579 380.9 552.902 381.028 552.225 381.285C551.549 381.518 550.919 381.88 550.335 382.37C549.775 382.86 549.285 383.478 548.865 384.225C548.469 384.972 548.189 385.823 548.025 386.78L546.24 397H543.16Z" fill="white"/>
<path d="M213.21 502L222.45 477.99H228.89L238.13 502H232.495L230.78 497.275H220.315L218.6 502H213.21ZM221.82 493.075H229.275L227.14 487.16C227.047 486.903 226.93 486.6 226.79 486.25C226.673 485.877 226.545 485.468 226.405 485.025C226.265 484.582 226.125 484.15 225.985 483.73C225.868 483.287 225.752 482.89 225.635 482.54H225.425C225.308 482.983 225.157 483.508 224.97 484.115C224.783 484.698 224.597 485.27 224.41 485.83C224.223 486.367 224.072 486.81 223.955 487.16L221.82 493.075ZM240.567 508.23V483.59H244.557L244.977 486.075H245.222C245.829 485.072 246.622 484.337 247.602 483.87C248.582 483.403 249.667 483.17 250.857 483.17C252.397 483.17 253.715 483.508 254.812 484.185C255.932 484.862 256.784 485.912 257.367 487.335C257.974 488.758 258.277 490.59 258.277 492.83C258.277 495 257.974 496.797 257.367 498.22C256.76 499.643 255.909 500.705 254.812 501.405C253.739 502.082 252.479 502.42 251.032 502.42C250.239 502.42 249.504 502.327 248.827 502.14C248.15 501.977 247.544 501.708 247.007 501.335C246.47 500.962 246.015 500.507 245.642 499.97H245.432V508.23H240.567ZM249.352 498.43C250.332 498.43 251.102 498.243 251.662 497.87C252.245 497.473 252.665 496.89 252.922 496.12C253.179 495.327 253.307 494.358 253.307 493.215V492.41C253.307 491.243 253.179 490.275 252.922 489.505C252.665 488.712 252.245 488.128 251.662 487.755C251.102 487.358 250.332 487.16 249.352 487.16C248.442 487.16 247.695 487.37 247.112 487.79C246.529 488.21 246.097 488.817 245.817 489.61C245.537 490.403 245.397 491.36 245.397 492.48V493.075C245.397 493.892 245.479 494.638 245.642 495.315C245.805 495.968 246.039 496.528 246.342 496.995C246.669 497.462 247.077 497.823 247.567 498.08C248.057 498.313 248.652 498.43 249.352 498.43ZM261.861 508.23V483.59H265.851L266.271 486.075H266.516C267.123 485.072 267.916 484.337 268.896 483.87C269.876 483.403 270.961 483.17 272.151 483.17C273.691 483.17 275.009 483.508 276.106 484.185C277.226 484.862 278.078 485.912 278.661 487.335C279.268 488.758 279.571 490.59 279.571 492.83C279.571 495 279.268 496.797 278.661 498.22C278.054 499.643 277.203 500.705 276.106 501.405C275.033 502.082 273.773 502.42 272.326 502.42C271.533 502.42 270.798 502.327 270.121 502.14C269.444 501.977 268.838 501.708 268.301 501.335C267.764 500.962 267.309 500.507 266.936 499.97H266.726V508.23H261.861ZM270.646 498.43C271.626 498.43 272.396 498.243 272.956 497.87C273.539 497.473 273.959 496.89 274.216 496.12C274.473 495.327 274.601 494.358 274.601 493.215V492.41C274.601 491.243 274.473 490.275 274.216 489.505C273.959 488.712 273.539 488.128 272.956 487.755C272.396 487.358 271.626 487.16 270.646 487.16C269.736 487.16 268.989 487.37 268.406 487.79C267.823 488.21 267.391 488.817 267.111 489.61C266.831 490.403 266.691 491.36 266.691 492.48V493.075C266.691 493.892 266.773 494.638 266.936 495.315C267.099 495.968 267.333 496.528 267.636 496.995C267.963 497.462 268.371 497.823 268.861 498.08C269.351 498.313 269.946 498.43 270.646 498.43ZM323.946 502.42C322.289 502.42 320.901 502.175 319.781 501.685C318.684 501.172 317.856 500.402 317.296 499.375C316.759 498.325 316.491 497.042 316.491 495.525C316.491 494.895 316.526 494.265 316.596 493.635C316.666 492.982 316.759 492.363 316.876 491.78C317.226 490.123 317.774 488.653 318.521 487.37C319.267 486.063 320.271 485.037 321.531 484.29C322.814 483.543 324.401 483.17 326.291 483.17C327.877 483.17 329.184 483.438 330.211 483.975C331.261 484.488 332.031 485.235 332.521 486.215C333.034 487.195 333.291 488.397 333.291 489.82C333.291 490.357 333.244 490.952 333.151 491.605C333.081 492.258 332.964 492.912 332.801 493.565H319.816C319.769 493.915 319.722 494.253 319.676 494.58C319.652 494.883 319.641 495.175 319.641 495.455C319.641 496.482 319.792 497.322 320.096 497.975C320.422 498.628 320.912 499.107 321.566 499.41C322.219 499.713 323.024 499.865 323.981 499.865C324.587 499.865 325.171 499.795 325.731 499.655C326.291 499.492 326.804 499.247 327.271 498.92C327.737 498.593 328.146 498.173 328.496 497.66C328.846 497.123 329.114 496.482 329.301 495.735H332.311C332.077 496.855 331.704 497.835 331.191 498.675C330.677 499.515 330.059 500.215 329.336 500.775C328.612 501.312 327.784 501.72 326.851 502C325.941 502.28 324.972 502.42 323.946 502.42ZM320.236 491.255H330.036C330.106 490.928 330.152 490.625 330.176 490.345C330.199 490.065 330.211 489.797 330.211 489.54C330.211 488.677 330.059 487.965 329.756 487.405C329.476 486.845 329.044 486.425 328.461 486.145C327.877 485.842 327.142 485.69 326.256 485.69C325.229 485.69 324.319 485.912 323.526 486.355C322.732 486.775 322.056 487.393 321.496 488.21C320.959 489.027 320.539 490.042 320.236 491.255ZM335.245 502L338.465 483.59H340.88L340.705 486.355H340.95C341.557 485.632 342.21 485.037 342.91 484.57C343.634 484.08 344.38 483.73 345.15 483.52C345.92 483.287 346.702 483.17 347.495 483.17C348.499 483.17 349.385 483.322 350.155 483.625C350.925 483.928 351.532 484.407 351.975 485.06C352.419 485.713 352.64 486.588 352.64 487.685C352.64 488.012 352.617 488.362 352.57 488.735C352.547 489.108 352.5 489.493 352.43 489.89L350.295 502H347.215L349.315 490.065C349.362 489.762 349.397 489.482 349.42 489.225C349.467 488.945 349.49 488.7 349.49 488.49C349.49 487.813 349.35 487.288 349.07 486.915C348.814 486.542 348.452 486.285 347.985 486.145C347.519 485.982 346.97 485.9 346.34 485.9C345.664 485.9 344.987 486.028 344.31 486.285C343.657 486.518 343.039 486.88 342.455 487.37C341.895 487.86 341.405 488.478 340.985 489.225C340.565 489.972 340.274 490.823 340.11 491.78L338.325 502H335.245ZM362.842 502.42C361.185 502.42 359.797 502.175 358.677 501.685C357.58 501.172 356.752 500.402 356.192 499.375C355.655 498.325 355.387 497.042 355.387 495.525C355.387 494.895 355.422 494.265 355.492 493.635C355.562 492.982 355.655 492.363 355.772 491.78C356.122 490.123 356.67 488.653 357.417 487.37C358.164 486.063 359.167 485.037 360.427 484.29C361.71 483.543 363.297 483.17 365.187 483.17C366.774 483.17 368.08 483.438 369.107 483.975C370.157 484.488 370.927 485.235 371.417 486.215C371.93 487.195 372.187 488.397 372.187 489.82C372.187 490.357 372.14 490.952 372.047 491.605C371.977 492.258 371.86 492.912 371.697 493.565H358.712C358.665 493.915 358.619 494.253 358.572 494.58C358.549 494.883 358.537 495.175 358.537 495.455C358.537 496.482 358.689 497.322 358.992 497.975C359.319 498.628 359.809 499.107 360.462 499.41C361.115 499.713 361.92 499.865 362.877 499.865C363.484 499.865 364.067 499.795 364.627 499.655C365.187 499.492 365.7 499.247 366.167 498.92C366.634 498.593 367.042 498.173 367.392 497.66C367.742 497.123 368.01 496.482 368.197 495.735H371.207C370.974 496.855 370.6 497.835 370.087 498.675C369.574 499.515 368.955 500.215 368.232 500.775C367.509 501.312 366.68 501.72 365.747 502C364.837 502.28 363.869 502.42 362.842 502.42ZM359.132 491.255H368.932C369.002 490.928 369.049 490.625 369.072 490.345C369.095 490.065 369.107 489.797 369.107 489.54C369.107 488.677 368.955 487.965 368.652 487.405C368.372 486.845 367.94 486.425 367.357 486.145C366.774 485.842 366.039 485.69 365.152 485.69C364.125 485.69 363.215 485.912 362.422 486.355C361.629 486.775 360.952 487.393 360.392 488.21C359.855 489.027 359.435 490.042 359.132 491.255ZM380.267 502.42C379.054 502.42 377.992 502.175 377.082 501.685C376.195 501.195 375.507 500.46 375.017 499.48C374.527 498.5 374.282 497.252 374.282 495.735C374.282 495.268 374.305 494.778 374.352 494.265C374.422 493.752 374.504 493.203 374.597 492.62C374.97 490.427 375.554 488.63 376.347 487.23C377.14 485.83 378.109 484.803 379.252 484.15C380.419 483.497 381.725 483.17 383.172 483.17C383.989 483.17 384.724 483.275 385.377 483.485C386.054 483.672 386.649 483.987 387.162 484.43C387.675 484.85 388.084 485.387 388.387 486.04H388.597L389.542 483.59H392.062L391.292 487.93C391.152 488.723 390.989 489.587 390.802 490.52C390.639 491.453 390.475 492.387 390.312 493.32C390.149 494.23 389.997 495.082 389.857 495.875C389.74 496.645 389.635 497.31 389.542 497.87C389.472 498.407 389.437 498.745 389.437 498.885C389.437 499.188 389.519 499.422 389.682 499.585C389.845 499.725 390.079 499.795 390.382 499.795H391.782L391.432 501.825C391.199 501.942 390.884 502.058 390.487 502.175C390.114 502.315 389.67 502.385 389.157 502.385C388.504 502.385 387.979 502.245 387.582 501.965C387.185 501.662 386.917 501.23 386.777 500.67C386.73 500.483 386.695 500.273 386.672 500.04C386.649 499.807 386.637 499.573 386.637 499.34L386.427 499.27C385.657 500.343 384.735 501.137 383.662 501.65C382.612 502.163 381.48 502.42 380.267 502.42ZM381.387 499.725C381.994 499.725 382.6 499.62 383.207 499.41C383.814 499.177 384.385 498.803 384.922 498.29C385.459 497.777 385.937 497.1 386.357 496.26C386.777 495.397 387.092 494.335 387.302 493.075C387.395 492.608 387.454 492.2 387.477 491.85C387.524 491.477 387.559 491.15 387.582 490.87C387.605 490.59 387.617 490.345 387.617 490.135C387.617 489.202 387.477 488.42 387.197 487.79C386.94 487.137 386.52 486.658 385.937 486.355C385.377 486.028 384.642 485.865 383.732 485.865C382.729 485.865 381.842 486.075 381.072 486.495C380.302 486.915 379.649 487.615 379.112 488.595C378.575 489.552 378.155 490.835 377.852 492.445C377.759 492.982 377.689 493.448 377.642 493.845C377.595 494.218 377.56 494.557 377.537 494.86C377.514 495.14 377.502 495.408 377.502 495.665C377.502 497.065 377.817 498.092 378.447 498.745C379.1 499.398 380.08 499.725 381.387 499.725ZM399.466 508.37C398.276 508.37 397.203 508.207 396.246 507.88C395.289 507.577 394.531 507.11 393.971 506.48C393.434 505.873 393.166 505.103 393.166 504.17C393.166 504.007 393.178 503.82 393.201 503.61C393.224 503.4 393.271 503.155 393.341 502.875H396.316C396.293 502.992 396.269 503.097 396.246 503.19C396.246 503.307 396.246 503.4 396.246 503.47C396.246 504.03 396.398 504.485 396.701 504.835C397.028 505.185 397.448 505.43 397.961 505.57C398.498 505.71 399.081 505.78 399.711 505.78C400.878 505.78 401.869 505.582 402.686 505.185C403.526 504.788 404.203 504.182 404.716 503.365C405.229 502.572 405.591 501.58 405.801 500.39C405.848 500.133 405.883 499.888 405.906 499.655C405.953 499.398 405.999 499.177 406.046 498.99H405.801C405.311 499.62 404.763 500.145 404.156 500.565C403.549 500.962 402.896 501.253 402.196 501.44C401.519 501.627 400.819 501.72 400.096 501.72C398.859 501.72 397.786 501.487 396.876 501.02C395.989 500.53 395.301 499.807 394.811 498.85C394.321 497.87 394.076 496.633 394.076 495.14C394.076 494.72 394.099 494.277 394.146 493.81C394.193 493.32 394.263 492.807 394.356 492.27C394.916 489.073 395.931 486.763 397.401 485.34C398.894 483.893 400.726 483.17 402.896 483.17C404.203 483.17 405.311 483.427 406.221 483.94C407.154 484.43 407.866 485.188 408.356 486.215H408.601L409.336 483.59H411.821L408.951 500.075C408.601 502.058 408.029 503.657 407.236 504.87C406.466 506.083 405.439 506.97 404.156 507.53C402.896 508.09 401.333 508.37 399.466 508.37ZM401.251 499.025C401.881 499.025 402.499 498.92 403.106 498.71C403.736 498.5 404.319 498.15 404.856 497.66C405.393 497.17 405.859 496.528 406.256 495.735C406.653 494.918 406.944 493.915 407.131 492.725C407.201 492.258 407.259 491.862 407.306 491.535C407.353 491.208 407.388 490.917 407.411 490.66C407.434 490.403 407.446 490.158 407.446 489.925C407.446 489.038 407.306 488.292 407.026 487.685C406.746 487.078 406.314 486.623 405.731 486.32C405.148 486.017 404.401 485.865 403.491 485.865C402.534 485.865 401.659 486.063 400.866 486.46C400.073 486.857 399.396 487.51 398.836 488.42C398.276 489.33 397.868 490.555 397.611 492.095C397.541 492.608 397.471 493.052 397.401 493.425C397.354 493.798 397.319 494.113 397.296 494.37C397.296 494.603 397.296 494.837 397.296 495.07C397.296 495.98 397.436 496.727 397.716 497.31C397.996 497.893 398.428 498.325 399.011 498.605C399.618 498.885 400.364 499.025 401.251 499.025ZM420.979 502.42C419.369 502.42 418.016 502.175 416.919 501.685C415.823 501.172 414.983 500.413 414.399 499.41C413.839 498.383 413.559 497.088 413.559 495.525C413.559 495.058 413.583 494.58 413.629 494.09C413.699 493.577 413.781 493.052 413.874 492.515C414.248 490.345 414.866 488.583 415.729 487.23C416.593 485.853 417.689 484.838 419.019 484.185C420.373 483.508 421.948 483.17 423.744 483.17C425.378 483.17 426.743 483.427 427.839 483.94C428.936 484.43 429.764 485.188 430.324 486.215C430.884 487.242 431.164 488.548 431.164 490.135C431.164 490.578 431.141 491.045 431.094 491.535C431.048 492.025 430.978 492.538 430.884 493.075C430.511 495.222 429.893 496.983 429.029 498.36C428.166 499.737 427.069 500.763 425.739 501.44C424.409 502.093 422.823 502.42 420.979 502.42ZM421.119 499.83C422.286 499.83 423.301 499.597 424.164 499.13C425.051 498.663 425.774 497.94 426.334 496.96C426.918 495.957 427.338 494.697 427.594 493.18C427.688 492.643 427.758 492.2 427.804 491.85C427.851 491.477 427.886 491.162 427.909 490.905C427.933 490.625 427.944 490.368 427.944 490.135C427.944 489.132 427.781 488.315 427.454 487.685C427.128 487.032 426.638 486.553 425.984 486.25C425.354 485.923 424.549 485.76 423.569 485.76C422.403 485.76 421.388 486.005 420.524 486.495C419.661 486.962 418.949 487.685 418.389 488.665C417.829 489.622 417.409 490.87 417.129 492.41C417.036 492.947 416.954 493.402 416.884 493.775C416.838 494.148 416.803 494.463 416.779 494.72C416.756 494.977 416.744 495.222 416.744 495.455C416.744 496.482 416.908 497.31 417.234 497.94C417.561 498.57 418.051 499.048 418.704 499.375C419.358 499.678 420.163 499.83 421.119 499.83ZM433.17 502L436.39 483.59H438.805L438.63 486.355H438.875C439.482 485.632 440.135 485.037 440.835 484.57C441.559 484.08 442.305 483.73 443.075 483.52C443.845 483.287 444.627 483.17 445.42 483.17C446.424 483.17 447.31 483.322 448.08 483.625C448.85 483.928 449.457 484.407 449.9 485.06C450.344 485.713 450.565 486.588 450.565 487.685C450.565 488.012 450.542 488.362 450.495 488.735C450.472 489.108 450.425 489.493 450.355 489.89L448.22 502H445.14L447.24 490.065C447.287 489.762 447.322 489.482 447.345 489.225C447.392 488.945 447.415 488.7 447.415 488.49C447.415 487.813 447.275 487.288 446.995 486.915C446.739 486.542 446.377 486.285 445.91 486.145C445.444 485.982 444.895 485.9 444.265 485.9C443.589 485.9 442.912 486.028 442.235 486.285C441.582 486.518 440.964 486.88 440.38 487.37C439.82 487.86 439.33 488.478 438.91 489.225C438.49 489.972 438.199 490.823 438.035 491.78L436.25 502H433.17ZM453.592 502L454.257 498.325H457.687L457.022 502H453.592ZM467.464 502L463.964 483.59H467.079L468.759 492.795C468.829 493.238 468.911 493.798 469.004 494.475C469.121 495.152 469.226 495.852 469.319 496.575C469.412 497.275 469.494 497.905 469.564 498.465H469.739C469.996 497.928 470.276 497.31 470.579 496.61C470.906 495.91 471.232 495.222 471.559 494.545C471.886 493.845 472.177 493.262 472.434 492.795L477.264 483.59H480.554L470.544 502H467.464ZM487.94 502.42C486.283 502.42 484.895 502.175 483.775 501.685C482.678 501.172 481.85 500.402 481.29 499.375C480.753 498.325 480.485 497.042 480.485 495.525C480.485 494.895 480.52 494.265 480.59 493.635C480.66 492.982 480.753 492.363 480.87 491.78C481.22 490.123 481.768 488.653 482.515 487.37C483.261 486.063 484.265 485.037 485.525 484.29C486.808 483.543 488.395 483.17 490.285 483.17C491.871 483.17 493.178 483.438 494.205 483.975C495.255 484.488 496.025 485.235 496.515 486.215C497.028 487.195 497.285 488.397 497.285 489.82C497.285 490.357 497.238 490.952 497.145 491.605C497.075 492.258 496.958 492.912 496.795 493.565H483.81C483.763 493.915 483.716 494.253 483.67 494.58C483.646 494.883 483.635 495.175 483.635 495.455C483.635 496.482 483.786 497.322 484.09 497.975C484.416 498.628 484.906 499.107 485.56 499.41C486.213 499.713 487.018 499.865 487.975 499.865C488.581 499.865 489.165 499.795 489.725 499.655C490.285 499.492 490.798 499.247 491.265 498.92C491.731 498.593 492.14 498.173 492.49 497.66C492.84 497.123 493.108 496.482 493.295 495.735H496.305C496.071 496.855 495.698 497.835 495.185 498.675C494.671 499.515 494.053 500.215 493.33 500.775C492.606 501.312 491.778 501.72 490.845 502C489.935 502.28 488.966 502.42 487.94 502.42ZM484.23 491.255H494.03C494.1 490.928 494.146 490.625 494.17 490.345C494.193 490.065 494.205 489.797 494.205 489.54C494.205 488.677 494.053 487.965 493.75 487.405C493.47 486.845 493.038 486.425 492.455 486.145C491.871 485.842 491.136 485.69 490.25 485.69C489.223 485.69 488.313 485.912 487.52 486.355C486.726 486.775 486.05 487.393 485.49 488.21C484.953 489.027 484.533 490.042 484.23 491.255ZM499.24 502L502.46 483.59H504.875L504.7 486.565H504.875C505.155 486.052 505.505 485.538 505.925 485.025C506.345 484.488 506.858 484.045 507.465 483.695C508.071 483.345 508.795 483.17 509.635 483.17C510.008 483.17 510.335 483.205 510.615 483.275C510.918 483.322 511.14 483.38 511.28 483.45L510.79 486.285H509.6C508.853 486.285 508.165 486.425 507.535 486.705C506.905 486.985 506.356 487.37 505.89 487.86C505.423 488.35 505.038 488.945 504.735 489.645C504.431 490.345 504.21 491.115 504.07 491.955L502.32 502H499.24ZM518.149 502.42C516.562 502.42 515.232 502.175 514.159 501.685C513.086 501.195 512.281 500.437 511.744 499.41C511.207 498.383 510.939 497.088 510.939 495.525C510.939 494.918 510.962 494.312 511.009 493.705C511.079 493.075 511.184 492.457 511.324 491.85C511.604 490.52 511.989 489.33 512.479 488.28C512.969 487.207 513.587 486.297 514.334 485.55C515.081 484.78 515.956 484.197 516.959 483.8C517.986 483.38 519.152 483.17 520.459 483.17C521.999 483.17 523.259 483.392 524.239 483.835C525.219 484.255 525.954 484.862 526.444 485.655C526.934 486.448 527.179 487.417 527.179 488.56C527.179 488.84 527.167 489.143 527.144 489.47C527.121 489.773 527.074 490.088 527.004 490.415H523.924C523.971 490.158 524.006 489.913 524.029 489.68C524.052 489.423 524.064 489.178 524.064 488.945C524.064 488.245 523.936 487.662 523.679 487.195C523.446 486.705 523.061 486.343 522.524 486.11C522.011 485.853 521.334 485.725 520.494 485.725C519.491 485.725 518.581 485.97 517.764 486.46C516.947 486.927 516.259 487.65 515.699 488.63C515.139 489.587 514.719 490.823 514.439 492.34C514.346 492.853 514.276 493.297 514.229 493.67C514.182 494.043 514.147 494.382 514.124 494.685C514.101 494.965 514.089 495.222 514.089 495.455C514.089 496.482 514.241 497.322 514.544 497.975C514.871 498.605 515.326 499.072 515.909 499.375C516.516 499.678 517.239 499.83 518.079 499.83C519.129 499.83 519.992 499.643 520.669 499.27C521.369 498.897 521.929 498.36 522.349 497.66C522.769 496.937 523.061 496.108 523.224 495.175H526.164C525.954 496.598 525.522 497.858 524.869 498.955C524.239 500.028 523.364 500.88 522.244 501.51C521.147 502.117 519.782 502.42 518.149 502.42ZM536.543 502.42C534.887 502.42 533.498 502.175 532.378 501.685C531.282 501.172 530.453 500.402 529.893 499.375C529.357 498.325 529.088 497.042 529.088 495.525C529.088 494.895 529.123 494.265 529.193 493.635C529.263 492.982 529.357 492.363 529.473 491.78C529.823 490.123 530.372 488.653 531.118 487.37C531.865 486.063 532.868 485.037 534.128 484.29C535.412 483.543 536.998 483.17 538.888 483.17C540.475 483.17 541.782 483.438 542.808 483.975C543.858 484.488 544.628 485.235 545.118 486.215C545.632 487.195 545.888 488.397 545.888 489.82C545.888 490.357 545.842 490.952 545.748 491.605C545.678 492.258 545.562 492.912 545.398 493.565H532.413C532.367 493.915 532.32 494.253 532.273 494.58C532.25 494.883 532.238 495.175 532.238 495.455C532.238 496.482 532.39 497.322 532.693 497.975C533.02 498.628 533.51 499.107 534.163 499.41C534.817 499.713 535.622 499.865 536.578 499.865C537.185 499.865 537.768 499.795 538.328 499.655C538.888 499.492 539.402 499.247 539.868 498.92C540.335 498.593 540.743 498.173 541.093 497.66C541.443 497.123 541.712 496.482 541.898 495.735H544.908C544.675 496.855 544.302 497.835 543.788 498.675C543.275 499.515 542.657 500.215 541.933 500.775C541.21 501.312 540.382 501.72 539.448 502C538.538 502.28 537.57 502.42 536.543 502.42ZM532.833 491.255H542.633C542.703 490.928 542.75 490.625 542.773 490.345C542.797 490.065 542.808 489.797 542.808 489.54C542.808 488.677 542.657 487.965 542.353 487.405C542.073 486.845 541.642 486.425 541.058 486.145C540.475 485.842 539.74 485.69 538.853 485.69C537.827 485.69 536.917 485.912 536.123 486.355C535.33 486.775 534.653 487.393 534.093 488.21C533.557 489.027 533.137 490.042 532.833 491.255ZM547.843 502L552.288 476.695H555.368L550.923 502H547.843ZM556.404 502L557.069 498.325H560.499L559.834 502H556.404ZM571.536 502.42C570.323 502.42 569.261 502.175 568.351 501.685C567.465 501.195 566.776 500.46 566.286 499.48C565.796 498.5 565.551 497.252 565.551 495.735C565.551 495.268 565.575 494.778 565.621 494.265C565.691 493.752 565.773 493.203 565.866 492.62C566.24 490.427 566.823 488.63 567.616 487.23C568.41 485.83 569.378 484.803 570.521 484.15C571.688 483.497 572.995 483.17 574.441 483.17C575.258 483.17 575.993 483.275 576.646 483.485C577.323 483.672 577.918 483.987 578.431 484.43C578.945 484.85 579.353 485.387 579.656 486.04H579.866L580.811 483.59H583.331L582.561 487.93C582.421 488.723 582.258 489.587 582.071 490.52C581.908 491.453 581.745 492.387 581.581 493.32C581.418 494.23 581.266 495.082 581.126 495.875C581.01 496.645 580.905 497.31 580.811 497.87C580.741 498.407 580.706 498.745 580.706 498.885C580.706 499.188 580.788 499.422 580.951 499.585C581.115 499.725 581.348 499.795 581.651 499.795H583.051L582.701 501.825C582.468 501.942 582.153 502.058 581.756 502.175C581.383 502.315 580.94 502.385 580.426 502.385C579.773 502.385 579.248 502.245 578.851 501.965C578.455 501.662 578.186 501.23 578.046 500.67C578 500.483 577.965 500.273 577.941 500.04C577.918 499.807 577.906 499.573 577.906 499.34L577.696 499.27C576.926 500.343 576.005 501.137 574.931 501.65C573.881 502.163 572.75 502.42 571.536 502.42ZM572.656 499.725C573.263 499.725 573.87 499.62 574.476 499.41C575.083 499.177 575.655 498.803 576.191 498.29C576.728 497.777 577.206 497.1 577.626 496.26C578.046 495.397 578.361 494.335 578.571 493.075C578.665 492.608 578.723 492.2 578.746 491.85C578.793 491.477 578.828 491.15 578.851 490.87C578.875 490.59 578.886 490.345 578.886 490.135C578.886 489.202 578.746 488.42 578.466 487.79C578.21 487.137 577.79 486.658 577.206 486.355C576.646 486.028 575.911 485.865 575.001 485.865C573.998 485.865 573.111 486.075 572.341 486.495C571.571 486.915 570.918 487.615 570.381 488.595C569.845 489.552 569.425 490.835 569.121 492.445C569.028 492.982 568.958 493.448 568.911 493.845C568.865 494.218 568.83 494.557 568.806 494.86C568.783 495.14 568.771 495.408 568.771 495.665C568.771 497.065 569.086 498.092 569.716 498.745C570.37 499.398 571.35 499.725 572.656 499.725ZM583.946 508.055L588.251 483.59H590.666L590.561 486.215H590.806C591.576 485.188 592.462 484.43 593.466 483.94C594.492 483.427 595.566 483.17 596.686 483.17C597.992 483.17 599.101 483.415 600.011 483.905C600.921 484.395 601.621 485.13 602.111 486.11C602.601 487.09 602.846 488.338 602.846 489.855C602.846 490.345 602.822 490.87 602.776 491.43C602.752 491.99 602.682 492.585 602.566 493.215C602.192 495.315 601.597 497.042 600.781 498.395C599.964 499.748 598.984 500.763 597.841 501.44C596.697 502.093 595.437 502.42 594.061 502.42C593.244 502.42 592.486 502.327 591.786 502.14C591.086 501.953 590.479 501.662 589.966 501.265C589.452 500.845 589.032 500.32 588.706 499.69H588.496L587.026 508.055H583.946ZM593.291 499.725C594.387 499.725 595.332 499.503 596.126 499.06C596.919 498.617 597.572 497.928 598.086 496.995C598.622 496.038 599.019 494.813 599.276 493.32C599.392 492.76 599.474 492.282 599.521 491.885C599.567 491.465 599.602 491.103 599.626 490.8C599.649 490.497 599.661 490.228 599.661 489.995C599.661 489.015 599.509 488.222 599.206 487.615C598.902 487.008 598.471 486.565 597.911 486.285C597.351 486.005 596.662 485.865 595.846 485.865C594.749 485.865 593.781 486.122 592.941 486.635C592.124 487.125 591.447 487.86 590.911 488.84C590.374 489.797 589.989 490.987 589.756 492.41C589.662 492.9 589.592 493.32 589.546 493.67C589.499 494.02 589.464 494.323 589.441 494.58C589.417 494.837 589.406 495.093 589.406 495.35C589.406 496.47 589.581 497.357 589.931 498.01C590.281 498.64 590.747 499.083 591.331 499.34C591.914 499.597 592.567 499.725 593.291 499.725ZM603.804 508.055L608.109 483.59H610.524L610.419 486.215H610.664C611.434 485.188 612.321 484.43 613.324 483.94C614.351 483.427 615.424 483.17 616.544 483.17C617.851 483.17 618.959 483.415 619.869 483.905C620.779 484.395 621.479 485.13 621.969 486.11C622.459 487.09 622.704 488.338 622.704 489.855C622.704 490.345 622.681 490.87 622.634 491.43C622.611 491.99 622.541 492.585 622.424 493.215C622.051 495.315 621.456 497.042 620.639 498.395C619.822 499.748 618.842 500.763 617.699 501.44C616.556 502.093 615.296 502.42 613.919 502.42C613.102 502.42 612.344 502.327 611.644 502.14C610.944 501.953 610.337 501.662 609.824 501.265C609.311 500.845 608.891 500.32 608.564 499.69H608.354L606.884 508.055H603.804ZM613.149 499.725C614.246 499.725 615.191 499.503 615.984 499.06C616.777 498.617 617.431 497.928 617.944 496.995C618.481 496.038 618.877 494.813 619.134 493.32C619.251 492.76 619.332 492.282 619.379 491.885C619.426 491.465 619.461 491.103 619.484 490.8C619.507 490.497 619.519 490.228 619.519 489.995C619.519 489.015 619.367 488.222 619.064 487.615C618.761 487.008 618.329 486.565 617.769 486.285C617.209 486.005 616.521 485.865 615.704 485.865C614.607 485.865 613.639 486.122 612.799 486.635C611.982 487.125 611.306 487.86 610.769 488.84C610.232 489.797 609.847 490.987 609.614 492.41C609.521 492.9 609.451 493.32 609.404 493.67C609.357 494.02 609.322 494.323 609.299 494.58C609.276 494.837 609.264 495.093 609.264 495.35C609.264 496.47 609.439 497.357 609.789 498.01C610.139 498.64 610.606 499.083 611.189 499.34C611.772 499.597 612.426 499.725 613.149 499.725Z" fill="white"/>
<path d="M500.832 153.152C492.512 153.152 486.016 151.424 481.344 147.968C476.736 144.448 474.432 139.296 474.432 132.512C474.432 131.616 474.464 130.656 474.528 129.632C474.656 128.544 474.816 127.488 475.008 126.464L482.112 86.144H496.416L489.312 126.656C489.248 127.104 489.152 127.712 489.024 128.48C488.96 129.184 488.928 129.824 488.928 130.4C488.928 133.984 489.952 136.736 492 138.656C494.048 140.512 497.12 141.44 501.216 141.44C505.888 141.44 509.696 140.192 512.64 137.696C515.648 135.136 517.568 131.488 518.4 126.752L525.6 86.144H540L532.8 127.328C531.776 133.088 529.888 137.888 527.136 141.728C524.384 145.568 520.8 148.448 516.384 150.368C512.032 152.224 506.848 153.152 500.832 153.152ZM542.693 152L554.309 86.144H588.773C593.317 86.144 597.093 86.848 600.101 88.256C603.109 89.6 605.349 91.52 606.821 94.016C608.293 96.448 609.029 99.328 609.029 102.656C609.029 106.496 608.453 109.92 607.301 112.928C606.149 115.936 604.453 118.496 602.213 120.608C600.037 122.72 597.317 124.416 594.052 125.696L602.885 152H587.429L579.941 128.096H561.221L556.997 152H542.693ZM563.333 116.672H582.725C584.837 116.672 586.757 116.192 588.485 115.232C590.277 114.208 591.685 112.8 592.708 111.008C593.733 109.216 594.245 107.104 594.245 104.672C594.245 102.496 593.573 100.8 592.229 99.584C590.885 98.368 588.965 97.76 586.469 97.76H566.597L563.333 116.672ZM612.818 152L624.434 86.144H638.738L629.33 139.808H662.354L660.242 152H612.818ZM689.984 153.152C686.656 153.152 683.616 152.832 680.864 152.192C678.176 151.616 675.84 150.752 673.856 149.6C671.936 148.448 670.464 147.04 669.44 145.376C668.48 143.712 668 141.856 668 139.808C668 139.104 668.064 138.4 668.192 137.696C668.32 136.992 668.448 136.416 668.576 135.968H681.44C681.312 136.288 681.216 136.64 681.152 137.024C681.088 137.344 681.056 137.6 681.056 137.792C681.056 139.136 681.472 140.224 682.304 141.056C683.2 141.888 684.352 142.496 685.76 142.88C687.168 143.264 688.704 143.456 690.368 143.456C691.584 143.456 692.8 143.36 694.016 143.168C695.296 142.976 696.448 142.688 697.472 142.304C698.56 141.856 699.392 141.28 699.968 140.576C700.608 139.872 700.928 138.976 700.928 137.888C700.928 136.864 700.576 136.032 699.872 135.392C699.232 134.688 698.336 134.112 697.184 133.664C696.096 133.152 694.816 132.704 693.344 132.32C691.872 131.872 690.336 131.456 688.736 131.072C686.88 130.56 684.992 129.984 683.072 129.344C681.216 128.704 679.52 127.904 677.984 126.944C676.448 125.984 675.2 124.768 674.24 123.296C673.344 121.76 672.896 119.936 672.896 117.824C672.896 114.88 673.504 112.32 674.72 110.144C675.936 107.968 677.632 106.144 679.808 104.672C681.984 103.2 684.48 102.112 687.296 101.408C690.176 100.64 693.28 100.256 696.608 100.256C699.552 100.256 702.272 100.544 704.768 101.12C707.264 101.632 709.44 102.4 711.296 103.424C713.152 104.448 714.592 105.696 715.616 107.168C716.64 108.64 717.152 110.336 717.152 112.256C717.152 113.152 717.056 114.016 716.864 114.848C716.736 115.616 716.64 116.096 716.576 116.288H703.808C703.872 115.968 703.904 115.712 703.904 115.52C703.968 115.264 704 115.04 704 114.848C704 113.824 703.68 112.96 703.04 112.256C702.4 111.488 701.504 110.944 700.352 110.624C699.2 110.24 697.76 110.048 696.032 110.048C694.56 110.048 693.248 110.176 692.096 110.432C690.944 110.624 689.952 110.944 689.12 111.392C688.288 111.84 687.648 112.384 687.2 113.024C686.816 113.664 686.624 114.336 686.624 115.04C686.624 116.192 687.136 117.12 688.16 117.824C689.248 118.464 690.656 119.008 692.384 119.456C694.112 119.904 695.968 120.448 697.952 121.088C699.872 121.6 701.792 122.176 703.712 122.816C705.696 123.392 707.52 124.16 709.184 125.12C710.848 126.08 712.16 127.328 713.12 128.864C714.144 130.4 714.656 132.352 714.656 134.72C714.656 138.176 713.984 141.088 712.64 143.456C711.36 145.76 709.568 147.648 707.264 149.12C704.96 150.528 702.336 151.552 699.392 152.192C696.448 152.832 693.312 153.152 689.984 153.152Z" fill="#FAFAFA"/>
</svg>
