<svg width="1080" height="803" viewBox="0 0 1080 803" fill="none" xmlns="http://www.w3.org/2000/svg">
<path d="M192.784 111H207.184L212.08 83.352H241.264L236.368 111H250.768L262.384 45.144H247.984L243.376 71.256H214.192L218.8 45.144H204.496L192.784 111ZM288.007 112.152C303.463 112.152 312.487 105.144 316.231 89.784C317.479 86.424 318.247 82.872 318.247 79.032C318.247 65.688 310.375 59.352 295.399 59.352C279.271 59.352 269.095 67.32 266.119 84.696C265.639 87.384 265.351 90.072 265.351 92.568C265.351 105.816 273.223 112.152 288.007 112.152ZM288.967 101.784C281.959 101.784 278.887 98.616 278.887 92.088C278.887 90.552 279.079 88.728 279.847 84.6C281.767 74.808 285.895 69.624 294.535 69.624C301.543 69.624 304.519 72.984 304.519 79.416C304.519 81.048 304.423 82.776 303.655 86.904C301.831 96.792 297.607 101.784 288.967 101.784ZM332.77 111H346.498L356.866 86.904C358.21 83.736 360.034 78.84 361.09 76.056H361.474C361.474 78.936 361.762 83.832 361.954 87L363.682 111H377.314L402.082 60.504H388.738L379.33 82.008C377.794 85.56 375.394 91.992 373.954 95.832H373.474C373.282 91.608 372.802 84.984 372.61 82.008L370.978 60.504H356.962L347.842 82.008C346.594 84.888 344.002 91.608 342.466 95.832H341.986C341.794 91.608 341.506 84.888 341.218 81.912L339.298 60.504H325.954L332.77 111ZM428.4 53.112H441.84L443.856 41.592H430.512L428.4 53.112ZM418.416 111H431.76L440.688 60.504H427.344L418.416 111ZM459.657 112.152C462.441 112.152 466.473 111.384 468.681 110.616L470.313 101.784H465.609C462.921 101.784 461.769 100.632 461.769 98.424C461.769 97.944 462.057 96.12 462.153 95.448L466.569 70.776H475.689L477.513 60.504H468.297L470.889 46.104H460.521L455.433 60.504H448.713L446.985 70.776H453.225L448.617 97.56C448.233 99.576 448.137 101.016 448.137 102.072C448.137 108.024 451.305 112.152 459.657 112.152ZM482.966 74.52C491.03 73.752 498.134 68.664 500.054 57.144L502.166 45.144H488.822L486.422 58.392H493.046C492.086 63.768 488.726 68.472 484.022 69.144L482.966 74.52ZM519.609 112.152C532.665 112.152 544.281 107.448 544.281 93.72C544.281 84.12 535.161 82.2 527.577 80.088C521.625 78.36 516.249 77.592 516.249 74.04C516.249 71.16 519.801 69.048 525.657 69.048C530.745 69.048 533.625 70.776 533.625 73.848C533.625 74.232 533.529 74.712 533.433 75.288H546.201C546.297 75 546.777 73.08 546.777 71.256C546.777 63.672 538.041 59.256 526.233 59.256C512.985 59.256 502.521 65.112 502.521 76.824C502.521 85.56 510.873 88.056 518.361 90.072C524.697 91.8 530.553 92.856 530.553 96.888C530.553 101.112 524.793 102.456 519.993 102.456C515.001 102.456 510.681 100.92 510.681 96.792C510.681 96.408 510.777 95.64 511.065 94.968H498.201C497.913 95.832 497.625 97.368 497.625 98.808C497.625 107.064 506.073 112.152 519.609 112.152ZM599.189 112.152C611.381 112.152 620.213 104.184 623.189 86.424C623.765 83.352 624.053 80.568 624.053 78.072C624.053 65.688 617.429 59.352 607.061 59.352C600.917 59.352 595.637 61.56 591.989 66.072H591.413L595.733 41.592H582.389L570.197 111H581.141L583.349 104.184H584.021C586.613 109.56 592.181 112.152 599.189 112.152ZM595.925 101.208C589.877 101.208 587.285 97.752 587.285 91.608C587.285 90.072 587.381 88.344 588.053 84.984C589.685 75.768 594.389 70.296 601.397 70.296C607.733 70.296 610.421 73.272 610.421 79.224C610.421 80.76 610.229 82.584 609.461 86.712C607.541 96.408 603.989 101.208 595.925 101.208ZM645.403 112.152C652.123 112.152 658.459 108.792 662.395 103.992H663.067V111H673.915L682.843 60.504H669.499L664.603 88.152C663.067 96.408 657.403 101.112 650.971 101.112C646.939 101.112 644.443 99.384 644.443 94.968C644.443 93.72 644.731 92.472 644.923 90.84L650.299 60.504H636.955L631.387 91.992C631.003 94.584 630.523 96.888 630.523 99.096C630.523 108.312 636.763 112.152 645.403 112.152ZM696.243 53.112H709.683L711.699 41.592H698.355L696.243 53.112ZM686.259 111H699.603L708.531 60.504H695.187L686.259 111ZM711.853 111H725.101L737.389 41.592H724.045L711.853 111ZM753.095 112.152C755.879 112.152 759.911 111.384 762.119 110.616L763.751 101.784H759.047C756.359 101.784 755.207 100.632 755.207 98.424C755.207 97.944 755.495 96.12 755.591 95.448L760.007 70.776H769.127L770.951 60.504H761.735L764.327 46.104H753.959L748.871 60.504H742.151L740.423 70.776H746.663L742.055 97.56C741.671 99.576 741.575 101.016 741.575 102.072C741.575 108.024 744.743 112.152 753.095 112.152ZM790.707 91.416H802.803L803.283 88.632C804.819 79.032 825.651 77.016 825.651 59.736C825.651 49.656 817.683 43.992 804.531 43.992C789.171 43.992 778.035 53.112 778.035 67.128H791.187C791.187 66.36 791.283 65.592 791.379 64.728C792.147 60.216 795.411 54.936 802.995 54.936C809.523 54.936 810.963 58.296 810.963 61.08C810.867 71.256 793.875 72.312 791.475 86.904L790.707 91.416ZM786.867 111H800.499L802.899 97.56H789.267L786.867 111Z" fill="#FAFAFA"/>
<path d="M354.84 758.8V745.08H361.98C362.967 745.08 363.787 745.266 364.44 745.64C365.107 746 365.607 746.513 365.94 747.18C366.287 747.833 366.46 748.613 366.46 749.52C366.46 750.426 366.28 751.22 365.92 751.9C365.574 752.566 365.06 753.086 364.38 753.46C363.7 753.833 362.867 754.02 361.88 754.02H357.82V758.8H354.84ZM357.82 751.58H361.48C362.107 751.58 362.587 751.4 362.92 751.04C363.267 750.68 363.44 750.18 363.44 749.54C363.44 749.1 363.367 748.733 363.22 748.44C363.074 748.146 362.854 747.92 362.56 747.76C362.28 747.6 361.92 747.52 361.48 747.52H357.82V751.58ZM372.819 759.04C371.673 759.04 370.699 758.846 369.899 758.46C369.099 758.06 368.493 757.453 368.079 756.64C367.666 755.813 367.459 754.78 367.459 753.54C367.459 752.273 367.666 751.24 368.079 750.44C368.493 749.626 369.099 749.026 369.899 748.64C370.699 748.24 371.673 748.04 372.819 748.04C373.993 748.04 374.973 748.24 375.759 748.64C376.559 749.026 377.166 749.626 377.579 750.44C377.993 751.24 378.199 752.273 378.199 753.54C378.199 754.78 377.993 755.813 377.579 756.64C377.166 757.453 376.559 758.06 375.759 758.46C374.973 758.846 373.993 759.04 372.819 759.04ZM372.819 756.88C373.433 756.88 373.919 756.766 374.279 756.54C374.653 756.313 374.926 755.966 375.099 755.5C375.273 755.033 375.359 754.46 375.359 753.78V753.3C375.359 752.62 375.273 752.046 375.099 751.58C374.926 751.113 374.653 750.766 374.279 750.54C373.919 750.3 373.433 750.18 372.819 750.18C372.219 750.18 371.733 750.3 371.359 750.54C370.999 750.766 370.733 751.113 370.559 751.58C370.386 752.046 370.299 752.62 370.299 753.3V753.78C370.299 754.46 370.386 755.033 370.559 755.5C370.733 755.966 370.999 756.313 371.359 756.54C371.733 756.766 372.219 756.88 372.819 756.88ZM380.245 758.8V744.34H383.025V758.8H380.245ZM387.097 762.56C386.604 762.56 386.19 762.52 385.857 762.44C385.537 762.373 385.33 762.326 385.237 762.3V760.42H386.457C386.79 760.42 387.09 760.34 387.357 760.18C387.624 760.033 387.857 759.833 388.057 759.58C388.257 759.34 388.404 759.08 388.497 758.8L384.377 748.28H387.317L389.117 753.14C389.197 753.366 389.284 753.653 389.377 754C389.484 754.333 389.59 754.686 389.697 755.06C389.804 755.42 389.89 755.74 389.957 756.02H390.057C390.11 755.833 390.17 755.613 390.237 755.36C390.304 755.106 390.37 754.846 390.437 754.58C390.517 754.313 390.59 754.06 390.657 753.82C390.737 753.566 390.804 753.346 390.857 753.16L392.357 748.28H395.157L391.577 758.3C391.377 758.886 391.144 759.433 390.877 759.94C390.624 760.46 390.324 760.913 389.977 761.3C389.63 761.7 389.217 762.006 388.737 762.22C388.27 762.446 387.724 762.56 387.097 762.56ZM398.234 762.56C397.768 762.56 397.328 762.46 396.914 762.26C396.501 762.073 396.168 761.793 395.914 761.42C395.661 761.046 395.534 760.6 395.534 760.08C395.534 759.493 395.701 759.026 396.034 758.68C396.381 758.32 396.768 758.053 397.194 757.88C396.888 757.706 396.634 757.48 396.434 757.2C396.248 756.92 396.154 756.593 396.154 756.22C396.154 755.7 396.341 755.28 396.714 754.96C397.101 754.626 397.541 754.413 398.034 754.32C397.541 754.013 397.154 753.626 396.874 753.16C396.608 752.68 396.474 752.146 396.474 751.56C396.474 750.8 396.661 750.16 397.034 749.64C397.421 749.12 397.968 748.726 398.674 748.46C399.394 748.18 400.241 748.04 401.214 748.04C401.601 748.04 401.961 748.06 402.294 748.1C402.641 748.14 402.954 748.206 403.234 748.3C403.728 748.006 404.061 747.686 404.234 747.34C404.421 746.98 404.521 746.693 404.534 746.48H407.114C407.114 746.973 407.021 747.4 406.834 747.76C406.661 748.12 406.408 748.42 406.074 748.66C405.741 748.886 405.341 749.053 404.874 749.16C405.221 749.453 405.488 749.806 405.674 750.22C405.861 750.633 405.954 751.08 405.954 751.56C405.954 752.306 405.774 752.946 405.414 753.48C405.054 754 404.541 754.4 403.874 754.68C403.221 754.96 402.434 755.1 401.514 755.1H399.914C399.594 755.1 399.354 755.16 399.194 755.28C399.034 755.386 398.954 755.546 398.954 755.76C398.954 755.933 399.021 756.086 399.154 756.22C399.301 756.34 399.534 756.4 399.854 756.4H404.234C405.114 756.4 405.814 756.673 406.334 757.22C406.868 757.753 407.134 758.44 407.134 759.28C407.134 759.92 406.968 760.486 406.634 760.98C406.301 761.473 405.841 761.86 405.254 762.14C404.668 762.42 403.994 762.56 403.234 762.56H398.234ZM399.394 760.7H403.094C403.334 760.7 403.548 760.653 403.734 760.56C403.921 760.48 404.068 760.36 404.174 760.2C404.281 760.053 404.334 759.88 404.334 759.68C404.334 759.333 404.228 759.073 404.014 758.9C403.801 758.726 403.534 758.64 403.214 758.64H399.394C399.074 758.64 398.808 758.733 398.594 758.92C398.394 759.106 398.294 759.353 398.294 759.66C398.294 759.966 398.394 760.213 398.594 760.4C398.808 760.6 399.074 760.7 399.394 760.7ZM401.214 753.3C401.868 753.3 402.361 753.153 402.694 752.86C403.041 752.553 403.214 752.12 403.214 751.56C403.214 751 403.041 750.573 402.694 750.28C402.361 749.973 401.868 749.82 401.214 749.82C400.574 749.82 400.081 749.973 399.734 750.28C399.401 750.573 399.234 751 399.234 751.56C399.234 751.92 399.308 752.233 399.454 752.5C399.601 752.766 399.821 752.966 400.114 753.1C400.408 753.233 400.774 753.3 401.214 753.3ZM413.503 759.04C412.356 759.04 411.383 758.846 410.583 758.46C409.783 758.06 409.176 757.453 408.763 756.64C408.349 755.813 408.143 754.78 408.143 753.54C408.143 752.273 408.349 751.24 408.763 750.44C409.176 749.626 409.783 749.026 410.583 748.64C411.383 748.24 412.356 748.04 413.503 748.04C414.676 748.04 415.656 748.24 416.443 748.64C417.243 749.026 417.849 749.626 418.263 750.44C418.676 751.24 418.883 752.273 418.883 753.54C418.883 754.78 418.676 755.813 418.263 756.64C417.849 757.453 417.243 758.06 416.443 758.46C415.656 758.846 414.676 759.04 413.503 759.04ZM413.503 756.88C414.116 756.88 414.603 756.766 414.963 756.54C415.336 756.313 415.609 755.966 415.783 755.5C415.956 755.033 416.043 754.46 416.043 753.78V753.3C416.043 752.62 415.956 752.046 415.783 751.58C415.609 751.113 415.336 750.766 414.963 750.54C414.603 750.3 414.116 750.18 413.503 750.18C412.903 750.18 412.416 750.3 412.043 750.54C411.683 750.766 411.416 751.113 411.243 751.58C411.069 752.046 410.983 752.62 410.983 753.3V753.78C410.983 754.46 411.069 755.033 411.243 755.5C411.416 755.966 411.683 756.313 412.043 756.54C412.416 756.766 412.903 756.88 413.503 756.88ZM420.928 758.8V748.28H423.228L423.448 749.72H423.588C423.828 749.373 424.115 749.073 424.448 748.82C424.795 748.566 425.182 748.373 425.608 748.24C426.035 748.106 426.502 748.04 427.008 748.04C427.702 748.04 428.308 748.166 428.828 748.42C429.348 748.673 429.748 749.073 430.028 749.62C430.322 750.166 430.468 750.88 430.468 751.76V758.8H427.688V752.2C427.688 751.866 427.648 751.586 427.568 751.36C427.488 751.12 427.368 750.926 427.208 750.78C427.062 750.62 426.875 750.506 426.648 750.44C426.422 750.373 426.168 750.34 425.888 750.34C425.475 750.34 425.102 750.44 424.768 750.64C424.435 750.84 424.175 751.113 423.988 751.46C423.802 751.806 423.708 752.206 423.708 752.66V758.8H420.928Z" fill="#FAFAFA"/>
<rect x="295.5" y="703.3" width="194" height="99" rx="31.5" stroke="#FAFAFA"/>
<g clip-path="url(#clip0_333_5)">
<path d="M343.006 605.986C342.96 605.631 343.186 605.434 343.421 605.241C345.406 603.646 347.392 602.049 349.377 600.451C354.527 596.318 359.676 592.187 364.824 588.057C365.835 587.246 365.833 587.227 367.072 587.704C371.721 589.51 376.368 591.319 381.014 593.131C384.75 594.584 388.463 596.037 392.205 597.461C392.966 597.749 393.317 598.16 393.436 598.98C394.031 603.099 394.681 607.211 395.332 611.322C395.394 611.587 395.374 611.864 395.275 612.117C395.177 612.37 395.004 612.588 394.78 612.742C392.653 614.425 390.549 616.133 388.434 617.833C388.328 617.92 388.226 618.005 388.106 618.082C387.691 618.358 387.535 618.312 387.448 617.814C387.27 616.789 387.118 615.759 386.958 614.73C386.454 611.455 385.943 608.18 385.46 604.903C385.377 604.347 385.045 604.129 384.582 603.948C381.133 602.616 377.686 601.274 374.242 599.924C372.167 599.119 370.092 598.328 368.041 597.502C367.848 597.407 367.63 597.375 367.417 597.409C367.204 597.444 367.007 597.544 366.854 597.695C362.272 601.393 357.677 605.079 353.071 608.751C352.838 608.914 352.658 609.144 352.557 609.41C352.456 609.677 352.438 609.968 352.505 610.245C353.422 616.032 354.322 621.824 355.203 627.62C355.284 628.149 355.477 628.431 355.983 628.627C361.482 630.739 366.973 632.87 372.458 635.019C373.045 635.249 373.475 635.195 373.958 634.811C377.467 631.964 380.985 629.127 384.513 626.302C388.143 623.384 391.775 620.471 395.411 617.563C400.367 613.582 405.321 609.601 410.273 605.619C410.295 605.603 410.316 605.585 410.335 605.565C410.892 604.976 411.456 604.942 412.238 605.249C417.406 607.302 422.603 609.288 427.787 611.301C431.081 612.58 434.364 613.889 437.672 615.132C438.392 615.404 438.681 615.824 438.793 616.552C439.623 622.104 440.505 627.649 441.358 633.199C441.898 636.727 442.396 640.242 442.971 643.756C443.074 644.399 442.881 644.794 442.408 645.161C439.918 647.138 437.437 649.124 434.966 651.119C430.288 654.875 425.614 658.634 420.943 662.399C420.409 662.829 419.961 662.924 419.307 662.669C412.702 660.076 406.089 657.502 399.469 654.946C397.553 654.201 395.646 653.438 393.718 652.73C393.056 652.487 392.715 652.147 392.61 651.408C392.072 647.695 391.474 643.991 390.899 640.282C390.821 639.769 390.779 639.244 390.655 638.742C390.53 638.24 390.708 637.912 391.09 637.615C392.894 636.185 394.683 634.739 396.476 633.296C396.924 632.937 397.368 632.572 397.823 632.217C398.342 631.814 398.489 631.864 398.601 632.528C398.798 633.717 398.966 634.911 399.149 636.102C399.599 639.053 400.071 642 400.492 644.956C400.602 645.721 400.936 646.118 401.679 646.408C407.029 648.449 412.366 650.525 417.688 652.635C418.363 652.9 418.826 652.842 419.392 652.39C423.82 648.803 428.26 645.232 432.712 641.677C432.861 641.558 432.992 641.413 433.15 641.305C433.528 641.037 433.627 640.718 433.55 640.245C432.82 635.679 432.114 631.1 431.405 626.526C431.212 625.281 430.989 624.036 430.863 622.791C430.792 622.118 430.483 621.784 429.873 621.545C427.175 620.526 424.506 619.47 421.825 618.432C419.015 617.341 416.2 616.264 413.399 615.153C413.207 615.058 412.991 615.024 412.78 615.056C412.569 615.087 412.372 615.184 412.218 615.332C406.634 619.842 401.04 624.339 395.438 628.822C391.806 631.738 388.172 634.65 384.534 637.557C381.587 639.912 378.63 642.266 375.714 644.659C375.091 645.167 374.579 645.281 373.796 644.981C367.827 642.627 361.84 640.328 355.863 638.009C353.36 637.038 350.867 636.04 348.354 635.091C347.696 634.842 347.36 634.5 347.252 633.761C346.536 628.884 345.768 624.007 345.015 619.144C344.376 615.002 343.734 610.861 343.089 606.721C343.052 606.478 343.033 606.231 343.006 605.986Z" fill="#FAFAFA"/>
</g>
<rect x="590.5" y="702.674" width="194" height="99" rx="31.5" stroke="#FAFAFA"/>
<path d="M667.868 758.174V744.454H678.828V746.894H670.868V749.954H677.908V752.374H670.868V755.714H678.948V758.174H667.868ZM681.52 758.174V744.454H684.26L689.78 751.854C689.86 751.947 689.96 752.08 690.08 752.254C690.2 752.414 690.313 752.574 690.42 752.734C690.527 752.894 690.6 753.02 690.64 753.114H690.74C690.74 752.887 690.74 752.667 690.74 752.454C690.74 752.227 690.74 752.027 690.74 751.854V744.454H693.56V758.174H690.82L685.18 750.594C685.047 750.407 684.907 750.2 684.76 749.974C684.613 749.747 684.507 749.574 684.44 749.454H684.34C684.34 749.654 684.34 749.854 684.34 750.054C684.34 750.24 684.34 750.42 684.34 750.594V758.174H681.52ZM701.938 758.414C701.138 758.414 700.378 758.334 699.658 758.174C698.938 758.014 698.298 757.76 697.738 757.414C697.191 757.054 696.758 756.607 696.438 756.074C696.131 755.527 695.978 754.867 695.978 754.094C695.978 754.027 695.978 753.96 695.978 753.894C695.978 753.814 695.985 753.754 695.998 753.714H698.958C698.945 753.754 698.938 753.807 698.938 753.874C698.938 753.94 698.938 754 698.938 754.054C698.938 754.48 699.051 754.84 699.278 755.134C699.518 755.427 699.865 755.647 700.318 755.794C700.771 755.94 701.298 756.014 701.898 756.014C702.285 756.014 702.625 755.994 702.918 755.954C703.225 755.9 703.491 755.834 703.718 755.754C703.958 755.66 704.151 755.554 704.298 755.434C704.458 755.314 704.571 755.174 704.638 755.014C704.718 754.854 704.758 754.674 704.758 754.474C704.758 754.114 704.638 753.82 704.398 753.594C704.171 753.367 703.851 753.174 703.438 753.014C703.038 752.854 702.585 752.707 702.078 752.574C701.571 752.44 701.051 752.307 700.518 752.174C699.985 752.027 699.465 751.854 698.958 751.654C698.451 751.44 697.998 751.187 697.598 750.894C697.198 750.6 696.878 750.227 696.638 749.774C696.398 749.32 696.278 748.774 696.278 748.134C696.278 747.454 696.418 746.867 696.698 746.374C696.991 745.88 697.398 745.474 697.918 745.154C698.438 744.834 699.038 744.6 699.718 744.454C700.398 744.294 701.138 744.214 701.938 744.214C702.685 744.214 703.391 744.294 704.058 744.454C704.725 744.6 705.311 744.84 705.818 745.174C706.325 745.507 706.718 745.927 706.998 746.434C707.291 746.94 707.438 747.54 707.438 748.234V748.474H704.538V748.314C704.538 747.954 704.431 747.647 704.218 747.394C704.005 747.14 703.705 746.94 703.318 746.794C702.931 746.647 702.478 746.574 701.958 746.574C701.398 746.574 700.918 746.627 700.518 746.734C700.131 746.84 699.831 747 699.618 747.214C699.418 747.414 699.318 747.654 699.318 747.934C699.318 748.254 699.431 748.52 699.658 748.734C699.898 748.934 700.218 749.114 700.618 749.274C701.031 749.42 701.491 749.554 701.998 749.674C702.505 749.794 703.025 749.927 703.558 750.074C704.091 750.22 704.611 750.394 705.118 750.594C705.625 750.794 706.078 751.047 706.478 751.354C706.878 751.647 707.198 752.014 707.438 752.454C707.678 752.894 707.798 753.42 707.798 754.034C707.798 755.087 707.545 755.934 707.038 756.574C706.531 757.214 705.838 757.68 704.958 757.974C704.078 758.267 703.071 758.414 701.938 758.414Z" fill="#FAFAFA"/>
<g clip-path="url(#clip1_333_5)">
<path d="M690.271 551.387C692.278 552.77 694.281 554.124 696.26 555.508C705.419 561.905 714.693 568.149 723.694 574.757C731.546 580.521 735.907 588.537 737.295 598.186C738.122 603.408 738.216 608.72 737.574 613.968C736.94 618.617 735.288 622.944 732.742 627.334C732.415 625.336 732.665 623.679 732.382 622.051C731.489 616.893 728.986 612.445 726.335 608.065C716.729 592.11 706.552 576.52 696.245 560.997C694.324 558.082 692.336 555.186 690.381 552.285C690.259 552.172 690.182 552.02 690.161 551.856C690.141 551.692 690.18 551.525 690.271 551.387Z" fill="#FAFAFA"/>
<path d="M685.775 662.174C681.807 659.417 678.205 656.924 674.613 654.417C667.778 649.643 660.992 644.811 654.114 640.1C644.662 633.635 639.374 624.774 638.428 613.362C637.948 607.541 637.564 601.711 639.101 595.966C639.916 592.623 641.294 589.443 643.178 586.562C643.5 588.359 643.38 590.16 643.697 591.932C644.576 596.855 646.9 601.115 649.436 605.332C657.345 618.46 665.537 631.427 674.012 644.235C677.791 649.925 681.575 655.615 685.366 661.304C685.52 661.586 685.656 661.876 685.775 662.174V662.174Z" fill="#FAFAFA"/>
<path d="M686.053 551.675C684.415 554.422 682.792 557.174 681.135 559.912C675.416 569.367 669.688 578.822 663.95 588.277C661.189 592.84 658.403 597.403 655.675 601.97C654.964 603.171 654.542 603.233 653.821 601.97C651.559 597.936 649.239 593.916 648.922 589.171C648.442 582.106 650.2 576.054 656.472 571.784C666.02 565.281 675.42 558.553 684.886 551.925C685.15 551.742 685.438 551.593 685.717 551.444L686.053 551.675Z" fill="#FAFAFA"/>
<path d="M689.859 662.039L699.739 645.618C706.524 634.341 713.31 623.064 720.098 611.787C721.059 610.202 721.16 610.173 722.053 611.763C724.056 615.346 726.279 618.847 726.764 623.059C727.408 628.64 726.712 633.899 723.239 638.568C722.202 639.961 720.756 640.787 719.397 641.733C709.858 648.457 700.298 655.133 690.714 661.761C690.439 661.882 690.153 661.975 689.859 662.039V662.039Z" fill="#FAFAFA"/>
</g>
<path d="M55.1803 758.615C54.3803 758.615 53.6203 758.535 52.9003 758.375C52.1803 758.215 51.5403 757.962 50.9803 757.615C50.4336 757.255 50.0003 756.808 49.6803 756.275C49.3736 755.728 49.2203 755.068 49.2203 754.295C49.2203 754.228 49.2203 754.162 49.2203 754.095C49.2203 754.015 49.227 753.955 49.2403 753.915H52.2003C52.187 753.955 52.1803 754.008 52.1803 754.075C52.1803 754.142 52.1803 754.202 52.1803 754.255C52.1803 754.682 52.2936 755.042 52.5203 755.335C52.7603 755.628 53.107 755.848 53.5603 755.995C54.0136 756.142 54.5403 756.215 55.1403 756.215C55.527 756.215 55.867 756.195 56.1603 756.155C56.467 756.102 56.7336 756.035 56.9603 755.955C57.2003 755.862 57.3936 755.755 57.5403 755.635C57.7003 755.515 57.8136 755.375 57.8803 755.215C57.9603 755.055 58.0003 754.875 58.0003 754.675C58.0003 754.315 57.8803 754.022 57.6403 753.795C57.4136 753.568 57.0936 753.375 56.6803 753.215C56.2803 753.055 55.827 752.908 55.3203 752.775C54.8136 752.642 54.2936 752.508 53.7603 752.375C53.227 752.228 52.707 752.055 52.2003 751.855C51.6936 751.642 51.2403 751.388 50.8403 751.095C50.4403 750.802 50.1203 750.428 49.8803 749.975C49.6403 749.522 49.5203 748.975 49.5203 748.335C49.5203 747.655 49.6603 747.068 49.9403 746.575C50.2336 746.082 50.6403 745.675 51.1603 745.355C51.6803 745.035 52.2803 744.802 52.9603 744.655C53.6403 744.495 54.3803 744.415 55.1803 744.415C55.927 744.415 56.6336 744.495 57.3003 744.655C57.967 744.802 58.5536 745.042 59.0603 745.375C59.567 745.708 59.9603 746.128 60.2403 746.635C60.5336 747.142 60.6803 747.742 60.6803 748.435V748.675H57.7803V748.515C57.7803 748.155 57.6736 747.848 57.4603 747.595C57.247 747.342 56.947 747.142 56.5603 746.995C56.1736 746.848 55.7203 746.775 55.2003 746.775C54.6403 746.775 54.1603 746.828 53.7603 746.935C53.3736 747.042 53.0736 747.202 52.8603 747.415C52.6603 747.615 52.5603 747.855 52.5603 748.135C52.5603 748.455 52.6736 748.722 52.9003 748.935C53.1403 749.135 53.4603 749.315 53.8603 749.475C54.2736 749.622 54.7336 749.755 55.2403 749.875C55.747 749.995 56.267 750.128 56.8003 750.275C57.3336 750.422 57.8536 750.595 58.3603 750.795C58.867 750.995 59.3203 751.248 59.7203 751.555C60.1203 751.848 60.4403 752.215 60.6803 752.655C60.9203 753.095 61.0403 753.622 61.0403 754.235C61.0403 755.288 60.787 756.135 60.2803 756.775C59.7736 757.415 59.0803 757.882 58.2003 758.175C57.3203 758.468 56.3136 758.615 55.1803 758.615ZM66.5745 758.615C65.5079 758.615 64.6612 758.322 64.0345 757.735C63.4079 757.148 63.0945 756.202 63.0945 754.895V747.855H65.8745V754.435C65.8745 754.782 65.9145 755.075 65.9945 755.315C66.0745 755.542 66.1879 755.728 66.3345 755.875C66.4945 756.022 66.6879 756.128 66.9145 756.195C67.1412 756.262 67.3945 756.295 67.6745 756.295C68.0879 756.295 68.4612 756.195 68.7945 755.995C69.1279 755.795 69.3879 755.522 69.5745 755.175C69.7612 754.815 69.8545 754.415 69.8545 753.975V747.855H72.6345V758.375H70.3545L70.1545 756.935H70.0145C69.7612 757.268 69.4612 757.562 69.1145 757.815C68.7812 758.068 68.4012 758.262 67.9745 758.395C67.5479 758.542 67.0812 758.615 66.5745 758.615ZM75.1863 761.935V747.855H77.4663L77.7063 749.275H77.8463C78.1929 748.702 78.6463 748.282 79.2063 748.015C79.7663 747.748 80.3863 747.615 81.0663 747.615C81.9463 747.615 82.6996 747.808 83.3263 748.195C83.9663 748.582 84.4529 749.182 84.7863 749.995C85.1329 750.808 85.3063 751.855 85.3063 753.135C85.3063 754.375 85.1329 755.402 84.7863 756.215C84.4396 757.028 83.9529 757.635 83.3263 758.035C82.7129 758.422 81.9929 758.615 81.1663 758.615C80.7129 758.615 80.2929 758.562 79.9063 758.455C79.5196 758.362 79.1729 758.208 78.8663 757.995C78.5596 757.782 78.2996 757.522 78.0863 757.215H77.9663V761.935H75.1863ZM80.2063 756.335C80.7663 756.335 81.2063 756.228 81.5263 756.015C81.8596 755.788 82.0996 755.455 82.2463 755.015C82.3929 754.562 82.4663 754.008 82.4663 753.355V752.895C82.4663 752.228 82.3929 751.675 82.2463 751.235C82.0996 750.782 81.8596 750.448 81.5263 750.235C81.2063 750.008 80.7663 749.895 80.2063 749.895C79.6863 749.895 79.2596 750.015 78.9263 750.255C78.5929 750.495 78.3463 750.842 78.1863 751.295C78.0263 751.748 77.9463 752.295 77.9463 752.935V753.275C77.9463 753.742 77.9929 754.168 78.0863 754.555C78.1796 754.928 78.3129 755.248 78.4863 755.515C78.6729 755.782 78.9063 755.988 79.1862 756.135C79.4663 756.268 79.8063 756.335 80.2063 756.335ZM92.1342 758.615C90.9742 758.615 90.0009 758.422 89.2142 758.035C88.4276 757.635 87.8342 757.028 87.4342 756.215C87.0342 755.402 86.8342 754.368 86.8342 753.115C86.8342 751.848 87.0342 750.815 87.4342 750.015C87.8342 749.202 88.4209 748.602 89.1942 748.215C89.9809 747.815 90.9409 747.615 92.0742 747.615C93.1409 747.615 94.0409 747.808 94.7742 748.195C95.5076 748.568 96.0609 749.155 96.4342 749.955C96.8076 750.742 96.9942 751.762 96.9942 753.015V753.735H89.6542C89.6809 754.348 89.7742 754.868 89.9342 755.295C90.1076 755.722 90.3676 756.042 90.7142 756.255C91.0742 756.455 91.5476 756.555 92.1342 756.555C92.4542 756.555 92.7409 756.515 92.9942 756.435C93.2609 756.355 93.4876 756.235 93.6742 756.075C93.8609 755.915 94.0076 755.715 94.1142 755.475C94.2209 755.235 94.2742 754.962 94.2742 754.655H96.9942C96.9942 755.322 96.8742 755.902 96.6342 756.395C96.3942 756.888 96.0609 757.302 95.6342 757.635C95.2076 757.955 94.6942 758.202 94.0942 758.375C93.5076 758.535 92.8542 758.615 92.1342 758.615ZM89.6942 751.975H94.1342C94.1342 751.575 94.0809 751.228 93.9742 750.935C93.8809 750.642 93.7476 750.402 93.5742 750.215C93.4009 750.028 93.1876 749.895 92.9342 749.815C92.6942 749.722 92.4209 749.675 92.1142 749.675C91.6076 749.675 91.1809 749.762 90.8342 749.935C90.5009 750.095 90.2409 750.348 90.0542 750.695C89.8809 751.028 89.7609 751.455 89.6942 751.975ZM99.0339 758.375V747.855H101.334L101.554 749.495H101.694C101.827 749.148 102.001 748.835 102.214 748.555C102.427 748.262 102.694 748.028 103.014 747.855C103.334 747.682 103.707 747.595 104.134 747.595C104.361 747.595 104.567 747.622 104.754 747.675C104.941 747.715 105.081 747.755 105.174 747.795V750.315H104.314C103.901 750.315 103.534 750.375 103.214 750.495C102.907 750.602 102.647 750.775 102.434 751.015C102.221 751.255 102.061 751.548 101.954 751.895C101.861 752.242 101.814 752.648 101.814 753.115V758.375H99.0339ZM107.112 758.375V749.995H105.612V747.855H107.112V746.695C107.112 746.122 107.205 745.615 107.392 745.175C107.592 744.722 107.905 744.368 108.332 744.115C108.758 743.862 109.325 743.735 110.032 743.735C110.232 743.735 110.438 743.748 110.652 743.775C110.878 743.802 111.092 743.842 111.292 743.895C111.505 743.935 111.685 743.982 111.832 744.035V745.875H110.832C110.512 745.875 110.272 745.955 110.112 746.115C109.965 746.275 109.892 746.508 109.892 746.815V747.855H111.832V749.995H109.892V758.375H107.112ZM113.132 758.375V743.915H115.892V758.375H113.132ZM121.848 758.615C120.781 758.615 119.935 758.322 119.308 757.735C118.681 757.148 118.368 756.202 118.368 754.895V747.855H121.148V754.435C121.148 754.782 121.188 755.075 121.268 755.315C121.348 755.542 121.461 755.728 121.608 755.875C121.768 756.022 121.961 756.128 122.188 756.195C122.415 756.262 122.668 756.295 122.948 756.295C123.361 756.295 123.735 756.195 124.068 755.995C124.401 755.795 124.661 755.522 124.848 755.175C125.035 754.815 125.128 754.415 125.128 753.975V747.855H127.908V758.375H125.628L125.428 756.935H125.288C125.035 757.268 124.735 757.562 124.388 757.815C124.055 758.068 123.675 758.262 123.248 758.395C122.821 758.542 122.355 758.615 121.848 758.615ZM130.46 746.315V743.915H133.24V746.315H130.46ZM130.46 758.375V747.855H133.24V758.375H130.46ZM139.512 758.615C138.645 758.615 137.892 758.422 137.252 758.035C136.625 757.635 136.138 757.028 135.792 756.215C135.445 755.402 135.272 754.362 135.272 753.095C135.272 751.828 135.445 750.795 135.792 749.995C136.152 749.182 136.638 748.582 137.252 748.195C137.878 747.808 138.598 747.615 139.412 747.615C139.865 747.615 140.285 747.668 140.672 747.775C141.072 747.868 141.418 748.022 141.712 748.235C142.018 748.448 142.278 748.708 142.492 749.015H142.612V743.915H145.392V758.375H143.112L142.892 756.955H142.752C142.405 757.515 141.952 757.935 141.392 758.215C140.832 758.482 140.205 758.615 139.512 758.615ZM140.392 756.335C140.912 756.335 141.332 756.215 141.652 755.975C141.985 755.735 142.232 755.388 142.392 754.935C142.552 754.482 142.632 753.942 142.632 753.315V752.955C142.632 752.488 142.585 752.062 142.492 751.675C142.412 751.288 142.278 750.968 142.092 750.715C141.905 750.448 141.672 750.248 141.392 750.115C141.112 749.968 140.778 749.895 140.392 749.895C139.832 749.895 139.385 750.008 139.052 750.235C138.718 750.448 138.478 750.782 138.332 751.235C138.185 751.675 138.112 752.228 138.112 752.895V753.355C138.112 754.022 138.185 754.575 138.332 755.015C138.478 755.455 138.718 755.788 139.052 756.015C139.385 756.228 139.832 756.335 140.392 756.335Z" fill="#FAFAFA"/>
<rect x="0.5" y="702.875" width="194" height="99" rx="31.5" stroke="#FAFAFA"/>
<g clip-path="url(#clip2_333_5)">
<path d="M97.744 662.369C85.1423 662.369 72.5446 662.369 59.9508 662.369C52.5575 662.369 48.0254 657.89 48.0195 650.573C48.0195 625.166 48.0195 599.773 48.0195 574.394C48.0195 567.112 52.5868 562.451 59.9098 562.434C85.3163 562.383 110.709 562.383 136.088 562.434C143.241 562.434 147.967 567.294 147.973 574.517C148.012 599.924 148.012 625.317 147.973 650.696C147.973 657.778 143.241 662.357 136.129 662.369C123.336 662.385 110.541 662.385 97.744 662.369ZM107.189 585.563C102.206 585.563 97.2222 585.64 92.2386 585.528C90.1044 585.481 89.2426 586.191 89.3071 588.383C89.4243 592.189 89.4536 596.005 89.3071 599.805C89.2074 602.308 90.2627 603.047 92.6021 602.977C96.5069 602.859 100.418 603.006 104.328 602.93C106.544 602.889 107.535 603.745 107.482 606.031C107.4 610.036 107.529 614.04 107.447 618.045C107.406 620.085 108.034 621.134 110.267 621.076C114.272 620.97 118.276 621 122.281 621.076C124.175 621.076 124.861 620.343 124.849 618.461C124.794 608.4 124.794 598.339 124.849 588.278C124.849 586.261 124.186 585.493 122.134 585.534C117.151 585.64 112.167 585.569 107.189 585.569V585.563ZM80.1548 621.885C78.1028 621.885 76.0507 621.961 73.9987 621.885C72.0521 621.785 71.1258 622.418 71.1785 624.529C71.2841 628.535 71.2841 632.542 71.1785 636.548C71.1258 638.636 72.0287 639.275 73.9869 639.228C77.6982 639.14 81.4213 639.046 85.1267 639.257C87.941 639.421 88.7677 638.278 88.5331 635.675C88.3748 633.834 88.5038 631.969 88.5038 630.111C88.4979 621.891 88.498 621.891 80.1548 621.891V621.885Z" fill="#FAFAFA"/>
</g>
<path d="M937.556 758.042V746.822H933.156V744.322H944.976V746.822H940.556V758.042H937.556ZM946.749 758.042V743.582H949.529V748.682H949.669C949.895 748.402 950.162 748.162 950.469 747.962C950.789 747.748 951.142 747.582 951.529 747.462C951.929 747.342 952.362 747.282 952.829 747.282C953.522 747.282 954.129 747.408 954.649 747.662C955.169 747.915 955.569 748.315 955.849 748.862C956.142 749.408 956.289 750.122 956.289 751.002V758.042H953.509V751.442C953.509 751.108 953.469 750.828 953.389 750.602C953.309 750.362 953.189 750.168 953.029 750.022C952.882 749.862 952.695 749.748 952.469 749.682C952.242 749.615 951.989 749.582 951.709 749.582C951.295 749.582 950.922 749.682 950.589 749.882C950.255 750.082 949.995 750.355 949.809 750.702C949.622 751.048 949.529 751.448 949.529 751.902V758.042H946.749ZM963.56 758.282C962.4 758.282 961.427 758.088 960.64 757.702C959.853 757.302 959.26 756.695 958.86 755.882C958.46 755.068 958.26 754.035 958.26 752.782C958.26 751.515 958.46 750.482 958.86 749.682C959.26 748.868 959.847 748.268 960.62 747.882C961.407 747.482 962.367 747.282 963.5 747.282C964.567 747.282 965.467 747.475 966.2 747.862C966.933 748.235 967.487 748.822 967.86 749.622C968.233 750.408 968.42 751.428 968.42 752.682V753.402H961.08C961.107 754.015 961.2 754.535 961.36 754.962C961.533 755.388 961.793 755.708 962.14 755.922C962.5 756.122 962.973 756.222 963.56 756.222C963.88 756.222 964.167 756.182 964.42 756.102C964.687 756.022 964.913 755.902 965.1 755.742C965.287 755.582 965.433 755.382 965.54 755.142C965.647 754.902 965.7 754.628 965.7 754.322H968.42C968.42 754.988 968.3 755.568 968.06 756.062C967.82 756.555 967.487 756.968 967.06 757.302C966.633 757.622 966.12 757.868 965.52 758.042C964.933 758.202 964.28 758.282 963.56 758.282ZM961.12 751.642H965.56C965.56 751.242 965.507 750.895 965.4 750.602C965.307 750.308 965.173 750.068 965 749.882C964.827 749.695 964.613 749.562 964.36 749.482C964.12 749.388 963.847 749.342 963.54 749.342C963.033 749.342 962.607 749.428 962.26 749.602C961.927 749.762 961.667 750.015 961.48 750.362C961.307 750.695 961.187 751.122 961.12 751.642ZM980.865 758.282C978.705 758.282 977.039 757.708 975.865 756.562C974.705 755.402 974.125 753.608 974.125 751.182C974.125 749.568 974.405 748.242 974.965 747.202C975.525 746.148 976.339 745.368 977.405 744.862C978.472 744.342 979.752 744.082 981.245 744.082C982.139 744.082 982.979 744.182 983.765 744.382C984.552 744.582 985.245 744.888 985.845 745.302C986.459 745.715 986.932 746.235 987.265 746.862C987.612 747.475 987.785 748.208 987.785 749.062H984.765C984.765 748.648 984.672 748.282 984.485 747.962C984.312 747.642 984.065 747.375 983.745 747.162C983.425 746.948 983.059 746.788 982.645 746.682C982.232 746.575 981.799 746.522 981.345 746.522C980.652 746.522 980.045 746.615 979.525 746.802C979.005 746.975 978.572 747.248 978.225 747.622C977.892 747.982 977.639 748.435 977.465 748.982C977.292 749.528 977.205 750.162 977.205 750.882V751.482C977.205 752.482 977.352 753.302 977.645 753.942C977.939 754.582 978.379 755.062 978.965 755.382C979.552 755.688 980.279 755.842 981.145 755.842C981.865 755.842 982.499 755.735 983.045 755.522C983.605 755.295 984.039 754.975 984.345 754.562C984.665 754.148 984.825 753.642 984.825 753.042V752.902H980.725V750.622H987.785V758.042H985.825L985.565 756.562C985.165 756.948 984.732 757.268 984.265 757.522C983.812 757.775 983.305 757.962 982.745 758.082C982.185 758.215 981.559 758.282 980.865 758.282ZM990.421 758.042V747.522H992.721L992.941 749.162H993.081C993.214 748.815 993.387 748.502 993.601 748.222C993.814 747.928 994.081 747.695 994.401 747.522C994.721 747.348 995.094 747.262 995.521 747.262C995.747 747.262 995.954 747.288 996.141 747.342C996.327 747.382 996.467 747.422 996.561 747.462V749.982H995.701C995.287 749.982 994.921 750.042 994.601 750.162C994.294 750.268 994.034 750.442 993.821 750.682C993.607 750.922 993.447 751.215 993.341 751.562C993.247 751.908 993.201 752.315 993.201 752.782V758.042H990.421ZM1000.6 758.282C1000.26 758.282 999.883 758.242 999.483 758.162C999.096 758.082 998.73 757.942 998.383 757.742C998.036 757.528 997.75 757.228 997.523 756.842C997.31 756.442 997.203 755.935 997.203 755.322C997.203 754.588 997.363 753.982 997.683 753.502C998.003 753.022 998.456 752.648 999.043 752.382C999.643 752.102 1000.36 751.908 1001.18 751.802C1002.01 751.695 1002.92 751.642 1003.92 751.642V750.862C1003.92 750.555 1003.87 750.288 1003.76 750.062C1003.67 749.835 1003.5 749.655 1003.24 749.522C1003 749.388 1002.66 749.322 1002.22 749.322C1001.78 749.322 1001.42 749.375 1001.14 749.482C1000.88 749.588 1000.68 749.728 1000.56 749.902C1000.46 750.062 1000.4 750.242 1000.4 750.442V750.682H997.703C997.69 750.615 997.683 750.555 997.683 750.502C997.683 750.435 997.683 750.355 997.683 750.262C997.683 749.648 997.87 749.122 998.243 748.682C998.616 748.228 999.143 747.882 999.823 747.642C1000.5 747.402 1001.3 747.282 1002.2 747.282C1003.18 747.282 1003.99 747.408 1004.64 747.662C1005.31 747.915 1005.82 748.288 1006.16 748.782C1006.52 749.275 1006.7 749.895 1006.7 750.642V755.422C1006.7 755.662 1006.77 755.842 1006.9 755.962C1007.05 756.068 1007.21 756.122 1007.38 756.122H1008.04V757.942C1007.91 758.008 1007.7 758.075 1007.42 758.142C1007.14 758.222 1006.8 758.262 1006.4 758.262C1006.02 758.262 1005.67 758.202 1005.36 758.082C1005.07 757.975 1004.82 757.822 1004.62 757.622C1004.42 757.408 1004.28 757.155 1004.2 756.862H1004.06C1003.84 757.142 1003.56 757.388 1003.22 757.602C1002.9 757.815 1002.52 757.982 1002.08 758.102C1001.66 758.222 1001.16 758.282 1000.6 758.282ZM1001.54 756.182C1001.92 756.182 1002.25 756.128 1002.54 756.022C1002.84 755.902 1003.08 755.748 1003.28 755.562C1003.48 755.362 1003.64 755.122 1003.74 754.842C1003.86 754.562 1003.92 754.262 1003.92 753.942V753.362C1003.18 753.362 1002.51 753.415 1001.92 753.522C1001.34 753.615 1000.87 753.782 1000.52 754.022C1000.19 754.262 1000.02 754.595 1000.02 755.022C1000.02 755.262 1000.08 755.468 1000.2 755.642C1000.32 755.815 1000.5 755.948 1000.72 756.042C1000.95 756.135 1001.22 756.182 1001.54 756.182ZM1009.42 761.602V747.522H1011.7L1011.94 748.942H1012.08C1012.43 748.368 1012.88 747.948 1013.44 747.682C1014 747.415 1014.62 747.282 1015.3 747.282C1016.18 747.282 1016.94 747.475 1017.56 747.862C1018.2 748.248 1018.69 748.848 1019.02 749.662C1019.37 750.475 1019.54 751.522 1019.54 752.802C1019.54 754.042 1019.37 755.068 1019.02 755.882C1018.68 756.695 1018.19 757.302 1017.56 757.702C1016.95 758.088 1016.23 758.282 1015.4 758.282C1014.95 758.282 1014.53 758.228 1014.14 758.122C1013.76 758.028 1013.41 757.875 1013.1 757.662C1012.8 757.448 1012.54 757.188 1012.32 756.882H1012.2V761.602H1009.42ZM1014.44 756.002C1015 756.002 1015.44 755.895 1015.76 755.682C1016.1 755.455 1016.34 755.122 1016.48 754.682C1016.63 754.228 1016.7 753.675 1016.7 753.022V752.562C1016.7 751.895 1016.63 751.342 1016.48 750.902C1016.34 750.448 1016.1 750.115 1015.76 749.902C1015.44 749.675 1015 749.562 1014.44 749.562C1013.92 749.562 1013.5 749.682 1013.16 749.922C1012.83 750.162 1012.58 750.508 1012.42 750.962C1012.26 751.415 1012.18 751.962 1012.18 752.602V752.942C1012.18 753.408 1012.23 753.835 1012.32 754.222C1012.42 754.595 1012.55 754.915 1012.72 755.182C1012.91 755.448 1013.14 755.655 1013.42 755.802C1013.7 755.935 1014.04 756.002 1014.44 756.002ZM1021.59 758.042V743.582H1024.37V748.682H1024.51C1024.74 748.402 1025.01 748.162 1025.31 747.962C1025.63 747.748 1025.99 747.582 1026.37 747.462C1026.77 747.342 1027.21 747.282 1027.67 747.282C1028.37 747.282 1028.97 747.408 1029.49 747.662C1030.01 747.915 1030.41 748.315 1030.69 748.862C1030.99 749.408 1031.13 750.122 1031.13 751.002V758.042H1028.35V751.442C1028.35 751.108 1028.31 750.828 1028.23 750.602C1028.15 750.362 1028.03 750.168 1027.87 750.022C1027.73 749.862 1027.54 749.748 1027.31 749.682C1027.09 749.615 1026.83 749.582 1026.55 749.582C1026.14 749.582 1025.77 749.682 1025.43 749.882C1025.1 750.082 1024.84 750.355 1024.65 750.702C1024.47 751.048 1024.37 751.448 1024.37 751.902V758.042H1021.59Z" fill="#FAFAFA"/>
<rect x="885.5" y="702.542" width="194" height="99" rx="31.5" stroke="#FAFAFA"/>
<g clip-path="url(#clip3_333_5)">
<path d="M975.907 619.234C953.116 619.502 933.013 600.824 933 576.32C933 552.013 953.181 533.127 976.516 533.397C999.608 533.665 1018.82 552.928 1018.83 576.328C1018.85 600.065 999.68 619.234 975.907 619.234ZM975.883 604.656C979.599 604.672 983.283 603.953 986.722 602.542C990.161 601.13 993.288 599.052 995.924 596.428C998.56 593.804 1000.65 590.684 1002.08 587.249C1003.51 583.813 1004.25 580.128 1004.26 576.405C1004.31 560.733 991.565 547.995 975.864 548.016C960.604 548.038 947.531 560.074 947.609 576.488C947.6 580.202 948.326 583.881 949.746 587.312C951.165 590.743 953.25 593.858 955.88 596.477C958.509 599.096 961.631 601.166 965.064 602.569C968.498 603.971 972.175 604.678 975.883 604.648V604.656Z" fill="#FAFAFA"/>
<path d="M982.836 662.042C980.164 661.873 977.782 660.683 976.468 657.913C975.103 655.043 975.624 652.367 977.64 649.957C977.811 649.751 978.004 649.563 978.193 649.373C987.505 640.045 996.817 630.712 1006.13 621.375C1008.14 619.357 1010.52 618.49 1013.3 619.234C1018.93 620.727 1020.6 627.384 1016.39 631.632C1008.21 639.889 999.998 648.117 991.76 656.316C990.44 657.638 989.129 658.973 987.753 660.252C986.468 661.461 984.895 661.996 982.836 662.042Z" fill="#FAFAFA"/>
<path d="M1025.88 533.448C1027.79 533.476 1029.62 534.262 1030.95 535.634C1032.29 537.005 1033.02 538.851 1033 540.766C1032.96 542.679 1032.18 544.501 1030.83 545.849C1029.47 547.197 1027.65 547.964 1025.74 547.989C1021.81 547.989 1018.4 544.533 1018.45 540.61C1018.47 539.651 1018.68 538.705 1019.06 537.825C1019.44 536.946 1019.99 536.151 1020.68 535.486C1021.37 534.82 1022.19 534.298 1023.08 533.948C1023.97 533.599 1024.92 533.429 1025.88 533.448V533.448Z" fill="#FAFAFA"/>
</g>
<path d="M358.737 389V375.28H361.477L366.997 382.68C367.077 382.773 367.177 382.907 367.297 383.08C367.417 383.24 367.53 383.4 367.637 383.56C367.743 383.72 367.817 383.847 367.857 383.94H367.957C367.957 383.713 367.957 383.493 367.957 383.28C367.957 383.053 367.957 382.853 367.957 382.68V375.28H370.777V389H368.037L362.397 381.42C362.263 381.233 362.123 381.027 361.977 380.8C361.83 380.573 361.723 380.4 361.657 380.28H361.557C361.557 380.48 361.557 380.68 361.557 380.88C361.557 381.067 361.557 381.247 361.557 381.42V389H358.737ZM378.355 389.24C377.195 389.24 376.222 389.047 375.435 388.66C374.648 388.26 374.055 387.653 373.655 386.84C373.255 386.027 373.055 384.993 373.055 383.74C373.055 382.473 373.255 381.44 373.655 380.64C374.055 379.827 374.642 379.227 375.415 378.84C376.202 378.44 377.162 378.24 378.295 378.24C379.362 378.24 380.262 378.433 380.995 378.82C381.728 379.193 382.282 379.78 382.655 380.58C383.028 381.367 383.215 382.387 383.215 383.64V384.36H375.875C375.902 384.973 375.995 385.493 376.155 385.92C376.328 386.347 376.588 386.667 376.935 386.88C377.295 387.08 377.768 387.18 378.355 387.18C378.675 387.18 378.962 387.14 379.215 387.06C379.482 386.98 379.708 386.86 379.895 386.7C380.082 386.54 380.228 386.34 380.335 386.1C380.442 385.86 380.495 385.587 380.495 385.28H383.215C383.215 385.947 383.095 386.527 382.855 387.02C382.615 387.513 382.282 387.927 381.855 388.26C381.428 388.58 380.915 388.827 380.315 389C379.728 389.16 379.075 389.24 378.355 389.24ZM375.915 382.6H380.355C380.355 382.2 380.302 381.853 380.195 381.56C380.102 381.267 379.968 381.027 379.795 380.84C379.622 380.653 379.408 380.52 379.155 380.44C378.915 380.347 378.642 380.3 378.335 380.3C377.828 380.3 377.402 380.387 377.055 380.56C376.722 380.72 376.462 380.973 376.275 381.32C376.102 381.653 375.982 382.08 375.915 382.6ZM384.057 389L387.877 383.54L384.337 378.48H387.677L389.677 381.64H389.777L391.797 378.48H394.937L391.377 383.52L395.137 389H391.857L389.577 385.42H389.477L387.197 389H384.057ZM399.742 389.24C399.076 389.24 398.536 389.12 398.122 388.88C397.709 388.64 397.409 388.32 397.222 387.92C397.036 387.507 396.942 387.053 396.942 386.56V380.62H395.642V378.48H397.042L397.562 375.48H399.722V378.48H401.642V380.62H399.722V386.1C399.722 386.42 399.796 386.667 399.942 386.84C400.089 387 400.329 387.08 400.662 387.08H401.642V388.92C401.482 388.973 401.296 389.02 401.082 389.06C400.869 389.113 400.642 389.153 400.402 389.18C400.162 389.22 399.942 389.24 399.742 389.24ZM407.798 389.24C406.745 389.24 405.845 389.087 405.098 388.78C404.365 388.46 403.798 387.987 403.398 387.36C403.012 386.733 402.818 385.94 402.818 384.98V384.36H405.738V384.98C405.738 385.593 405.905 386.053 406.238 386.36C406.585 386.653 407.098 386.8 407.778 386.8C408.432 386.8 408.925 386.587 409.258 386.16C409.592 385.72 409.758 385.093 409.758 384.28V375.28H412.758V384.28C412.758 385.387 412.565 386.313 412.178 387.06C411.792 387.793 411.225 388.34 410.478 388.7C409.745 389.06 408.852 389.24 407.798 389.24ZM421.069 389.24C420.269 389.24 419.509 389.16 418.789 389C418.069 388.84 417.429 388.587 416.869 388.24C416.322 387.88 415.889 387.433 415.569 386.9C415.262 386.353 415.109 385.693 415.109 384.92C415.109 384.853 415.109 384.787 415.109 384.72C415.109 384.64 415.116 384.58 415.129 384.54H418.089C418.076 384.58 418.069 384.633 418.069 384.7C418.069 384.767 418.069 384.827 418.069 384.88C418.069 385.307 418.182 385.667 418.409 385.96C418.649 386.253 418.996 386.473 419.449 386.62C419.902 386.767 420.429 386.84 421.029 386.84C421.416 386.84 421.756 386.82 422.049 386.78C422.356 386.727 422.622 386.66 422.849 386.58C423.089 386.487 423.282 386.38 423.429 386.26C423.589 386.14 423.702 386 423.769 385.84C423.849 385.68 423.889 385.5 423.889 385.3C423.889 384.94 423.769 384.647 423.529 384.42C423.302 384.193 422.982 384 422.569 383.84C422.169 383.68 421.716 383.533 421.209 383.4C420.702 383.267 420.182 383.133 419.649 383C419.116 382.853 418.596 382.68 418.089 382.48C417.582 382.267 417.129 382.013 416.729 381.72C416.329 381.427 416.009 381.053 415.769 380.6C415.529 380.147 415.409 379.6 415.409 378.96C415.409 378.28 415.549 377.693 415.829 377.2C416.122 376.707 416.529 376.3 417.049 375.98C417.569 375.66 418.169 375.427 418.849 375.28C419.529 375.12 420.269 375.04 421.069 375.04C421.816 375.04 422.522 375.12 423.189 375.28C423.856 375.427 424.442 375.667 424.949 376C425.456 376.333 425.849 376.753 426.129 377.26C426.422 377.767 426.569 378.367 426.569 379.06V379.3H423.669V379.14C423.669 378.78 423.562 378.473 423.349 378.22C423.136 377.967 422.836 377.767 422.449 377.62C422.062 377.473 421.609 377.4 421.089 377.4C420.529 377.4 420.049 377.453 419.649 377.56C419.262 377.667 418.962 377.827 418.749 378.04C418.549 378.24 418.449 378.48 418.449 378.76C418.449 379.08 418.562 379.347 418.789 379.56C419.029 379.76 419.349 379.94 419.749 380.1C420.162 380.247 420.622 380.38 421.129 380.5C421.636 380.62 422.156 380.753 422.689 380.9C423.222 381.047 423.742 381.22 424.249 381.42C424.756 381.62 425.209 381.873 425.609 382.18C426.009 382.473 426.329 382.84 426.569 383.28C426.809 383.72 426.929 384.247 426.929 384.86C426.929 385.913 426.676 386.76 426.169 387.4C425.662 388.04 424.969 388.507 424.089 388.8C423.209 389.093 422.202 389.24 421.069 389.24Z" fill="#FAFAFA"/>
<rect x="295.5" y="333.5" width="194" height="99" rx="31.5" stroke="#FAFAFA"/>
<g clip-path="url(#clip4_333_5)">
<path d="M390.118 193H392.901C393.09 193.054 393.287 193.069 393.482 193.045C396.311 192.978 399.139 193.206 401.92 193.727C413.625 195.845 424.188 202.074 431.707 211.291C436.796 217.453 440.308 224.761 441.943 232.583C442.526 235.338 443.026 238.108 442.96 240.946C442.964 241.079 442.978 241.212 443.003 241.343V245.373C442.979 245.48 442.965 245.589 442.96 245.699C442.95 247.186 442.819 248.671 442.568 250.137C442.115 253.352 441.339 256.512 440.252 259.57C436.453 270.195 429.795 278.579 420.471 284.885C420.176 285.086 420.023 285.081 419.812 284.762C413.685 275.475 407.552 266.189 401.413 256.902C396.376 249.274 391.339 241.646 386.302 234.019C384.396 231.138 382.483 228.262 380.565 225.391C380.429 225.166 380.242 224.976 380.019 224.836C379.797 224.695 379.544 224.609 379.283 224.584C378.308 224.475 377.332 224.555 376.357 224.529C376.137 224.527 375.917 224.553 375.703 224.607C375.332 224.7 375.002 224.912 374.763 225.21C374.525 225.509 374.391 225.878 374.383 226.26C374.367 229.448 374.336 232.635 374.334 235.818C374.324 245.328 374.324 254.838 374.334 264.349C374.334 264.445 374.334 264.542 374.334 264.641C374.372 265.298 375.2 266.207 375.817 266.221C376.84 266.265 377.866 266.241 378.886 266.15C379.201 266.099 379.494 265.956 379.727 265.738C379.96 265.52 380.124 265.238 380.196 264.927C380.246 264.601 380.274 264.272 380.279 263.943C380.31 261.525 380.347 259.109 380.352 256.692C380.369 250.789 380.366 244.901 380.378 239.003C380.378 237.99 380.411 236.977 380.435 235.966C380.435 235.863 380.388 235.709 380.506 235.669C380.624 235.629 380.692 235.792 380.761 235.881C380.881 236.035 380.997 236.198 381.098 236.354L395.361 257.384C397.189 260.08 398.969 262.814 400.86 265.465C403.063 268.556 405.36 271.578 407.622 274.626C410.531 278.549 413.443 282.468 416.358 286.384C416.854 287.05 416.871 287.045 416.122 287.437C412.133 289.537 407.868 291.064 403.453 291.975C400.44 292.606 397.404 293.033 394.315 293.002C393.194 293.002 392.072 292.981 390.951 292.958C389.44 292.944 387.931 292.841 386.432 292.651C383.846 292.303 381.289 291.762 378.784 291.031C371.574 288.879 364.939 285.136 359.369 280.078C353.798 275.019 349.435 268.774 346.601 261.803C344.514 256.659 343.253 251.316 343.059 245.748C342.956 242.7 342.937 239.654 343.343 236.618C343.695 233.873 344.272 231.161 345.069 228.51C347.329 221.107 351.267 214.325 356.577 208.692C361.887 203.059 368.425 198.727 375.682 196.034C379.673 194.546 383.843 193.593 388.085 193.201C388.762 193.135 389.44 193.064 390.118 193ZM411.11 259.648L411.185 259.629V259.268C411.185 251.188 411.202 243.109 411.185 235.031C411.185 231.627 411.258 228.222 411.129 224.818C411.125 224.43 410.985 224.056 410.733 223.761C410.481 223.467 410.134 223.27 409.752 223.205C408.664 223.054 407.559 223.061 406.473 223.224C406.131 223.305 405.823 223.488 405.59 223.75C405.356 224.011 405.207 224.337 405.165 224.685C405.127 225.245 405.091 225.807 405.091 226.366C405.091 234.249 405.087 242.133 405.077 250.017C405.076 250.285 405.159 250.547 405.313 250.766C406.804 253.042 408.291 255.324 409.773 257.613C410.215 258.285 410.663 258.965 411.11 259.648V259.648Z" fill="#FAFAFA"/>
</g>
<path d="M643.034 380.595V366.875H646.014V380.595H643.034ZM649.049 380.595V366.875H656.189C657.176 366.875 657.996 367.062 658.649 367.435C659.316 367.795 659.816 368.309 660.149 368.975C660.496 369.629 660.669 370.409 660.669 371.315C660.669 372.222 660.489 373.015 660.129 373.695C659.783 374.362 659.269 374.882 658.589 375.255C657.909 375.629 657.076 375.815 656.089 375.815H652.029V380.595H649.049ZM652.029 373.375H655.689C656.316 373.375 656.796 373.195 657.129 372.835C657.476 372.475 657.649 371.975 657.649 371.335C657.649 370.895 657.576 370.529 657.429 370.235C657.283 369.942 657.063 369.715 656.769 369.555C656.489 369.395 656.129 369.315 655.689 369.315H652.029V373.375ZM662.663 380.595V366.875H672.783V369.315H665.643V372.715H672.023V375.135H665.643V380.595H662.663ZM680.444 380.835C679.644 380.835 678.884 380.755 678.164 380.595C677.444 380.435 676.804 380.182 676.244 379.835C675.697 379.475 675.264 379.029 674.944 378.495C674.637 377.949 674.484 377.289 674.484 376.515C674.484 376.449 674.484 376.382 674.484 376.315C674.484 376.235 674.491 376.175 674.504 376.135H677.464C677.451 376.175 677.444 376.229 677.444 376.295C677.444 376.362 677.444 376.422 677.444 376.475C677.444 376.902 677.557 377.262 677.784 377.555C678.024 377.849 678.371 378.069 678.824 378.215C679.277 378.362 679.804 378.435 680.404 378.435C680.791 378.435 681.131 378.415 681.424 378.375C681.731 378.322 681.997 378.255 682.224 378.175C682.464 378.082 682.657 377.975 682.804 377.855C682.964 377.735 683.077 377.595 683.144 377.435C683.224 377.275 683.264 377.095 683.264 376.895C683.264 376.535 683.144 376.242 682.904 376.015C682.677 375.789 682.357 375.595 681.944 375.435C681.544 375.275 681.091 375.129 680.584 374.995C680.077 374.862 679.557 374.729 679.024 374.595C678.491 374.449 677.971 374.275 677.464 374.075C676.957 373.862 676.504 373.609 676.104 373.315C675.704 373.022 675.384 372.649 675.144 372.195C674.904 371.742 674.784 371.195 674.784 370.555C674.784 369.875 674.924 369.289 675.204 368.795C675.497 368.302 675.904 367.895 676.424 367.575C676.944 367.255 677.544 367.022 678.224 366.875C678.904 366.715 679.644 366.635 680.444 366.635C681.191 366.635 681.897 366.715 682.564 366.875C683.231 367.022 683.817 367.262 684.324 367.595C684.831 367.929 685.224 368.349 685.504 368.855C685.797 369.362 685.944 369.962 685.944 370.655V370.895H683.044V370.735C683.044 370.375 682.937 370.069 682.724 369.815C682.511 369.562 682.211 369.362 681.824 369.215C681.437 369.069 680.984 368.995 680.464 368.995C679.904 368.995 679.424 369.049 679.024 369.155C678.637 369.262 678.337 369.422 678.124 369.635C677.924 369.835 677.824 370.075 677.824 370.355C677.824 370.675 677.937 370.942 678.164 371.155C678.404 371.355 678.724 371.535 679.124 371.695C679.537 371.842 679.997 371.975 680.504 372.095C681.011 372.215 681.531 372.349 682.064 372.495C682.597 372.642 683.117 372.815 683.624 373.015C684.131 373.215 684.584 373.469 684.984 373.775C685.384 374.069 685.704 374.435 685.944 374.875C686.184 375.315 686.304 375.842 686.304 376.455C686.304 377.509 686.051 378.355 685.544 378.995C685.037 379.635 684.344 380.102 683.464 380.395C682.584 380.689 681.577 380.835 680.444 380.835ZM687.158 381.575L691.258 365.895H693.158L689.058 381.575H687.158ZM694.674 380.595V366.875H697.414L702.934 374.275C703.014 374.369 703.114 374.502 703.234 374.675C703.354 374.835 703.468 374.995 703.574 375.155C703.681 375.315 703.754 375.442 703.794 375.535H703.894C703.894 375.309 703.894 375.089 703.894 374.875C703.894 374.649 703.894 374.449 703.894 374.275V366.875H706.714V380.595H703.974L698.334 373.015C698.201 372.829 698.061 372.622 697.914 372.395C697.768 372.169 697.661 371.995 697.594 371.875H697.494C697.494 372.075 697.494 372.275 697.494 372.475C697.494 372.662 697.494 372.842 697.494 373.015V380.595H694.674ZM709.752 380.595V366.875H719.872V369.315H712.732V372.715H719.112V375.135H712.732V380.595H709.752ZM725.574 380.595V369.375H721.174V366.875H732.994V369.375H728.574V380.595H725.574ZM656.606 402.835C655.806 402.835 655.046 402.755 654.326 402.595C653.606 402.435 652.966 402.182 652.406 401.835C651.859 401.475 651.426 401.029 651.106 400.495C650.799 399.949 650.646 399.289 650.646 398.515C650.646 398.449 650.646 398.382 650.646 398.315C650.646 398.235 650.653 398.175 650.666 398.135H653.626C653.613 398.175 653.606 398.229 653.606 398.295C653.606 398.362 653.606 398.422 653.606 398.475C653.606 398.902 653.719 399.262 653.946 399.555C654.186 399.849 654.533 400.069 654.986 400.215C655.439 400.362 655.966 400.435 656.566 400.435C656.953 400.435 657.293 400.415 657.586 400.375C657.893 400.322 658.159 400.255 658.386 400.175C658.626 400.082 658.819 399.975 658.966 399.855C659.126 399.735 659.239 399.595 659.306 399.435C659.386 399.275 659.426 399.095 659.426 398.895C659.426 398.535 659.306 398.242 659.066 398.015C658.839 397.789 658.519 397.595 658.106 397.435C657.706 397.275 657.253 397.129 656.746 396.995C656.239 396.862 655.719 396.729 655.186 396.595C654.653 396.449 654.133 396.275 653.626 396.075C653.119 395.862 652.666 395.609 652.266 395.315C651.866 395.022 651.546 394.649 651.306 394.195C651.066 393.742 650.946 393.195 650.946 392.555C650.946 391.875 651.086 391.289 651.366 390.795C651.659 390.302 652.066 389.895 652.586 389.575C653.106 389.255 653.706 389.022 654.386 388.875C655.066 388.715 655.806 388.635 656.606 388.635C657.353 388.635 658.059 388.715 658.726 388.875C659.393 389.022 659.979 389.262 660.486 389.595C660.993 389.929 661.386 390.349 661.666 390.855C661.959 391.362 662.106 391.962 662.106 392.655V392.895H659.206V392.735C659.206 392.375 659.099 392.069 658.886 391.815C658.673 391.562 658.373 391.362 657.986 391.215C657.599 391.069 657.146 390.995 656.626 390.995C656.066 390.995 655.586 391.049 655.186 391.155C654.799 391.262 654.499 391.422 654.286 391.635C654.086 391.835 653.986 392.075 653.986 392.355C653.986 392.675 654.099 392.942 654.326 393.155C654.566 393.355 654.886 393.535 655.286 393.695C655.699 393.842 656.159 393.975 656.666 394.095C657.173 394.215 657.693 394.349 658.226 394.495C658.759 394.642 659.279 394.815 659.786 395.015C660.293 395.215 660.746 395.469 661.146 395.775C661.546 396.069 661.866 396.435 662.106 396.875C662.346 397.315 662.466 397.842 662.466 398.455C662.466 399.509 662.213 400.355 661.706 400.995C661.199 401.635 660.506 402.102 659.626 402.395C658.746 402.689 657.739 402.835 656.606 402.835ZM667.74 402.835C667.074 402.835 666.534 402.715 666.12 402.475C665.707 402.235 665.407 401.915 665.22 401.515C665.034 401.102 664.94 400.649 664.94 400.155V394.215H663.64V392.075H665.04L665.56 389.075H667.72V392.075H669.64V394.215H667.72V399.695C667.72 400.015 667.794 400.262 667.94 400.435C668.087 400.595 668.327 400.675 668.66 400.675H669.64V402.515C669.48 402.569 669.294 402.615 669.08 402.655C668.867 402.709 668.64 402.749 668.4 402.775C668.16 402.815 667.94 402.835 667.74 402.835ZM676.276 402.835C675.13 402.835 674.156 402.642 673.356 402.255C672.556 401.855 671.95 401.249 671.536 400.435C671.123 399.609 670.916 398.575 670.916 397.335C670.916 396.069 671.123 395.035 671.536 394.235C671.95 393.422 672.556 392.822 673.356 392.435C674.156 392.035 675.13 391.835 676.276 391.835C677.45 391.835 678.43 392.035 679.216 392.435C680.016 392.822 680.623 393.422 681.036 394.235C681.45 395.035 681.656 396.069 681.656 397.335C681.656 398.575 681.45 399.609 681.036 400.435C680.623 401.249 680.016 401.855 679.216 402.255C678.43 402.642 677.45 402.835 676.276 402.835ZM676.276 400.675C676.89 400.675 677.376 400.562 677.736 400.335C678.11 400.109 678.383 399.762 678.556 399.295C678.73 398.829 678.816 398.255 678.816 397.575V397.095C678.816 396.415 678.73 395.842 678.556 395.375C678.383 394.909 678.11 394.562 677.736 394.335C677.376 394.095 676.89 393.975 676.276 393.975C675.676 393.975 675.19 394.095 674.816 394.335C674.456 394.562 674.19 394.909 674.016 395.375C673.843 395.842 673.756 396.415 673.756 397.095V397.575C673.756 398.255 673.843 398.829 674.016 399.295C674.19 399.762 674.456 400.109 674.816 400.335C675.19 400.562 675.676 400.675 676.276 400.675ZM683.702 402.595V392.075H686.002L686.222 393.715H686.362C686.495 393.369 686.669 393.055 686.882 392.775C687.095 392.482 687.362 392.249 687.682 392.075C688.002 391.902 688.375 391.815 688.802 391.815C689.029 391.815 689.235 391.842 689.422 391.895C689.609 391.935 689.749 391.975 689.842 392.015V394.535H688.982C688.569 394.535 688.202 394.595 687.882 394.715C687.575 394.822 687.315 394.995 687.102 395.235C686.889 395.475 686.729 395.769 686.622 396.115C686.529 396.462 686.482 396.869 686.482 397.335V402.595H683.702ZM693.884 402.835C693.538 402.835 693.164 402.795 692.764 402.715C692.378 402.635 692.011 402.495 691.664 402.295C691.318 402.082 691.031 401.782 690.804 401.395C690.591 400.995 690.484 400.489 690.484 399.875C690.484 399.142 690.644 398.535 690.964 398.055C691.284 397.575 691.738 397.202 692.324 396.935C692.924 396.655 693.638 396.462 694.464 396.355C695.291 396.249 696.204 396.195 697.204 396.195V395.415C697.204 395.109 697.151 394.842 697.044 394.615C696.951 394.389 696.778 394.209 696.524 394.075C696.284 393.942 695.944 393.875 695.504 393.875C695.064 393.875 694.704 393.929 694.424 394.035C694.158 394.142 693.964 394.282 693.844 394.455C693.738 394.615 693.684 394.795 693.684 394.995V395.235H690.984C690.971 395.169 690.964 395.109 690.964 395.055C690.964 394.989 690.964 394.909 690.964 394.815C690.964 394.202 691.151 393.675 691.524 393.235C691.898 392.782 692.424 392.435 693.104 392.195C693.784 391.955 694.578 391.835 695.484 391.835C696.458 391.835 697.271 391.962 697.924 392.215C698.591 392.469 699.098 392.842 699.444 393.335C699.804 393.829 699.984 394.449 699.984 395.195V399.975C699.984 400.215 700.051 400.395 700.184 400.515C700.331 400.622 700.491 400.675 700.664 400.675H701.324V402.495C701.191 402.562 700.984 402.629 700.704 402.695C700.424 402.775 700.084 402.815 699.684 402.815C699.298 402.815 698.951 402.755 698.644 402.635C698.351 402.529 698.104 402.375 697.904 402.175C697.704 401.962 697.564 401.709 697.484 401.415H697.344C697.118 401.695 696.838 401.942 696.504 402.155C696.184 402.369 695.804 402.535 695.364 402.655C694.938 402.775 694.444 402.835 693.884 402.835ZM694.824 400.735C695.198 400.735 695.531 400.682 695.824 400.575C696.118 400.455 696.364 400.302 696.564 400.115C696.764 399.915 696.918 399.675 697.024 399.395C697.144 399.115 697.204 398.815 697.204 398.495V397.915C696.458 397.915 695.791 397.969 695.204 398.075C694.618 398.169 694.151 398.335 693.804 398.575C693.471 398.815 693.304 399.149 693.304 399.575C693.304 399.815 693.364 400.022 693.484 400.195C693.604 400.369 693.778 400.502 694.004 400.595C694.231 400.689 694.504 400.735 694.824 400.735ZM704.426 406.355C703.959 406.355 703.519 406.255 703.106 406.055C702.692 405.869 702.359 405.589 702.106 405.215C701.852 404.842 701.726 404.395 701.726 403.875C701.726 403.289 701.892 402.822 702.226 402.475C702.572 402.115 702.959 401.849 703.386 401.675C703.079 401.502 702.826 401.275 702.626 400.995C702.439 400.715 702.346 400.389 702.346 400.015C702.346 399.495 702.532 399.075 702.906 398.755C703.292 398.422 703.732 398.209 704.226 398.115C703.732 397.809 703.346 397.422 703.066 396.955C702.799 396.475 702.666 395.942 702.666 395.355C702.666 394.595 702.852 393.955 703.226 393.435C703.612 392.915 704.159 392.522 704.866 392.255C705.586 391.975 706.432 391.835 707.406 391.835C707.792 391.835 708.152 391.855 708.486 391.895C708.832 391.935 709.146 392.002 709.426 392.095C709.919 391.802 710.252 391.482 710.426 391.135C710.612 390.775 710.712 390.489 710.726 390.275H713.306C713.306 390.769 713.212 391.195 713.026 391.555C712.852 391.915 712.599 392.215 712.266 392.455C711.932 392.682 711.532 392.849 711.066 392.955C711.412 393.249 711.679 393.602 711.866 394.015C712.052 394.429 712.146 394.875 712.146 395.355C712.146 396.102 711.966 396.742 711.606 397.275C711.246 397.795 710.732 398.195 710.066 398.475C709.412 398.755 708.626 398.895 707.706 398.895H706.106C705.786 398.895 705.546 398.955 705.386 399.075C705.226 399.182 705.146 399.342 705.146 399.555C705.146 399.729 705.212 399.882 705.346 400.015C705.492 400.135 705.726 400.195 706.046 400.195H710.426C711.306 400.195 712.006 400.469 712.526 401.015C713.059 401.549 713.326 402.235 713.326 403.075C713.326 403.715 713.159 404.282 712.826 404.775C712.492 405.269 712.032 405.655 711.446 405.935C710.859 406.215 710.186 406.355 709.426 406.355H704.426ZM705.586 404.495H709.286C709.526 404.495 709.739 404.449 709.926 404.355C710.112 404.275 710.259 404.155 710.366 403.995C710.472 403.849 710.526 403.675 710.526 403.475C710.526 403.129 710.419 402.869 710.206 402.695C709.992 402.522 709.726 402.435 709.406 402.435H705.586C705.266 402.435 704.999 402.529 704.786 402.715C704.586 402.902 704.486 403.149 704.486 403.455C704.486 403.762 704.586 404.009 704.786 404.195C704.999 404.395 705.266 404.495 705.586 404.495ZM707.406 397.095C708.059 397.095 708.552 396.949 708.886 396.655C709.232 396.349 709.406 395.915 709.406 395.355C709.406 394.795 709.232 394.369 708.886 394.075C708.552 393.769 708.059 393.615 707.406 393.615C706.766 393.615 706.272 393.769 705.926 394.075C705.592 394.369 705.426 394.795 705.426 395.355C705.426 395.715 705.499 396.029 705.646 396.295C705.792 396.562 706.012 396.762 706.306 396.895C706.599 397.029 706.966 397.095 707.406 397.095ZM719.634 402.835C718.474 402.835 717.501 402.642 716.714 402.255C715.928 401.855 715.334 401.249 714.934 400.435C714.534 399.622 714.334 398.589 714.334 397.335C714.334 396.069 714.534 395.035 714.934 394.235C715.334 393.422 715.921 392.822 716.694 392.435C717.481 392.035 718.441 391.835 719.574 391.835C720.641 391.835 721.541 392.029 722.274 392.415C723.008 392.789 723.561 393.375 723.934 394.175C724.308 394.962 724.494 395.982 724.494 397.235V397.955H717.154C717.181 398.569 717.274 399.089 717.434 399.515C717.608 399.942 717.868 400.262 718.214 400.475C718.574 400.675 719.048 400.775 719.634 400.775C719.954 400.775 720.241 400.735 720.494 400.655C720.761 400.575 720.988 400.455 721.174 400.295C721.361 400.135 721.508 399.935 721.614 399.695C721.721 399.455 721.774 399.182 721.774 398.875H724.494C724.494 399.542 724.374 400.122 724.134 400.615C723.894 401.109 723.561 401.522 723.134 401.855C722.708 402.175 722.194 402.422 721.594 402.595C721.008 402.755 720.354 402.835 719.634 402.835ZM717.194 396.195H721.634C721.634 395.795 721.581 395.449 721.474 395.155C721.381 394.862 721.248 394.622 721.074 394.435C720.901 394.249 720.688 394.115 720.434 394.035C720.194 393.942 719.921 393.895 719.614 393.895C719.108 393.895 718.681 393.982 718.334 394.155C718.001 394.315 717.741 394.569 717.554 394.915C717.381 395.249 717.261 395.675 717.194 396.195Z" fill="#FAFAFA"/>
<rect x="590.5" y="333.095" width="194" height="99" rx="31.5" stroke="#FAFAFA"/>
<g clip-path="url(#clip5_333_5)">
<path d="M638 263.929V205.729C638.454 205.821 638.738 205.471 639.059 205.283C655.023 196.059 670.983 186.834 686.937 177.605C687.218 177.443 687.59 177.384 687.708 177.011H688.077C688.243 177.143 688.416 177.266 688.594 177.38L698.392 183.045C711.328 190.524 724.263 197.999 737.199 205.471C737.457 205.587 737.672 205.779 737.815 206.023C737.959 206.266 738.023 206.548 738 206.829C737.978 225.526 737.978 244.224 738 262.922C738.027 263.219 737.96 263.517 737.809 263.774C737.657 264.031 737.428 264.234 737.155 264.353C732.704 266.88 728.265 269.431 723.837 272.007C712.128 278.783 700.425 285.565 688.727 292.356C688.482 292.53 688.19 292.624 687.889 292.624C687.589 292.624 687.296 292.53 687.052 292.356C683.607 290.326 680.163 288.317 676.719 286.329C663.817 278.85 650.911 271.384 638 263.929ZM732.638 234.905C732.638 228.37 732.638 221.834 732.638 215.294C732.638 214.807 732.638 214.368 732.21 213.962C731.383 213.173 730.734 213.756 730.077 214.139C726.387 216.302 722.696 218.483 719.006 220.653C712.142 224.685 705.273 228.714 698.399 232.739C698.146 232.848 697.936 233.039 697.802 233.28C697.669 233.522 697.619 233.802 697.661 234.074C697.683 234.411 697.683 234.749 697.661 235.086C697.584 239.071 695.787 242.001 692.211 243.78C691.944 243.883 691.72 244.072 691.573 244.316C691.426 244.561 691.365 244.847 691.399 245.131C691.425 249.304 691.399 253.478 691.421 257.652C691.447 265.97 691.366 274.284 691.554 282.598C691.583 283.975 692.07 284.263 693.259 283.58L696.126 281.923C706.614 275.851 717.103 269.783 727.593 263.719C727.826 263.609 728.025 263.439 728.168 263.225C728.311 263.011 728.393 262.762 728.405 262.505C728.515 261.278 728.878 260.087 729.47 259.008C730.063 257.928 730.872 256.983 731.848 256.231C732.124 256.024 732.344 255.75 732.486 255.435C732.628 255.12 732.688 254.775 732.66 254.43C732.627 247.921 732.638 241.411 732.638 234.905ZM678.254 234.735C678.217 234.229 678.538 233.373 677.468 232.761C666.751 226.61 656.049 220.434 645.362 214.232C644.964 214.003 644.624 213.542 644.037 213.863C643.392 214.213 643.344 214.785 643.347 215.431C643.347 220.188 643.347 224.941 643.347 229.698V254.548C643.347 255.072 643.347 255.537 643.853 255.928C644.904 256.704 645.786 257.685 646.445 258.813C647.104 259.94 647.527 261.19 647.687 262.486C647.708 262.757 647.799 263.018 647.951 263.243C648.103 263.468 648.311 263.65 648.554 263.77C659.972 270.369 671.383 276.977 682.786 283.595C683.856 284.215 684.384 283.897 684.384 282.635C684.384 270.118 684.384 257.6 684.384 245.083C684.412 244.798 684.348 244.512 684.201 244.267C684.055 244.021 683.832 243.83 683.568 243.721C680.07 241.927 678.294 239.027 678.254 234.735V234.735ZM683.454 185.89C683.251 185.986 683.051 186.064 682.87 186.171C680.393 187.588 677.921 189.008 675.453 190.433L648.514 205.98C648.104 206.216 647.724 206.434 647.709 206.999C647.694 207.563 648.126 207.759 648.525 207.991C651.809 209.878 655.076 211.77 658.326 213.667C665.854 218.044 673.38 222.424 680.904 226.808C681.143 226.969 681.425 227.052 681.713 227.046C682 227.041 682.28 226.948 682.513 226.779C686.166 224.642 689.841 224.649 693.48 226.808C693.692 226.958 693.944 227.038 694.203 227.038C694.462 227.038 694.715 226.958 694.927 226.808C695.82 226.273 696.724 225.753 697.628 225.232L715.777 214.722C719.755 212.417 723.733 210.107 727.711 207.792C728.604 207.272 728.593 206.792 727.711 206.242C727.505 206.109 727.283 205.999 727.073 205.873L707.584 194.584L693.093 186.193C692.949 186.081 692.781 186.007 692.602 185.976C692.423 185.945 692.239 185.959 692.067 186.016C689.442 187.054 686.521 187.054 683.896 186.016C683.752 185.982 683.609 185.938 683.454 185.89Z" fill="#FAFAFA"/>
</g>
<path d="M937.93 389.387L934.33 375.667H937.49L939.49 383.847C939.53 383.967 939.57 384.147 939.61 384.387C939.65 384.613 939.69 384.853 939.73 385.107C939.77 385.36 939.804 385.587 939.83 385.787H939.93C939.957 385.64 939.977 385.473 939.99 385.287C940.017 385.1 940.044 384.92 940.07 384.747C940.11 384.56 940.144 384.387 940.17 384.227C940.21 384.067 940.237 383.94 940.25 383.847L942.11 375.667H945.67L947.57 383.847C947.61 383.98 947.65 384.16 947.69 384.387C947.73 384.613 947.77 384.853 947.81 385.107C947.85 385.36 947.884 385.587 947.91 385.787H948.01C948.037 385.64 948.064 385.48 948.09 385.307C948.13 385.133 948.164 384.96 948.19 384.787C948.23 384.6 948.27 384.427 948.31 384.267C948.35 384.107 948.384 383.967 948.41 383.847L950.39 375.667H953.25L949.63 389.387H946.23L944.21 380.947C944.17 380.76 944.124 380.547 944.07 380.307C944.03 380.053 943.99 379.807 943.95 379.567C943.91 379.327 943.877 379.113 943.85 378.927H943.77C943.744 379.113 943.71 379.333 943.67 379.587C943.644 379.84 943.604 380.087 943.55 380.327C943.51 380.567 943.47 380.773 943.43 380.947L941.43 389.387H937.93ZM958.513 389.627C957.366 389.627 956.393 389.433 955.593 389.047C954.793 388.647 954.186 388.04 953.773 387.227C953.359 386.4 953.153 385.367 953.153 384.127C953.153 382.86 953.359 381.827 953.773 381.027C954.186 380.213 954.793 379.613 955.593 379.227C956.393 378.827 957.366 378.627 958.513 378.627C959.686 378.627 960.666 378.827 961.453 379.227C962.253 379.613 962.859 380.213 963.273 381.027C963.686 381.827 963.893 382.86 963.893 384.127C963.893 385.367 963.686 386.4 963.273 387.227C962.859 388.04 962.253 388.647 961.453 389.047C960.666 389.433 959.686 389.627 958.513 389.627ZM958.513 387.467C959.126 387.467 959.613 387.353 959.973 387.127C960.346 386.9 960.619 386.553 960.793 386.087C960.966 385.62 961.053 385.047 961.053 384.367V383.887C961.053 383.207 960.966 382.633 960.793 382.167C960.619 381.7 960.346 381.353 959.973 381.127C959.613 380.887 959.126 380.767 958.513 380.767C957.913 380.767 957.426 380.887 957.053 381.127C956.693 381.353 956.426 381.7 956.253 382.167C956.079 382.633 955.993 383.207 955.993 383.887V384.367C955.993 385.047 956.079 385.62 956.253 386.087C956.426 386.553 956.693 386.9 957.053 387.127C957.426 387.353 957.913 387.467 958.513 387.467ZM965.938 389.387V378.867H968.238L968.458 380.507H968.598C968.732 380.16 968.905 379.847 969.118 379.567C969.332 379.273 969.598 379.04 969.918 378.867C970.238 378.693 970.612 378.607 971.038 378.607C971.265 378.607 971.472 378.633 971.658 378.687C971.845 378.727 971.985 378.767 972.078 378.807V381.327H971.218C970.805 381.327 970.438 381.387 970.118 381.507C969.812 381.613 969.552 381.787 969.338 382.027C969.125 382.267 968.965 382.56 968.858 382.907C968.765 383.253 968.718 383.66 968.718 384.127V389.387H965.938ZM973.536 389.387V374.927H976.316V389.387H973.536ZM982.588 389.627C981.721 389.627 980.968 389.433 980.328 389.047C979.701 388.647 979.215 388.04 978.868 387.227C978.521 386.413 978.348 385.373 978.348 384.107C978.348 382.84 978.521 381.807 978.868 381.007C979.228 380.193 979.715 379.593 980.328 379.207C980.955 378.82 981.675 378.627 982.488 378.627C982.941 378.627 983.361 378.68 983.748 378.787C984.148 378.88 984.495 379.033 984.788 379.247C985.095 379.46 985.355 379.72 985.568 380.027H985.688V374.927H988.468V389.387H986.188L985.968 387.967H985.828C985.481 388.527 985.028 388.947 984.468 389.227C983.908 389.493 983.281 389.627 982.588 389.627ZM983.468 387.347C983.988 387.347 984.408 387.227 984.728 386.987C985.061 386.747 985.308 386.4 985.468 385.947C985.628 385.493 985.708 384.953 985.708 384.327V383.967C985.708 383.5 985.661 383.073 985.568 382.687C985.488 382.3 985.355 381.98 985.168 381.727C984.981 381.46 984.748 381.26 984.468 381.127C984.188 380.98 983.855 380.907 983.468 380.907C982.908 380.907 982.461 381.02 982.128 381.247C981.795 381.46 981.555 381.793 981.408 382.247C981.261 382.687 981.188 383.24 981.188 383.907V384.367C981.188 385.033 981.261 385.587 981.408 386.027C981.555 386.467 981.795 386.8 982.128 387.027C982.461 387.24 982.908 387.347 983.468 387.347ZM995.656 389.627C994.536 389.627 993.596 389.433 992.836 389.047C992.076 388.647 991.496 388.04 991.096 387.227C990.709 386.4 990.516 385.367 990.516 384.127C990.516 382.86 990.709 381.827 991.096 381.027C991.496 380.213 992.076 379.607 992.836 379.207C993.609 378.807 994.549 378.607 995.656 378.607C996.376 378.607 997.023 378.693 997.596 378.867C998.183 379.04 998.689 379.307 999.116 379.667C999.543 380.027 999.863 380.473 1000.08 381.007C1000.3 381.527 1000.42 382.147 1000.42 382.867H997.636C997.636 382.387 997.563 381.993 997.416 381.687C997.269 381.38 997.043 381.147 996.736 380.987C996.443 380.827 996.069 380.747 995.616 380.747C995.083 380.747 994.649 380.867 994.316 381.107C993.983 381.347 993.736 381.7 993.576 382.167C993.416 382.633 993.336 383.213 993.336 383.907V384.367C993.336 385.047 993.416 385.62 993.576 386.087C993.749 386.553 994.009 386.907 994.356 387.147C994.703 387.373 995.156 387.487 995.716 387.487C996.169 387.487 996.543 387.407 996.836 387.247C997.143 387.087 997.376 386.847 997.536 386.527C997.696 386.207 997.776 385.82 997.776 385.367H1000.42C1000.42 386.047 1000.3 386.653 1000.08 387.187C999.863 387.72 999.543 388.167 999.116 388.527C998.703 388.887 998.203 389.16 997.616 389.347C997.029 389.533 996.376 389.627 995.656 389.627ZM1007.34 389.627C1006.19 389.627 1005.22 389.433 1004.42 389.047C1003.62 388.647 1003.01 388.04 1002.6 387.227C1002.19 386.4 1001.98 385.367 1001.98 384.127C1001.98 382.86 1002.19 381.827 1002.6 381.027C1003.01 380.213 1003.62 379.613 1004.42 379.227C1005.22 378.827 1006.19 378.627 1007.34 378.627C1008.51 378.627 1009.49 378.827 1010.28 379.227C1011.08 379.613 1011.69 380.213 1012.1 381.027C1012.51 381.827 1012.72 382.86 1012.72 384.127C1012.72 385.367 1012.51 386.4 1012.1 387.227C1011.69 388.04 1011.08 388.647 1010.28 389.047C1009.49 389.433 1008.51 389.627 1007.34 389.627ZM1007.34 387.467C1007.95 387.467 1008.44 387.353 1008.8 387.127C1009.17 386.9 1009.45 386.553 1009.62 386.087C1009.79 385.62 1009.88 385.047 1009.88 384.367V383.887C1009.88 383.207 1009.79 382.633 1009.62 382.167C1009.45 381.7 1009.17 381.353 1008.8 381.127C1008.44 380.887 1007.95 380.767 1007.34 380.767C1006.74 380.767 1006.25 380.887 1005.88 381.127C1005.52 381.353 1005.25 381.7 1005.08 382.167C1004.91 382.633 1004.82 383.207 1004.82 383.887V384.367C1004.82 385.047 1004.91 385.62 1005.08 386.087C1005.25 386.553 1005.52 386.9 1005.88 387.127C1006.25 387.353 1006.74 387.467 1007.34 387.467ZM1014.77 377.327V374.927H1017.55V377.327H1014.77ZM1014.77 389.387V378.867H1017.55V389.387H1014.77ZM1020.1 389.387V378.867H1022.4L1022.62 380.307H1022.76C1023 379.96 1023.29 379.66 1023.62 379.407C1023.97 379.153 1024.35 378.96 1024.78 378.827C1025.21 378.693 1025.67 378.627 1026.18 378.627C1026.87 378.627 1027.48 378.753 1028 379.007C1028.52 379.26 1028.92 379.66 1029.2 380.207C1029.49 380.753 1029.64 381.467 1029.64 382.347V389.387H1026.86V382.787C1026.86 382.453 1026.82 382.173 1026.74 381.947C1026.66 381.707 1026.54 381.513 1026.38 381.367C1026.23 381.207 1026.05 381.093 1025.82 381.027C1025.59 380.96 1025.34 380.927 1025.06 380.927C1024.65 380.927 1024.27 381.027 1023.94 381.227C1023.61 381.427 1023.35 381.7 1023.16 382.047C1022.97 382.393 1022.88 382.793 1022.88 383.247V389.387H1020.1Z" fill="#FAFAFA"/>
<rect x="885.5" y="333.887" width="194" height="99" rx="31.5" stroke="#FAFAFA"/>
<g clip-path="url(#clip6_333_5)">
<path d="M1033 257.236C1031.13 262.027 1027.22 264.347 1022.59 265.769C1018.18 267.102 1013.62 267.525 1009.05 267.893C1008.28 267.956 1007.22 268.316 1006.76 267.578C1006.23 266.725 1007.28 266.156 1007.74 265.56C1010.11 262.433 1011.89 258.889 1012.97 255.111C1013.75 252.445 1013.6 252.076 1011.02 251.231C1007.3 250.018 1003.56 248.845 999.82 247.676C998.806 247.351 997.793 247.031 997.726 245.729C997.651 244.276 998.753 243.849 999.833 243.556C1006.28 241.809 1012.72 242.373 1019.15 243.685C1020.81 244.05 1022.44 244.518 1024.04 245.085C1027.78 246.356 1030.98 248.36 1033 251.911L1033 257.236Z" fill="#FAFAFA"/>
<path d="M933 253.68C934.716 249.053 937.991 245.72 941.889 242.884C944.668 240.917 947.564 239.12 950.56 237.502C951.067 237.218 951.649 236.693 952.187 237.027C952.8 237.404 952.373 238.116 952.244 238.658C951.293 242.658 951.529 246.751 951.827 250.809C952.04 253.729 952.342 253.951 955.218 253.627C959.187 253.182 963.142 252.627 967.093 252.058C968.213 251.898 969.204 251.898 969.76 253.053C970.253 254.12 969.636 254.898 968.911 255.587C968.442 256.061 967.937 256.498 967.4 256.893C960.646 261.652 952.701 264.439 944.453 264.942C939.289 265.253 935.058 263.858 933.009 258.569L933 253.68Z" fill="#FAFAFA"/>
<path d="M982.595 195C986.186 195.138 989.021 196.991 991.244 199.889C995.217 205.053 997.053 211.16 998.799 217.307C998.857 217.474 998.879 217.652 998.864 217.829C998.85 218.006 998.799 218.177 998.715 218.333C998.244 218.778 997.746 218.333 997.319 218.102C993.266 216.031 988.95 215.142 984.484 214.756C982.706 214.6 981.959 215.102 981.844 216.978C981.586 221.036 981.097 225.084 980.715 229.133C980.608 230.267 980.528 231.48 979.186 231.8C977.697 232.16 977.088 230.947 976.519 229.924C974.408 226.093 973.648 221.844 973.03 217.6C972.275 212.364 972.173 207.111 973.804 201.978C975.293 197.32 978.141 195.031 982.595 195Z" fill="#FAFAFA"/>
<path d="M971.029 216.538C970.327 217.533 969.176 217.738 968.225 218.258C964.733 220.218 961.6 222.76 958.963 225.773C957.972 226.875 958.132 227.613 959.132 228.551C962.154 231.387 965.114 234.289 968.114 237.151C968.976 237.978 970.034 238.755 969.318 240.142C968.678 241.369 967.541 241.164 966.381 241.031C962.936 240.587 959.874 239.08 956.874 237.475C951.683 234.689 946.869 231.378 943.278 226.604C941.078 223.675 939.469 220.507 941.323 216.747C943.252 212.822 946.563 211.075 950.812 210.902C957.923 210.609 964.283 213.262 970.603 216.035C970.776 216.093 970.874 216.342 971.029 216.538Z" fill="#FAFAFA"/>
<path d="M1024.55 221C1024.34 224.453 1022.77 228.111 1020.89 231.667C1019.38 234.472 1017.66 237.158 1015.75 239.702C1015.39 240.187 1015.19 241.098 1014.35 240.867C1013.68 240.685 1013.81 239.889 1013.68 239.333C1012.66 235.152 1010.85 231.204 1008.35 227.702C1007.32 226.222 1006.45 225.778 1004.79 226.991C1001.56 229.347 998.178 231.48 994.849 233.698C993.862 234.351 992.836 235.2 991.649 234.178C990.596 233.289 990.982 232.111 991.484 231.116C996.058 222.102 1002.65 215.022 1012.08 211.173C1018.71 208.476 1024.6 213.04 1024.55 221Z" fill="#FAFAFA"/>
<path d="M1010.59 283.774C1010.8 289.996 1005.11 294.191 998.707 292.538C995.182 291.627 992.28 289.6 989.52 287.338C986.71 284.932 984.086 282.318 981.671 279.516C981.298 279.107 980.613 278.707 980.964 278.045C981.316 277.382 982.027 277.654 982.587 277.662C987.187 277.742 991.476 276.565 995.702 274.809C997.004 274.267 997.324 273.627 996.791 272.285C995.204 268.285 993.742 264.285 992.204 260.285C991.813 259.271 991.48 258.298 992.467 257.454C993.453 256.609 994.382 257.085 995.298 257.662C1002.17 261.987 1010.32 275.889 1010.59 283.774Z" fill="#FAFAFA"/>
<path d="M956.8 264.16C958.662 266.213 960.32 268.378 962.467 270.08C964.333 271.535 966.304 272.85 968.364 274.013C969.698 274.787 970.453 274.458 971.191 273.178C973.2 269.622 975.302 266.16 977.378 262.662C977.978 261.653 978.498 260.44 980.009 260.729C981.52 261.018 981.613 262.378 981.671 263.524C981.871 267.72 980.893 271.751 979.627 275.702C978.04 280.662 975.938 285.382 972.515 289.404C967.129 295.751 958.96 294.324 956.071 286.493C953.818 280.342 954.68 274.08 955.711 267.858C955.938 266.698 955.662 265.316 956.8 264.16Z" fill="#FAFAFA"/>
</g>
<path d="M56.6212 389.238C55.1678 389.238 53.9145 388.978 52.8612 388.458C51.8078 387.938 51.0012 387.151 50.4412 386.098C49.8812 385.045 49.6012 383.725 49.6012 382.138C49.6012 380.525 49.8812 379.198 50.4412 378.158C51.0012 377.105 51.8078 376.325 52.8612 375.818C53.9145 375.298 55.1678 375.038 56.6212 375.038C58.1012 375.038 59.3612 375.298 60.4012 375.818C61.4545 376.325 62.2612 377.105 62.8212 378.158C63.3812 379.198 63.6612 380.525 63.6612 382.138C63.6612 383.725 63.3812 385.045 62.8212 386.098C62.2612 387.151 61.4545 387.938 60.4012 388.458C59.3612 388.978 58.1012 389.238 56.6212 389.238ZM56.6212 386.798C57.2745 386.798 57.8478 386.705 58.3412 386.518C58.8345 386.331 59.2478 386.051 59.5812 385.678C59.9145 385.305 60.1678 384.851 60.3412 384.318C60.5145 383.771 60.6012 383.151 60.6012 382.458V381.838C60.6012 381.131 60.5145 380.505 60.3412 379.958C60.1678 379.411 59.9145 378.958 59.5812 378.598C59.2478 378.225 58.8345 377.945 58.3412 377.758C57.8478 377.571 57.2745 377.478 56.6212 377.478C55.9812 377.478 55.4145 377.571 54.9212 377.758C54.4278 377.945 54.0145 378.225 53.6812 378.598C53.3478 378.958 53.0945 379.411 52.9212 379.958C52.7612 380.505 52.6812 381.131 52.6812 381.838V382.458C52.6812 383.151 52.7612 383.771 52.9212 384.318C53.0945 384.851 53.3478 385.305 53.6812 385.678C54.0145 386.051 54.4278 386.331 54.9212 386.518C55.4145 386.705 55.9812 386.798 56.6212 386.798ZM65.8405 392.558V378.478H68.1205L68.3605 379.898H68.5005C68.8472 379.325 69.3005 378.905 69.8605 378.638C70.4205 378.371 71.0405 378.238 71.7205 378.238C72.6005 378.238 73.3539 378.431 73.9805 378.818C74.6205 379.205 75.1072 379.805 75.4405 380.618C75.7872 381.431 75.9605 382.478 75.9605 383.758C75.9605 384.998 75.7872 386.025 75.4405 386.838C75.0939 387.651 74.6072 388.258 73.9805 388.658C73.3672 389.045 72.6472 389.238 71.8205 389.238C71.3672 389.238 70.9472 389.185 70.5605 389.078C70.1739 388.985 69.8272 388.831 69.5205 388.618C69.2139 388.405 68.9539 388.145 68.7405 387.838H68.6205V392.558H65.8405ZM70.8605 386.958C71.4205 386.958 71.8605 386.851 72.1805 386.638C72.5139 386.411 72.7539 386.078 72.9005 385.638C73.0472 385.185 73.1205 384.631 73.1205 383.978V383.518C73.1205 382.851 73.0472 382.298 72.9005 381.858C72.7539 381.405 72.5139 381.071 72.1805 380.858C71.8605 380.631 71.4205 380.518 70.8605 380.518C70.3405 380.518 69.9139 380.638 69.5805 380.878C69.2472 381.118 69.0005 381.465 68.8405 381.918C68.6805 382.371 68.6005 382.918 68.6005 383.558V383.898C68.6005 384.365 68.6472 384.791 68.7405 385.178C68.8339 385.551 68.9672 385.871 69.1405 386.138C69.3272 386.405 69.5605 386.611 69.8405 386.758C70.1205 386.891 70.4605 386.958 70.8605 386.958ZM81.1485 389.238C80.4818 389.238 79.9418 389.118 79.5285 388.878C79.1152 388.638 78.8152 388.318 78.6285 387.918C78.4418 387.505 78.3485 387.051 78.3485 386.558V380.618H77.0485V378.478H78.4485L78.9685 375.478H81.1285V378.478H83.0485V380.618H81.1285V386.098C81.1285 386.418 81.2018 386.665 81.3485 386.838C81.4952 386.998 81.7352 387.078 82.0685 387.078H83.0485V388.918C82.8885 388.971 82.7018 389.018 82.4885 389.058C82.2752 389.111 82.0485 389.151 81.8085 389.178C81.5685 389.218 81.3485 389.238 81.1485 389.238ZM84.8445 376.938V374.538H87.6245V376.938H84.8445ZM84.8445 388.998V378.478H87.6245V388.998H84.8445ZM90.1765 388.998V378.478H92.4765L92.6965 379.918H92.8365C93.0632 379.571 93.3298 379.271 93.6365 379.018C93.9565 378.765 94.3098 378.571 94.6965 378.438C95.0965 378.305 95.5232 378.238 95.9765 378.238C96.6432 378.238 97.2165 378.371 97.6965 378.638C98.1898 378.905 98.5698 379.331 98.8365 379.918H98.9765C99.2032 379.571 99.4765 379.271 99.7965 379.018C100.116 378.765 100.483 378.571 100.896 378.438C101.31 378.305 101.75 378.238 102.216 378.238C102.883 378.238 103.456 378.358 103.936 378.598C104.43 378.838 104.816 379.231 105.096 379.778C105.376 380.311 105.516 381.005 105.516 381.858V388.998H102.736V382.358C102.736 382.025 102.696 381.745 102.616 381.518C102.55 381.278 102.45 381.091 102.316 380.958C102.183 380.811 102.016 380.705 101.816 380.638C101.616 380.571 101.403 380.538 101.176 380.538C100.803 380.538 100.47 380.638 100.176 380.838C99.8832 381.038 99.6498 381.311 99.4765 381.658C99.3165 382.005 99.2365 382.405 99.2365 382.858V388.998H96.4565V382.358C96.4565 382.025 96.4165 381.745 96.3365 381.518C96.2698 381.278 96.1698 381.091 96.0365 380.958C95.9032 380.811 95.7365 380.705 95.5365 380.638C95.3498 380.571 95.1365 380.538 94.8965 380.538C94.5365 380.538 94.2032 380.638 93.8965 380.838C93.6032 381.038 93.3698 381.311 93.1965 381.658C93.0365 382.005 92.9565 382.405 92.9565 382.858V388.998H90.1765ZM107.989 376.938V374.538H110.769V376.938H107.989ZM107.989 388.998V378.478H110.769V388.998H107.989ZM117.581 389.238C116.848 389.238 116.188 389.158 115.601 388.998C115.014 388.838 114.514 388.618 114.101 388.338C113.688 388.045 113.368 387.698 113.141 387.298C112.928 386.898 112.821 386.445 112.821 385.938C112.821 385.885 112.821 385.831 112.821 385.778C112.821 385.725 112.828 385.685 112.841 385.658H115.521C115.521 385.685 115.521 385.711 115.521 385.738C115.521 385.765 115.521 385.791 115.521 385.818C115.534 386.151 115.641 386.425 115.841 386.638C116.041 386.838 116.301 386.985 116.621 387.078C116.954 387.171 117.301 387.218 117.661 387.218C117.981 387.218 118.288 387.191 118.581 387.138C118.888 387.071 119.141 386.958 119.341 386.798C119.554 386.638 119.661 386.431 119.661 386.178C119.661 385.858 119.528 385.611 119.261 385.438C119.008 385.265 118.668 385.125 118.241 385.018C117.828 384.911 117.374 384.791 116.881 384.658C116.428 384.551 115.974 384.431 115.521 384.298C115.068 384.151 114.654 383.965 114.281 383.738C113.921 383.511 113.628 383.218 113.401 382.858C113.174 382.485 113.061 382.018 113.061 381.458C113.061 380.911 113.181 380.438 113.421 380.038C113.661 379.625 113.988 379.285 114.401 379.018C114.828 378.751 115.321 378.558 115.881 378.438C116.454 378.305 117.068 378.238 117.721 378.238C118.334 378.238 118.908 378.305 119.441 378.438C119.974 378.558 120.441 378.745 120.841 378.998C121.241 379.238 121.554 379.545 121.781 379.918C122.008 380.278 122.121 380.685 122.121 381.138C122.121 381.231 122.121 381.318 122.121 381.398C122.121 381.478 122.114 381.531 122.101 381.558H119.441V381.398C119.441 381.158 119.368 380.958 119.221 380.798C119.074 380.625 118.861 380.491 118.581 380.398C118.314 380.305 117.988 380.258 117.601 380.258C117.334 380.258 117.088 380.278 116.861 380.318C116.648 380.358 116.461 380.418 116.301 380.498C116.141 380.578 116.014 380.678 115.921 380.798C115.841 380.905 115.801 381.038 115.801 381.198C115.801 381.425 115.894 381.611 116.081 381.758C116.281 381.891 116.541 382.005 116.861 382.098C117.181 382.191 117.534 382.291 117.921 382.398C118.401 382.531 118.901 382.665 119.421 382.798C119.954 382.918 120.448 383.085 120.901 383.298C121.354 383.511 121.721 383.818 122.001 384.218C122.281 384.605 122.421 385.131 122.421 385.798C122.421 386.438 122.294 386.978 122.041 387.418C121.801 387.858 121.461 388.211 121.021 388.478C120.581 388.745 120.068 388.938 119.481 389.058C118.894 389.178 118.261 389.238 117.581 389.238ZM124.434 376.938V374.538H127.214V376.938H124.434ZM124.434 388.998V378.478H127.214V388.998H124.434ZM129.766 388.998V378.478H132.066L132.286 379.918H132.426C132.653 379.571 132.92 379.271 133.226 379.018C133.546 378.765 133.9 378.571 134.286 378.438C134.686 378.305 135.113 378.238 135.566 378.238C136.233 378.238 136.806 378.371 137.286 378.638C137.78 378.905 138.16 379.331 138.426 379.918H138.566C138.793 379.571 139.066 379.271 139.386 379.018C139.706 378.765 140.073 378.571 140.486 378.438C140.9 378.305 141.34 378.238 141.806 378.238C142.473 378.238 143.046 378.358 143.526 378.598C144.02 378.838 144.406 379.231 144.686 379.778C144.966 380.311 145.106 381.005 145.106 381.858V388.998H142.326V382.358C142.326 382.025 142.286 381.745 142.206 381.518C142.14 381.278 142.04 381.091 141.906 380.958C141.773 380.811 141.606 380.705 141.406 380.638C141.206 380.571 140.993 380.538 140.766 380.538C140.393 380.538 140.06 380.638 139.766 380.838C139.473 381.038 139.24 381.311 139.066 381.658C138.906 382.005 138.826 382.405 138.826 382.858V388.998H136.046V382.358C136.046 382.025 136.006 381.745 135.926 381.518C135.86 381.278 135.76 381.091 135.626 380.958C135.493 380.811 135.326 380.705 135.126 380.638C134.94 380.571 134.726 380.538 134.486 380.538C134.126 380.538 133.793 380.638 133.486 380.838C133.193 381.038 132.96 381.311 132.786 381.658C132.626 382.005 132.546 382.405 132.546 382.858V388.998H129.766Z" fill="#FAFAFA"/>
<rect x="0.5" y="333.498" width="194" height="99" rx="31.5" stroke="#FAFAFA"/>
<g clip-path="url(#clip7_333_5)">
<path d="M147.567 251.222C145.791 245.302 140.66 242.204 131.859 241.878C129.244 241.78 126.62 241.878 123.965 241.878C120.354 241.878 116.743 241.878 113.112 241.878C111.001 241.928 109.076 242.658 108.583 244.937C105.505 259.198 102.482 273.472 99.5155 287.759C98.9729 290.344 100.216 291.706 102.9 292.041C109.412 292.909 111.02 291.814 112.471 285.45C115.431 272.446 112.796 274.291 126.403 274.084C131.025 274.179 135.577 272.942 139.516 270.522C145.495 266.723 149.363 257.221 147.567 251.222ZM122.989 265.036C120.926 264.552 117.276 266.368 117.473 261.454C117.799 253.166 119.703 250.601 125.88 250.601C132.55 250.601 134.898 252.031 134.987 256.195C135.115 261.79 130.852 265.016 122.989 265.026V265.036Z" fill="#FAFAFA"/>
<path d="M76.2872 241C66.1343 240.911 57.8462 244.374 53.3962 254.024C50.1389 261.404 48.3172 269.337 48.0287 277.399C47.8355 279.535 48.1813 281.686 49.0346 283.655C49.8878 285.624 51.2212 287.347 52.9128 288.666C61.9211 295.978 80.1945 293.728 87.269 284.532C92.2024 278.148 92.893 270.383 94.9946 263.003C98.1816 251.804 91.9458 240.635 76.2872 241ZM78.9808 276.047C78.3041 278.004 77.0815 279.727 75.4573 281.012C73.8331 282.297 71.8752 283.091 69.8146 283.299C63.9734 284.147 60.0563 280.664 60.7075 274.813C61.2958 269.094 62.5576 263.464 64.4668 258.04C65.0734 256.239 66.1338 254.625 67.5458 253.353C68.9577 252.081 70.6736 251.194 72.528 250.778C78.8328 249.15 82.8388 252.307 82.75 259.806C82.154 265.352 80.8884 270.805 78.9808 276.047V276.047Z" fill="#FAFAFA"/>
</g>
<defs>
<clipPath id="clip0_333_5">
<rect width="100" height="75.413" fill="white" transform="translate(343 587.387)"/>
</clipPath>
<clipPath id="clip1_333_5">
<rect width="100" height="110.787" fill="white" transform="translate(638 551.387)"/>
</clipPath>
<clipPath id="clip2_333_5">
<rect width="100" height="99.9883" fill="white" transform="translate(48 562.387)"/>
</clipPath>
<clipPath id="clip3_333_5">
<rect width="100" height="128.655" fill="white" transform="translate(933 533.387)"/>
</clipPath>
<clipPath id="clip4_333_5">
<rect width="100" height="100" fill="white" transform="translate(343 193)"/>
</clipPath>
<clipPath id="clip5_333_5">
<rect width="100" height="115.595" fill="white" transform="translate(638 177)"/>
</clipPath>
<clipPath id="clip6_333_5">
<rect width="100" height="98.3867" fill="white" transform="translate(933 195)"/>
</clipPath>
<clipPath id="clip7_333_5">
<rect width="100" height="51.998" fill="white" transform="translate(48 241)"/>
</clipPath>
</defs>
</svg>
