<svg width="486" height="72" viewBox="0 0 486 72" fill="none" xmlns="http://www.w3.org/2000/svg">
<path d="M0.88 70H29.392C49.168 70 62.512 58.672 65.968 39.088C66.448 36.016 66.736 33.04 66.736 29.968C66.736 12.208 56.176 4.144 37.936 4.144H12.496L0.88 70ZM17.296 58.192L24.688 15.856H36.976C46.768 15.856 51.952 20.752 51.952 30.352C51.952 32.368 51.664 34.48 50.8 38.992C48.784 51.184 40.912 58.192 29.104 58.192H17.296ZM95.5608 71.152C108.521 71.152 117.929 64.912 119.945 52.144H106.889C105.833 58.288 101.705 61.168 95.3688 61.168C88.3608 61.168 85.2888 58.096 85.2888 51.664C85.2888 50.512 85.4808 49.072 85.6728 47.728H120.713C121.769 43.504 122.057 39.856 122.057 37.072C122.057 24.304 114.569 18.352 100.361 18.352C84.3288 18.352 75.7848 28.048 73.0968 41.488C72.4248 44.656 72.1367 48.112 72.1367 51.472C72.1367 64.912 80.1048 71.152 95.5608 71.152ZM87.3048 39.28C89.3208 32.08 93.5448 28.24 100.649 28.24C105.641 28.24 108.809 30.64 108.809 36.208C108.809 37.072 108.809 38.128 108.521 39.28H87.3048ZM126.759 70H140.103L145.095 41.776C146.343 34.576 151.143 29.392 156.711 29.392C160.359 29.392 162.759 31.12 162.759 35.344C162.759 36.496 162.567 37.744 162.279 39.28L156.903 70H170.151L175.143 41.776C176.487 34.576 181.191 29.392 186.855 29.392C190.503 29.392 192.807 31.12 192.807 35.44C192.807 36.592 192.615 37.744 192.423 39.28L186.951 70H200.199L205.959 37.84C206.439 35.44 206.727 33.232 206.727 31.216C206.727 22.192 201.351 18.352 192.903 18.352C186.375 18.352 180.615 21.616 176.583 26.416H175.911C174.279 20.848 169.671 18.352 163.047 18.352C156.615 18.352 151.143 21.616 147.207 26.416H146.535V19.504H135.591L126.759 70ZM236.163 71.152C251.619 71.152 260.643 64.144 264.387 48.784C265.635 45.424 266.403 41.872 266.403 38.032C266.403 24.688 258.531 18.352 243.555 18.352C227.427 18.352 217.251 26.32 214.275 43.696C213.795 46.384 213.507 49.072 213.507 51.568C213.507 64.816 221.379 71.152 236.163 71.152ZM237.123 60.784C230.115 60.784 227.043 57.616 227.043 51.088C227.043 49.552 227.235 47.728 228.003 43.6C229.923 33.808 234.051 28.624 242.691 28.624C249.699 28.624 252.675 31.984 252.675 38.416C252.675 40.048 252.579 41.776 251.811 45.904C249.987 55.792 245.763 60.784 237.123 60.784ZM305.626 71.152C308.41 71.152 312.442 70.384 314.65 69.616L316.282 60.784H311.578C308.89 60.784 307.738 59.632 307.738 57.424C307.738 56.944 308.026 55.12 308.122 54.448L312.538 29.776H321.658L323.482 19.504H314.266L316.858 5.10399H306.49L301.402 19.504H294.682L292.954 29.776H299.194L294.586 56.56C294.202 58.576 294.106 60.016 294.106 61.072C294.106 67.024 297.274 71.152 305.626 71.152ZM332.775 12.112H346.215L348.231 0.591995H334.887L332.775 12.112ZM322.791 70H336.135L345.062 19.504H331.719L322.791 70ZM348.384 70H361.728L366.72 41.776C367.968 34.576 372.768 29.392 378.336 29.392C381.984 29.392 384.384 31.12 384.384 35.344C384.384 36.496 384.192 37.744 383.904 39.28L378.528 70H391.776L396.768 41.776C398.112 34.576 402.816 29.392 408.48 29.392C412.128 29.392 414.432 31.12 414.432 35.44C414.432 36.592 414.24 37.744 414.048 39.28L408.576 70H421.824L427.584 37.84C428.064 35.44 428.352 33.232 428.352 31.216C428.352 22.192 422.976 18.352 414.528 18.352C408 18.352 402.24 21.616 398.208 26.416H397.536C395.904 20.848 391.296 18.352 384.672 18.352C378.24 18.352 372.768 21.616 368.832 26.416H368.16V19.504H357.216L348.384 70ZM458.748 71.152C471.708 71.152 481.116 64.912 483.132 52.144H470.076C469.02 58.288 464.892 61.168 458.556 61.168C451.548 61.168 448.476 58.096 448.476 51.664C448.476 50.512 448.668 49.072 448.86 47.728H483.9C484.956 43.504 485.244 39.856 485.244 37.072C485.244 24.304 477.756 18.352 463.548 18.352C447.516 18.352 438.972 28.048 436.284 41.488C435.612 44.656 435.324 48.112 435.324 51.472C435.324 64.912 443.292 71.152 458.748 71.152ZM450.492 39.28C452.508 32.08 456.732 28.24 463.836 28.24C468.828 28.24 471.996 30.64 471.996 36.208C471.996 37.072 471.996 38.128 471.708 39.28H450.492Z" fill="#FAFAFA"/>
</svg>
