<svg width="800" height="800" viewBox="0 0 800 800" fill="none" xmlns="http://www.w3.org/2000/svg">
<path d="M270.143 684.106C534.306 684.106 678.768 465.176 678.768 275.328C678.768 269.111 678.641 262.922 678.361 256.759C706.47 236.412 730.729 211.219 750 182.362C724.266 193.807 696.575 201.51 667.525 204.983C697.177 187.197 719.94 159.059 730.68 125.518C702.488 142.249 671.646 154.043 639.484 160.392C613.277 132.466 575.966 115 534.652 115C455.341 115 391.027 179.34 391.027 258.649C391.027 269.925 392.289 280.889 394.753 291.409C275.39 285.4 169.548 228.231 98.7126 141.301C85.9545 163.227 79.244 188.145 79.2663 213.512C79.2663 263.357 104.62 307.359 143.177 333.103C120.37 332.406 98.0637 326.243 78.1337 315.133C78.1124 315.736 78.1124 316.324 78.1124 316.969C78.1124 386.546 127.616 444.639 193.331 457.802C180.989 461.165 168.253 462.865 155.461 462.857C146.223 462.857 137.22 461.948 128.47 460.268C146.754 517.352 199.772 558.892 262.631 560.053C213.476 598.595 151.555 621.551 84.2573 621.551C72.809 621.561 61.3701 620.896 50 619.561C113.561 660.316 189.033 684.096 270.15 684.096" fill="white"/>
</svg>
